<?xml version="1.0" encoding="UTF-8" standalone="no"?>
<!DOCTYPE svg PUBLIC "-//W3C//DTD SVG 1.1//EN"
 "http://www.w3.org/Graphics/SVG/1.1/DTD/svg11.dtd">
<!-- Generated by graphviz version 12.1.2 (20240928.0832)
 -->
<!-- Title: G Pages: 1 -->
<svg width="3438pt" height="188pt"
 viewBox="0.00 0.00 3437.55 188.00" xmlns="http://www.w3.org/2000/svg" xmlns:xlink="http://www.w3.org/1999/xlink">
<g id="graph0" class="graph" transform="scale(1 1) rotate(0) translate(4 184)">
<title>G</title>
<polygon fill="white" stroke="none" points="-4,4 -4,-184 3433.55,-184 3433.55,4 -4,4"/>
<!-- 255 -->
<g id="node1" class="node">
<title>255</title>
<ellipse fill="none" stroke="black" cx="2889.57" cy="-90" rx="452.1" ry="18"/>
<text text-anchor="middle" x="2889.57" y="-84.95" font-family="Times,serif" font-size="14.00">255: difficulty of distinguishing between varieties and species ; origin of domestic varieties from one or more species </text>
</g>
<!-- ends -->
<g id="node2" class="node">
<title>ends</title>
<ellipse fill="none" stroke="black" cx="2049.57" cy="-18" rx="27.81" ry="18"/>
<text text-anchor="middle" x="2049.57" y="-12.95" font-family="Times,serif" font-size="14.00">ends</text>
</g>
<!-- 255&#45;&gt;ends -->
<g id="edge1" class="edge">
<title>255&#45;&gt;ends</title>
<path fill="none" stroke="black" d="M2700.01,-73.2C2498.76,-56.43 2195.27,-31.14 2088.44,-22.24"/>
<polygon fill="black" stroke="black" points="2089.03,-18.78 2078.78,-21.43 2088.45,-25.75 2089.03,-18.78"/>
</g>
<!-- 192 -->
<g id="node3" class="node">
<title>192</title>
<ellipse fill="none" stroke="black" cx="1209.57" cy="-90" rx="1209.57" ry="18"/>
<text text-anchor="middle" x="1209.57" y="-84.95" font-family="Times,serif" font-size="14.00">192: there is not a shadow of evidence in favour of this view : to assert that we could not breed our cart and race &#45; horses , long and short &#45; horned cattle , and poultry of various breeds , and esculent vegetables , for an unlimited number of generations , would be opposed to all experience . character of domestic varieties </text>
</g>
<!-- 192&#45;&gt;ends -->
<g id="edge2" class="edge">
<title>192&#45;&gt;ends</title>
<path fill="none" stroke="black" d="M1416.14,-71.79C1617.03,-55.04 1906.67,-30.91 2010.61,-22.25"/>
<polygon fill="black" stroke="black" points="2010.6,-25.76 2020.28,-21.44 2010.02,-18.78 2010.6,-25.76"/>
</g>
<!-- 173 -->
<g id="node4" class="node">
<title>173</title>
<ellipse fill="none" stroke="black" cx="3394.57" cy="-162" rx="34.97" ry="18"/>
<text text-anchor="middle" x="3394.57" y="-156.95" font-family="Times,serif" font-size="14.00">173: ; </text>
</g>
<!-- 254 -->
<g id="node5" class="node">
<title>254</title>
<ellipse fill="none" stroke="black" cx="3394.57" cy="-90" rx="34.97" ry="18"/>
<text text-anchor="middle" x="3394.57" y="-84.95" font-family="Times,serif" font-size="14.00">254: : </text>
</g>
<!-- 173&#45;&gt;254 -->
<g id="edge3" class="edge">
<title>173&#45;&gt;254</title>
<path fill="none" stroke="black" d="M3394.57,-143.7C3394.57,-136.41 3394.57,-127.73 3394.57,-119.54"/>
<polygon fill="black" stroke="black" points="3398.07,-119.62 3394.57,-109.62 3391.07,-119.62 3398.07,-119.62"/>
</g>
<!-- starts -->
<g id="node6" class="node">
<title>starts</title>
<ellipse fill="none" stroke="black" cx="2889.57" cy="-162" rx="30.37" ry="18"/>
<text text-anchor="middle" x="2889.57" y="-156.95" font-family="Times,serif" font-size="14.00">starts</text>
</g>
<!-- starts&#45;&gt;255 -->
<g id="edge4" class="edge">
<title>starts&#45;&gt;255</title>
<path fill="none" stroke="black" d="M2889.57,-143.7C2889.57,-136.41 2889.57,-127.73 2889.57,-119.54"/>
<polygon fill="black" stroke="black" points="2893.07,-119.62 2889.57,-109.62 2886.07,-119.62 2893.07,-119.62"/>
</g>
</g>
</svg>
