<?xml version="1.0" encoding="UTF-8" standalone="no"?>
<!DOCTYPE svg PUBLIC "-//W3C//DTD SVG 1.1//EN"
 "http://www.w3.org/Graphics/SVG/1.1/DTD/svg11.dtd">
<!-- Generated by graphviz version 12.2.0 (20241103.1931)
 -->
<!-- Title: G Pages: 1 -->
<svg width="1198pt" height="260pt"
 viewBox="0.00 0.00 1198.35 260.00" xmlns="http://www.w3.org/2000/svg" xmlns:xlink="http://www.w3.org/1999/xlink">
<g id="graph0" class="graph" transform="scale(1 1) rotate(0) translate(4 256)">
<title>G</title>
<polygon fill="white" stroke="none" points="-4,4 -4,-256 1194.35,-256 1194.35,4 -4,4"/>
<!-- 22 -->
<g id="node1" class="node">
<title>22</title>
<ellipse fill="none" stroke="black" cx="591.09" cy="-162" rx="485.88" ry="18"/>
<text text-anchor="middle" x="591.09" y="-156.95" font-family="Times,serif" font-size="14.00">22: natural selection , as will hereafter be explained , will determine how far the new characters thus arising shall be preserved </text>
</g>
<!-- ends -->
<g id="node2" class="node">
<title>ends</title>
<ellipse fill="none" stroke="black" cx="591.09" cy="-18" rx="27.81" ry="18"/>
<text text-anchor="middle" x="591.09" y="-12.95" font-family="Times,serif" font-size="14.00">ends</text>
</g>
<!-- 22&#45;&gt;ends -->
<g id="edge1" class="edge">
<title>22&#45;&gt;ends</title>
<path fill="none" stroke="black" d="M252.01,-148.76C134.24,-140.98 26.68,-128.36 8.09,-108 -2.7,-96.19 -2.7,-83.81 8.09,-72 44.73,-31.88 426.99,-21.8 551.87,-19.57"/>
<polygon fill="black" stroke="black" points="551.67,-23.08 561.61,-19.41 551.55,-16.08 551.67,-23.08"/>
</g>
<!-- 87 -->
<g id="node3" class="node">
<title>87</title>
<ellipse fill="none" stroke="black" cx="591.09" cy="-90" rx="574.42" ry="18"/>
<text text-anchor="middle" x="591.09" y="-84.95" font-family="Times,serif" font-size="14.00">87: . character of domestic varieties ; difficulty of distinguishing between varieties and species ; origin of domestic varieties from one or more species </text>
</g>
<!-- 22&#45;&gt;87 -->
<g id="edge2" class="edge">
<title>22&#45;&gt;87</title>
<path fill="none" stroke="black" d="M591.09,-143.7C591.09,-136.41 591.09,-127.73 591.09,-119.54"/>
<polygon fill="black" stroke="black" points="594.59,-119.62 591.09,-109.62 587.59,-119.62 594.59,-119.62"/>
</g>
<!-- 87&#45;&gt;ends -->
<g id="edge3" class="edge">
<title>87&#45;&gt;ends</title>
<path fill="none" stroke="black" d="M591.09,-71.7C591.09,-64.41 591.09,-55.73 591.09,-47.54"/>
<polygon fill="black" stroke="black" points="594.59,-47.62 591.09,-37.62 587.59,-47.62 594.59,-47.62"/>
</g>
<!-- starts -->
<g id="node4" class="node">
<title>starts</title>
<ellipse fill="none" stroke="black" cx="892.09" cy="-234" rx="30.37" ry="18"/>
<text text-anchor="middle" x="892.09" y="-228.95" font-family="Times,serif" font-size="14.00">starts</text>
</g>
<!-- starts&#45;&gt;22 -->
<g id="edge5" class="edge">
<title>starts&#45;&gt;22</title>
<path fill="none" stroke="black" d="M864.05,-226.48C821.64,-216.62 739.46,-197.5 676.31,-182.82"/>
<polygon fill="black" stroke="black" points="677.16,-179.42 666.62,-180.57 675.57,-186.24 677.16,-179.42"/>
</g>
<!-- starts&#45;&gt;ends -->
<g id="edge4" class="edge">
<title>starts&#45;&gt;ends</title>
<path fill="none" stroke="black" d="M921.36,-228.19C1008.4,-212.75 1254.69,-160.25 1174.09,-72 1137.45,-31.88 755.2,-21.8 630.32,-19.57"/>
<polygon fill="black" stroke="black" points="630.63,-16.08 620.57,-19.41 630.51,-23.08 630.63,-16.08"/>
</g>
</g>
</svg>
