<?xml version="1.0" encoding="UTF-8" standalone="no"?>
<!DOCTYPE svg PUBLIC "-//W3C//DTD SVG 1.1//EN"
 "http://www.w3.org/Graphics/SVG/1.1/DTD/svg11.dtd">
<!-- Generated by graphviz version 12.1.2 (20240928.0832)
 -->
<!-- Title: G Pages: 1 -->
<svg width="1157pt" height="260pt"
 viewBox="0.00 0.00 1156.84 260.00" xmlns="http://www.w3.org/2000/svg" xmlns:xlink="http://www.w3.org/1999/xlink">
<g id="graph0" class="graph" transform="scale(1 1) rotate(0) translate(4 256)">
<title>G</title>
<polygon fill="white" stroke="none" points="-4,4 -4,-256 1152.84,-256 1152.84,4 -4,4"/>
<!-- 22 -->
<g id="node1" class="node">
<title>22</title>
<ellipse fill="none" stroke="black" cx="574.42" cy="-162" rx="485.88" ry="18"/>
<text text-anchor="middle" x="574.42" y="-156.95" font-family="Times,serif" font-size="14.00">22: natural selection , as will hereafter be explained , will determine how far the new characters thus arising shall be preserved </text>
</g>
<!-- 87 -->
<g id="node2" class="node">
<title>87</title>
<ellipse fill="none" stroke="black" cx="574.42" cy="-90" rx="574.42" ry="18"/>
<text text-anchor="middle" x="574.42" y="-84.95" font-family="Times,serif" font-size="14.00">87: . character of domestic varieties ; difficulty of distinguishing between varieties and species ; origin of domestic varieties from one or more species </text>
</g>
<!-- 22&#45;&gt;87 -->
<g id="edge1" class="edge">
<title>22&#45;&gt;87</title>
<path fill="none" stroke="black" d="M574.42,-143.7C574.42,-136.41 574.42,-127.73 574.42,-119.54"/>
<polygon fill="black" stroke="black" points="577.92,-119.62 574.42,-109.62 570.92,-119.62 577.92,-119.62"/>
</g>
<!-- ends -->
<g id="node3" class="node">
<title>ends</title>
<ellipse fill="none" stroke="black" cx="574.42" cy="-18" rx="27.81" ry="18"/>
<text text-anchor="middle" x="574.42" y="-12.95" font-family="Times,serif" font-size="14.00">ends</text>
</g>
<!-- 87&#45;&gt;ends -->
<g id="edge2" class="edge">
<title>87&#45;&gt;ends</title>
<path fill="none" stroke="black" d="M574.42,-71.7C574.42,-64.41 574.42,-55.73 574.42,-47.54"/>
<polygon fill="black" stroke="black" points="577.92,-47.62 574.42,-37.62 570.92,-47.62 577.92,-47.62"/>
</g>
<!-- starts -->
<g id="node4" class="node">
<title>starts</title>
<ellipse fill="none" stroke="black" cx="574.42" cy="-234" rx="30.37" ry="18"/>
<text text-anchor="middle" x="574.42" y="-228.95" font-family="Times,serif" font-size="14.00">starts</text>
</g>
<!-- starts&#45;&gt;22 -->
<g id="edge3" class="edge">
<title>starts&#45;&gt;22</title>
<path fill="none" stroke="black" d="M574.42,-215.7C574.42,-208.41 574.42,-199.73 574.42,-191.54"/>
<polygon fill="black" stroke="black" points="577.92,-191.62 574.42,-181.62 570.92,-191.62 577.92,-191.62"/>
</g>
</g>
</svg>
