<svg viewBox="0 0 84.0 300.0" xmlns="http://www.w3.org/2000/svg">
      <g transform="translate(10, 10)">
        <g transform="translate(0, 0.0)"><g transform="translate(0.0)"><rect x="0.0" y="0" width="6.0" height="10.0" fill="peru"></rect><text x="3.0" y="5.0" text-anchor="middle" dominant-baseline="central" font-size="4.199999999999999">59</text><rect x="6.0" y="0" width="6.0" height="10.0" fill="orange"></rect><text x="9.0" y="5.0" text-anchor="middle" dominant-baseline="central" font-size="4.199999999999999">60</text><rect x="12.0" y="0" width="6.0" height="10.0" fill="yellow"></rect><text x="15.0" y="5.0" text-anchor="middle" dominant-baseline="central" font-size="4.199999999999999">61</text><rect x="18.0" y="0" width="6.0" height="10.0" fill="limegreen"></rect><text x="21.0" y="5.0" text-anchor="middle" dominant-baseline="central" font-size="4.199999999999999">66</text><rect x="24.0" y="0" width="6.0" height="10.0" fill="dodgerblue"></rect><text x="27.0" y="5.0" text-anchor="middle" dominant-baseline="central" font-size="4.199999999999999">69</text><rect x="30.0" y="0" width="6.0" height="10.0" fill="violet"></rect><text x="33.0" y="5.0" text-anchor="middle" dominant-baseline="central" font-size="4.199999999999999">72</text></g></g><g transform="translate(0, 30.0)"><g transform="translate(0.0)"><rect x="0.0" y="0" width="6.0" height="10.0" fill="limegreen"></rect><text x="3.0" y="5.0" text-anchor="middle" dominant-baseline="central" font-size="4.199999999999999">66</text><rect x="6.0" y="0" width="6.0" height="10.0" fill="dodgerblue"></rect><text x="9.0" y="5.0" text-anchor="middle" dominant-baseline="central" font-size="4.199999999999999">69</text><rect x="12.0" y="0" width="6.0" height="10.0" fill="violet"></rect><text x="15.0" y="5.0" text-anchor="middle" dominant-baseline="central" font-size="4.199999999999999">72</text></g><g transform="translate(72.0)"><rect x="0.0" y="0" width="6.0" height="10.0" fill="peru"></rect><text x="3.0" y="5.0" text-anchor="middle" dominant-baseline="central" font-size="4.199999999999999">59</text><rect x="6.0" y="0" width="6.0" height="10.0" fill="orange"></rect><text x="9.0" y="5.0" text-anchor="middle" dominant-baseline="central" font-size="4.199999999999999">60</text><rect x="12.0" y="0" width="6.0" height="10.0" fill="yellow"></rect><text x="15.0" y="5.0" text-anchor="middle" dominant-baseline="central" font-size="4.199999999999999">61</text></g></g><g transform="translate(0, 60.0)"><g transform="translate(0.0)"><rect x="0.0" y="0" width="6.0" height="10.0" fill="peru"></rect><text x="3.0" y="5.0" text-anchor="middle" dominant-baseline="central" font-size="4.199999999999999">59</text><rect x="6.0" y="0" width="6.0" height="10.0" fill="orange"></rect><text x="9.0" y="5.0" text-anchor="middle" dominant-baseline="central" font-size="4.199999999999999">60</text><rect x="12.0" y="0" width="6.0" height="10.0" fill="yellow"></rect><text x="15.0" y="5.0" text-anchor="middle" dominant-baseline="central" font-size="4.199999999999999">61</text><rect x="18.0" y="0" width="6.0" height="10.0" fill="limegreen"></rect><text x="21.0" y="5.0" text-anchor="middle" dominant-baseline="central" font-size="4.199999999999999">66</text><rect x="24.0" y="0" width="6.0" height="10.0" fill="dodgerblue"></rect><text x="27.0" y="5.0" text-anchor="middle" dominant-baseline="central" font-size="4.199999999999999">69</text><rect x="30.0" y="0" width="6.0" height="10.0" fill="violet"></rect><text x="33.0" y="5.0" text-anchor="middle" dominant-baseline="central" font-size="4.199999999999999">72</text></g></g><g transform="translate(0, 90.0)"><g transform="translate(0.0)"><rect x="0.0" y="0" width="6.0" height="10.0" fill="peru"></rect><text x="3.0" y="5.0" text-anchor="middle" dominant-baseline="central" font-size="4.199999999999999">59</text><rect x="6.0" y="0" width="6.0" height="10.0" fill="orange"></rect><text x="9.0" y="5.0" text-anchor="middle" dominant-baseline="central" font-size="4.199999999999999">60</text><rect x="12.0" y="0" width="6.0" height="10.0" fill="dodgerblue"></rect><text x="15.0" y="5.0" text-anchor="middle" dominant-baseline="central" font-size="4.199999999999999">69</text></g><g transform="translate(24.0)"><rect x="0.0" y="0" width="6.0" height="10.0" fill="yellow"></rect><text x="3.0" y="5.0" text-anchor="middle" dominant-baseline="central" font-size="4.199999999999999">61</text><rect x="6.0" y="0" width="6.0" height="10.0" fill="limegreen"></rect><text x="9.0" y="5.0" text-anchor="middle" dominant-baseline="central" font-size="4.199999999999999">66</text><rect x="12.0" y="0" width="6.0" height="10.0" fill="violet"></rect><text x="15.0" y="5.0" text-anchor="middle" dominant-baseline="central" font-size="4.199999999999999">72</text></g></g><g transform="translate(0, 120.0)"><g transform="translate(0.0)"><rect x="0.0" y="0" width="6.0" height="10.0" fill="peru"></rect><text x="3.0" y="5.0" text-anchor="middle" dominant-baseline="central" font-size="4.199999999999999">59</text><rect x="6.0" y="0" width="6.0" height="10.0" fill="orange"></rect><text x="9.0" y="5.0" text-anchor="middle" dominant-baseline="central" font-size="4.199999999999999">60</text><rect x="12.0" y="0" width="6.0" height="10.0" fill="yellow"></rect><text x="15.0" y="5.0" text-anchor="middle" dominant-baseline="central" font-size="4.199999999999999">61</text><rect x="18.0" y="0" width="6.0" height="10.0" fill="limegreen"></rect><text x="21.0" y="5.0" text-anchor="middle" dominant-baseline="central" font-size="4.199999999999999">66</text><rect x="24.0" y="0" width="6.0" height="10.0" fill="dodgerblue"></rect><text x="27.0" y="5.0" text-anchor="middle" dominant-baseline="central" font-size="4.199999999999999">69</text><rect x="30.0" y="0" width="6.0" height="10.0" fill="violet"></rect><text x="33.0" y="5.0" text-anchor="middle" dominant-baseline="central" font-size="4.199999999999999">72</text></g></g><g transform="translate(0, 150.0)"><g transform="translate(0.0)"><rect x="0.0" y="0" width="6.0" height="10.0" fill="peru"></rect><text x="3.0" y="5.0" text-anchor="middle" dominant-baseline="central" font-size="4.199999999999999">59</text><rect x="6.0" y="0" width="6.0" height="10.0" fill="yellow"></rect><text x="9.0" y="5.0" text-anchor="middle" dominant-baseline="central" font-size="4.199999999999999">61</text></g><g transform="translate(18.0)"><rect x="0.0" y="0" width="6.0" height="10.0" fill="orange"></rect><text x="3.0" y="5.0" text-anchor="middle" dominant-baseline="central" font-size="4.199999999999999">60</text><rect x="6.0" y="0" width="6.0" height="10.0" fill="limegreen"></rect><text x="9.0" y="5.0" text-anchor="middle" dominant-baseline="central" font-size="4.199999999999999">66</text></g><g transform="translate(36.0)"><rect x="0.0" y="0" width="6.0" height="10.0" fill="dodgerblue"></rect><text x="3.0" y="5.0" text-anchor="middle" dominant-baseline="central" font-size="4.199999999999999">69</text><rect x="6.0" y="0" width="6.0" height="10.0" fill="violet"></rect><text x="9.0" y="5.0" text-anchor="middle" dominant-baseline="central" font-size="4.199999999999999">72</text></g></g><g transform="translate(0, 180.0)"><g transform="translate(0.0)"><rect x="0.0" y="0" width="6.0" height="10.0" fill="peru"></rect><text x="3.0" y="5.0" text-anchor="middle" dominant-baseline="central" font-size="4.199999999999999">59</text><rect x="6.0" y="0" width="6.0" height="10.0" fill="orange"></rect><text x="9.0" y="5.0" text-anchor="middle" dominant-baseline="central" font-size="4.199999999999999">60</text><rect x="12.0" y="0" width="6.0" height="10.0" fill="yellow"></rect><text x="15.0" y="5.0" text-anchor="middle" dominant-baseline="central" font-size="4.199999999999999">61</text><rect x="18.0" y="0" width="6.0" height="10.0" fill="limegreen"></rect><text x="21.0" y="5.0" text-anchor="middle" dominant-baseline="central" font-size="4.199999999999999">66</text><rect x="24.0" y="0" width="6.0" height="10.0" fill="dodgerblue"></rect><text x="27.0" y="5.0" text-anchor="middle" dominant-baseline="central" font-size="4.199999999999999">69</text><rect x="30.0" y="0" width="6.0" height="10.0" fill="violet"></rect><text x="33.0" y="5.0" text-anchor="middle" dominant-baseline="central" font-size="4.199999999999999">72</text></g></g><g transform="translate(0, 210.0)"><g transform="translate(0.0)"><rect x="0.0" y="0" width="6.0" height="10.0" fill="peru"></rect><text x="3.0" y="5.0" text-anchor="middle" dominant-baseline="central" font-size="4.199999999999999">59</text></g><g transform="translate(12.0)"><rect x="0.0" y="0" width="6.0" height="10.0" fill="orange"></rect><text x="3.0" y="5.0" text-anchor="middle" dominant-baseline="central" font-size="4.199999999999999">60</text><rect x="6.0" y="0" width="6.0" height="10.0" fill="yellow"></rect><text x="9.0" y="5.0" text-anchor="middle" dominant-baseline="central" font-size="4.199999999999999">61</text></g><g transform="translate(30.0)"><rect x="0.0" y="0" width="6.0" height="10.0" fill="limegreen"></rect><text x="3.0" y="5.0" text-anchor="middle" dominant-baseline="central" font-size="4.199999999999999">66</text><rect x="6.0" y="0" width="6.0" height="10.0" fill="dodgerblue"></rect><text x="9.0" y="5.0" text-anchor="middle" dominant-baseline="central" font-size="4.199999999999999">69</text></g><g transform="translate(48.0)"><rect x="0.0" y="0" width="6.0" height="10.0" fill="violet"></rect><text x="3.0" y="5.0" text-anchor="middle" dominant-baseline="central" font-size="4.199999999999999">72</text></g></g><g transform="translate(0, 240.0)"><g transform="translate(0.0)"><rect x="0.0" y="0" width="6.0" height="10.0" fill="peru"></rect><text x="3.0" y="5.0" text-anchor="middle" dominant-baseline="central" font-size="4.199999999999999">59</text><rect x="6.0" y="0" width="6.0" height="10.0" fill="orange"></rect><text x="9.0" y="5.0" text-anchor="middle" dominant-baseline="central" font-size="4.199999999999999">60</text><rect x="12.0" y="0" width="6.0" height="10.0" fill="yellow"></rect><text x="15.0" y="5.0" text-anchor="middle" dominant-baseline="central" font-size="4.199999999999999">61</text><rect x="18.0" y="0" width="6.0" height="10.0" fill="limegreen"></rect><text x="21.0" y="5.0" text-anchor="middle" dominant-baseline="central" font-size="4.199999999999999">66</text><rect x="24.0" y="0" width="6.0" height="10.0" fill="dodgerblue"></rect><text x="27.0" y="5.0" text-anchor="middle" dominant-baseline="central" font-size="4.199999999999999">69</text><rect x="30.0" y="0" width="6.0" height="10.0" fill="violet"></rect><text x="33.0" y="5.0" text-anchor="middle" dominant-baseline="central" font-size="4.199999999999999">72</text></g></g><g transform="translate(0, 270.0)"><g transform="translate(0.0)"><rect x="0.0" y="0" width="6.0" height="10.0" fill="peru"></rect><text x="3.0" y="5.0" text-anchor="middle" dominant-baseline="central" font-size="4.199999999999999">59</text><rect x="6.0" y="0" width="6.0" height="10.0" fill="orange"></rect><text x="9.0" y="5.0" text-anchor="middle" dominant-baseline="central" font-size="4.199999999999999">60</text></g><g transform="translate(18.0)"><rect x="0.0" y="0" width="6.0" height="10.0" fill="yellow"></rect><text x="3.0" y="5.0" text-anchor="middle" dominant-baseline="central" font-size="4.199999999999999">61</text><rect x="6.0" y="0" width="6.0" height="10.0" fill="limegreen"></rect><text x="9.0" y="5.0" text-anchor="middle" dominant-baseline="central" font-size="4.199999999999999">66</text></g><g transform="translate(72.0)"><rect x="0.0" y="0" width="6.0" height="10.0" fill="dodgerblue"></rect><text x="3.0" y="5.0" text-anchor="middle" dominant-baseline="central" font-size="4.199999999999999">69</text><rect x="6.0" y="0" width="6.0" height="10.0" fill="violet"></rect><text x="9.0" y="5.0" text-anchor="middle" dominant-baseline="central" font-size="4.199999999999999">72</text></g></g><path d="M 33.0,9.8 C 33.0,24.8 15.0001,14.999999999999996 15.0001,29.999999999999996" stroke="violet" stroke-width="6.0" fill="none"/><path d="M 3.0,9.8 C 3.0,24.8 75.0001,14.999999999999996 75.0001,29.999999999999996" stroke="peru" stroke-width="6.0" fill="none"/><path d="M 21.0,9.8 C 21.0,24.8 3.0001,14.999999999999996 3.0001,29.999999999999996" stroke="limegreen" stroke-width="6.0" fill="none"/><path d="M 15.0,9.8 C 15.0,24.8 87.0001,14.999999999999996 87.0001,29.999999999999996" stroke="yellow" stroke-width="6.0" fill="none"/><path d="M 27.0,9.8 C 27.0,24.8 9.0001,14.999999999999996 9.0001,29.999999999999996" stroke="dodgerblue" stroke-width="6.0" fill="none"/><path d="M 9.0,9.8 C 9.0,24.8 81.0001,14.999999999999996 81.0001,29.999999999999996" stroke="orange" stroke-width="6.0" fill="none"/><path d="M 75.0,39.8 C 75.0,54.8 3.0001,45.0 3.0001,60.0" stroke="peru" stroke-width="6.0" fill="none"/><path d="M 3.0,39.8 C 3.0,54.8 21.0001,45.0 21.0001,60.0" stroke="limegreen" stroke-width="6.0" fill="none"/><path d="M 15.0,39.8 C 15.0,54.8 33.0001,45.0 33.0001,60.0" stroke="violet" stroke-width="6.0" fill="none"/><path d="M 9.0,39.8 C 9.0,54.8 27.0001,45.0 27.0001,60.0" stroke="dodgerblue" stroke-width="6.0" fill="none"/><path d="M 81.0,39.8 C 81.0,54.8 9.0001,45.0 9.0001,60.0" stroke="orange" stroke-width="6.0" fill="none"/><path d="M 87.0,39.8 C 87.0,54.8 15.0001,45.0 15.0001,60.0" stroke="yellow" stroke-width="6.0" fill="none"/><path d="M 33.0,69.8 C 33.0,84.8 39.0001,75.0 39.0001,90.0" stroke="violet" stroke-width="6.0" fill="none"/><path d="M 27.0,69.8 C 27.0,84.8 15.0001,75.0 15.0001,90.0" stroke="dodgerblue" stroke-width="6.0" fill="none"/><path d="M 15.0,69.8 C 15.0,84.8 27.0001,75.0 27.0001,90.0" stroke="yellow" stroke-width="6.0" fill="none"/><path d="M 9.0,69.8 C 9.0,84.8 9.0001,75.0 9.0001,90.0" stroke="orange" stroke-width="6.0" fill="none"/><path d="M 3.0,69.8 C 3.0,84.8 3.0001,75.0 3.0001,90.0" stroke="peru" stroke-width="6.0" fill="none"/><path d="M 21.0,69.8 C 21.0,84.8 33.0001,75.0 33.0001,90.0" stroke="limegreen" stroke-width="6.0" fill="none"/><path d="M 15.0,99.8 C 15.0,114.8 27.0001,105.00000000000001 27.0001,120.00000000000001" stroke="dodgerblue" stroke-width="6.0" fill="none"/><path d="M 27.0,99.8 C 27.0,114.8 15.0001,105.00000000000001 15.0001,120.00000000000001" stroke="yellow" stroke-width="6.0" fill="none"/><path d="M 33.0,99.8 C 33.0,114.8 21.0001,105.00000000000001 21.0001,120.00000000000001" stroke="limegreen" stroke-width="6.0" fill="none"/><path d="M 39.0,99.8 C 39.0,114.8 33.0001,105.00000000000001 33.0001,120.00000000000001" stroke="violet" stroke-width="6.0" fill="none"/><path d="M 3.0,99.8 C 3.0,114.8 3.0001,105.00000000000001 3.0001,120.00000000000001" stroke="peru" stroke-width="6.0" fill="none"/><path d="M 9.0,99.8 C 9.0,114.8 9.0001,105.00000000000001 9.0001,120.00000000000001" stroke="orange" stroke-width="6.0" fill="none"/><path d="M 21.0,129.8 C 21.0,144.8 27.0001,135.0 27.0001,150.0" stroke="limegreen" stroke-width="6.0" fill="none"/><path d="M 33.0,129.8 C 33.0,144.8 45.0001,135.0 45.0001,150.0" stroke="violet" stroke-width="6.0" fill="none"/><path d="M 15.0,129.8 C 15.0,144.8 9.0001,135.0 9.0001,150.0" stroke="yellow" stroke-width="6.0" fill="none"/><path d="M 9.0,129.8 C 9.0,144.8 21.0001,135.0 21.0001,150.0" stroke="orange" stroke-width="6.0" fill="none"/><path d="M 3.0,129.8 C 3.0,144.8 3.0001,135.0 3.0001,150.0" stroke="peru" stroke-width="6.0" fill="none"/><path d="M 27.0,129.8 C 27.0,144.8 39.0001,135.0 39.0001,150.0" stroke="dodgerblue" stroke-width="6.0" fill="none"/><path d="M 27.0,159.8 C 27.0,174.8 21.0001,165.0 21.0001,180.0" stroke="limegreen" stroke-width="6.0" fill="none"/><path d="M 39.0,159.8 C 39.0,174.8 27.0001,165.0 27.0001,180.0" stroke="dodgerblue" stroke-width="6.0" fill="none"/><path d="M 9.0,159.8 C 9.0,174.8 15.0001,165.0 15.0001,180.0" stroke="yellow" stroke-width="6.0" fill="none"/><path d="M 21.0,159.8 C 21.0,174.8 9.0001,165.0 9.0001,180.0" stroke="orange" stroke-width="6.0" fill="none"/><path d="M 3.0,159.8 C 3.0,174.8 3.0001,165.0 3.0001,180.0" stroke="peru" stroke-width="6.0" fill="none"/><path d="M 45.0,159.8 C 45.0,174.8 33.0001,165.0 33.0001,180.0" stroke="violet" stroke-width="6.0" fill="none"/><path d="M 27.0,189.8 C 27.0,204.8 39.0001,195.0 39.0001,210.0" stroke="dodgerblue" stroke-width="6.0" fill="none"/><path d="M 15.0,189.8 C 15.0,204.8 21.0001,195.0 21.0001,210.0" stroke="yellow" stroke-width="6.0" fill="none"/><path d="M 21.0,189.8 C 21.0,204.8 33.0001,195.0 33.0001,210.0" stroke="limegreen" stroke-width="6.0" fill="none"/><path d="M 9.0,189.8 C 9.0,204.8 15.0001,195.0 15.0001,210.0" stroke="orange" stroke-width="6.0" fill="none"/><path d="M 33.0,189.8 C 33.0,204.8 51.0001,195.0 51.0001,210.0" stroke="violet" stroke-width="6.0" fill="none"/><path d="M 3.0,189.8 C 3.0,204.8 3.0001,195.0 3.0001,210.0" stroke="peru" stroke-width="6.0" fill="none"/><path d="M 33.0,219.8 C 33.0,234.8 21.0001,225.0 21.0001,240.0" stroke="limegreen" stroke-width="6.0" fill="none"/><path d="M 51.0,219.8 C 51.0,234.8 33.0001,225.0 33.0001,240.0" stroke="violet" stroke-width="6.0" fill="none"/><path d="M 21.0,219.8 C 21.0,234.8 15.0001,225.0 15.0001,240.0" stroke="yellow" stroke-width="6.0" fill="none"/><path d="M 15.0,219.8 C 15.0,234.8 9.0001,225.0 9.0001,240.0" stroke="orange" stroke-width="6.0" fill="none"/><path d="M 39.0,219.8 C 39.0,234.8 27.0001,225.0 27.0001,240.0" stroke="dodgerblue" stroke-width="6.0" fill="none"/><path d="M 3.0,219.8 C 3.0,234.8 3.0001,225.0 3.0001,240.0" stroke="peru" stroke-width="6.0" fill="none"/><path d="M 27.0,249.8 C 27.0,264.8 75.0001,255.0 75.0001,270.0" stroke="dodgerblue" stroke-width="6.0" fill="none"/><path d="M 21.0,249.8 C 21.0,264.8 27.0001,255.0 27.0001,270.0" stroke="limegreen" stroke-width="6.0" fill="none"/><path d="M 3.0,249.8 C 3.0,264.8 3.0001,255.0 3.0001,270.0" stroke="peru" stroke-width="6.0" fill="none"/><path d="M 15.0,249.8 C 15.0,264.8 21.0001,255.0 21.0001,270.0" stroke="yellow" stroke-width="6.0" fill="none"/><path d="M 9.0,249.8 C 9.0,264.8 9.0001,255.0 9.0001,270.0" stroke="orange" stroke-width="6.0" fill="none"/><path d="M 33.0,249.8 C 33.0,264.8 81.0001,255.0 81.0001,270.0" stroke="violet" stroke-width="6.0" fill="none"/>
      </g>
    </svg>