<svg viewBox="0 -10 126.0 320.0" xmlns="http://www.w3.org/2000/svg">
      <g transform="translate(10, 10)">
        <defs>
  <linearGradient id="dodgerblueGradient" x1="0%" x2="0%" y1="0%" y2="100%">
    <stop offset="0%" stop-color="dodgerblue" stop-opacity="1"/>
    <stop offset="6%" stop-color="dodgerblue" stop-opacity="1"/>
    <stop offset="20%" stop-color="dodgerblue" stop-opacity=".6"/>
    <stop offset="35%" stop-color="dodgerblue" stop-opacity=".4"/>
    <stop offset="50%" stop-color="dodgerblue" stop-opacity=".3"/>
    <stop offset="65%" stop-color="dodgerblue" stop-opacity=".4"/>
    <stop offset="80%" stop-color="dodgerblue" stop-opacity=".6"/>
    <stop offset="94%" stop-color="dodgerblue" stop-opacity="1"/>
    <stop offset="100%" stop-color="dodgerblue" stop-opacity="1"/>
  </linearGradient><linearGradient id="yellowGradient" x1="0%" x2="0%" y1="0%" y2="100%">
    <stop offset="0%" stop-color="yellow" stop-opacity="1"/>
    <stop offset="6%" stop-color="yellow" stop-opacity="1"/>
    <stop offset="20%" stop-color="yellow" stop-opacity=".6"/>
    <stop offset="35%" stop-color="yellow" stop-opacity=".4"/>
    <stop offset="50%" stop-color="yellow" stop-opacity=".3"/>
    <stop offset="65%" stop-color="yellow" stop-opacity=".4"/>
    <stop offset="80%" stop-color="yellow" stop-opacity=".6"/>
    <stop offset="94%" stop-color="yellow" stop-opacity="1"/>
    <stop offset="100%" stop-color="yellow" stop-opacity="1"/>
  </linearGradient><linearGradient id="violetGradient" x1="0%" x2="0%" y1="0%" y2="100%">
    <stop offset="0%" stop-color="violet" stop-opacity="1"/>
    <stop offset="6%" stop-color="violet" stop-opacity="1"/>
    <stop offset="20%" stop-color="violet" stop-opacity=".6"/>
    <stop offset="35%" stop-color="violet" stop-opacity=".4"/>
    <stop offset="50%" stop-color="violet" stop-opacity=".3"/>
    <stop offset="65%" stop-color="violet" stop-opacity=".4"/>
    <stop offset="80%" stop-color="violet" stop-opacity=".6"/>
    <stop offset="94%" stop-color="violet" stop-opacity="1"/>
    <stop offset="100%" stop-color="violet" stop-opacity="1"/>
  </linearGradient><linearGradient id="orangeGradient" x1="0%" x2="0%" y1="0%" y2="100%">
    <stop offset="0%" stop-color="orange" stop-opacity="1"/>
    <stop offset="6%" stop-color="orange" stop-opacity="1"/>
    <stop offset="20%" stop-color="orange" stop-opacity=".6"/>
    <stop offset="35%" stop-color="orange" stop-opacity=".4"/>
    <stop offset="50%" stop-color="orange" stop-opacity=".3"/>
    <stop offset="65%" stop-color="orange" stop-opacity=".4"/>
    <stop offset="80%" stop-color="orange" stop-opacity=".6"/>
    <stop offset="94%" stop-color="orange" stop-opacity="1"/>
    <stop offset="100%" stop-color="orange" stop-opacity="1"/>
  </linearGradient><linearGradient id="limegreenGradient" x1="0%" x2="0%" y1="0%" y2="100%">
    <stop offset="0%" stop-color="limegreen" stop-opacity="1"/>
    <stop offset="6%" stop-color="limegreen" stop-opacity="1"/>
    <stop offset="20%" stop-color="limegreen" stop-opacity=".6"/>
    <stop offset="35%" stop-color="limegreen" stop-opacity=".4"/>
    <stop offset="50%" stop-color="limegreen" stop-opacity=".3"/>
    <stop offset="65%" stop-color="limegreen" stop-opacity=".4"/>
    <stop offset="80%" stop-color="limegreen" stop-opacity=".6"/>
    <stop offset="94%" stop-color="limegreen" stop-opacity="1"/>
    <stop offset="100%" stop-color="limegreen" stop-opacity="1"/>
  </linearGradient><linearGradient id="peruGradient" x1="0%" x2="0%" y1="0%" y2="100%">
    <stop offset="0%" stop-color="peru" stop-opacity="1"/>
    <stop offset="6%" stop-color="peru" stop-opacity="1"/>
    <stop offset="20%" stop-color="peru" stop-opacity=".6"/>
    <stop offset="35%" stop-color="peru" stop-opacity=".4"/>
    <stop offset="50%" stop-color="peru" stop-opacity=".3"/>
    <stop offset="65%" stop-color="peru" stop-opacity=".4"/>
    <stop offset="80%" stop-color="peru" stop-opacity=".6"/>
    <stop offset="94%" stop-color="peru" stop-opacity="1"/>
    <stop offset="100%" stop-color="peru" stop-opacity="1"/>
  </linearGradient><clipPath id="clipPath1">
    <rect x="0" y="0" width="6.0" height="10.0" rx="2.75"/>
  </clipPath><clipPath id="clipPath2">
    <rect x="0" y="0" width="12.0" height="10.0" rx="2.75"/>
  </clipPath><clipPath id="clipPath3">
    <rect x="0" y="0" width="18.0" height="10.0" rx="2.75"/>
  </clipPath><clipPath id="clipPath4">
    <rect x="0" y="0" width="24.0" height="10.0" rx="2.75"/>
  </clipPath><clipPath id="clipPath5">
    <rect x="0" y="0" width="30.0" height="10.0" rx="2.75"/>
  </clipPath><clipPath id="clipPath6">
    <rect x="0" y="0" width="36.0" height="10.0" rx="2.75"/>
  </clipPath>
</defs><g transform="translate(0, 0.0)"><g transform="translate(0.0)"><rect x="0.0" y="0" width="6.0" height="10.0" fill="peru"></rect><text x="3.0" y="5.0" text-anchor="middle" dominant-baseline="central" font-size="4.199999999999999">59</text><rect x="6.0" y="0" width="6.0" height="10.0" fill="orange"></rect><text x="9.0" y="5.0" text-anchor="middle" dominant-baseline="central" font-size="4.199999999999999">60</text><rect x="12.0" y="0" width="6.0" height="10.0" fill="yellow"></rect><text x="15.0" y="5.0" text-anchor="middle" dominant-baseline="central" font-size="4.199999999999999">61</text><rect x="18.0" y="0" width="6.0" height="10.0" fill="limegreen"></rect><text x="21.0" y="5.0" text-anchor="middle" dominant-baseline="central" font-size="4.199999999999999">66</text><rect x="24.0" y="0" width="6.0" height="10.0" fill="dodgerblue"></rect><text x="27.0" y="5.0" text-anchor="middle" dominant-baseline="central" font-size="4.199999999999999">69</text><rect x="30.0" y="0" width="6.0" height="10.0" fill="violet"></rect><text x="33.0" y="5.0" text-anchor="middle" dominant-baseline="central" font-size="4.199999999999999">72</text></g></g><g transform="translate(0, 30.0)"><g transform="translate(0.0)"><rect x="0.0" y="0" width="6.0" height="10.0" fill="limegreen"></rect><text x="3.0" y="5.0" text-anchor="middle" dominant-baseline="central" font-size="4.199999999999999">66</text><rect x="6.0" y="0" width="6.0" height="10.0" fill="dodgerblue"></rect><text x="9.0" y="5.0" text-anchor="middle" dominant-baseline="central" font-size="4.199999999999999">69</text><rect x="12.0" y="0" width="6.0" height="10.0" fill="violet"></rect><text x="15.0" y="5.0" text-anchor="middle" dominant-baseline="central" font-size="4.199999999999999">72</text></g><g transform="translate(72.0)"><rect x="0.0" y="0" width="6.0" height="10.0" fill="peru"></rect><text x="3.0" y="5.0" text-anchor="middle" dominant-baseline="central" font-size="4.199999999999999">59</text><rect x="6.0" y="0" width="6.0" height="10.0" fill="orange"></rect><text x="9.0" y="5.0" text-anchor="middle" dominant-baseline="central" font-size="4.199999999999999">60</text><rect x="12.0" y="0" width="6.0" height="10.0" fill="yellow"></rect><text x="15.0" y="5.0" text-anchor="middle" dominant-baseline="central" font-size="4.199999999999999">61</text></g></g><g transform="translate(0, 60.0)"><g transform="translate(0.0)"><rect x="0.0" y="0" width="6.0" height="10.0" fill="peru"></rect><text x="3.0" y="5.0" text-anchor="middle" dominant-baseline="central" font-size="4.199999999999999">59</text><rect x="6.0" y="0" width="6.0" height="10.0" fill="orange"></rect><text x="9.0" y="5.0" text-anchor="middle" dominant-baseline="central" font-size="4.199999999999999">60</text><rect x="12.0" y="0" width="6.0" height="10.0" fill="yellow"></rect><text x="15.0" y="5.0" text-anchor="middle" dominant-baseline="central" font-size="4.199999999999999">61</text><rect x="18.0" y="0" width="6.0" height="10.0" fill="limegreen"></rect><text x="21.0" y="5.0" text-anchor="middle" dominant-baseline="central" font-size="4.199999999999999">66</text><rect x="24.0" y="0" width="6.0" height="10.0" fill="dodgerblue"></rect><text x="27.0" y="5.0" text-anchor="middle" dominant-baseline="central" font-size="4.199999999999999">69</text><rect x="30.0" y="0" width="6.0" height="10.0" fill="violet"></rect><text x="33.0" y="5.0" text-anchor="middle" dominant-baseline="central" font-size="4.199999999999999">72</text></g></g><g transform="translate(0, 90.0)"><g transform="translate(0.0)"><rect x="0.0" y="0" width="6.0" height="10.0" fill="peru"></rect><text x="3.0" y="5.0" text-anchor="middle" dominant-baseline="central" font-size="4.199999999999999">59</text><rect x="6.0" y="0" width="6.0" height="10.0" fill="orange"></rect><text x="9.0" y="5.0" text-anchor="middle" dominant-baseline="central" font-size="4.199999999999999">60</text><rect x="12.0" y="0" width="6.0" height="10.0" fill="dodgerblue"></rect><text x="15.0" y="5.0" text-anchor="middle" dominant-baseline="central" font-size="4.199999999999999">69</text></g><g transform="translate(24.0)"><rect x="0.0" y="0" width="6.0" height="10.0" fill="yellow"></rect><text x="3.0" y="5.0" text-anchor="middle" dominant-baseline="central" font-size="4.199999999999999">61</text><rect x="6.0" y="0" width="6.0" height="10.0" fill="limegreen"></rect><text x="9.0" y="5.0" text-anchor="middle" dominant-baseline="central" font-size="4.199999999999999">66</text><rect x="12.0" y="0" width="6.0" height="10.0" fill="violet"></rect><text x="15.0" y="5.0" text-anchor="middle" dominant-baseline="central" font-size="4.199999999999999">72</text></g></g><g transform="translate(0, 120.0)"><g transform="translate(0.0)"><rect x="0.0" y="0" width="6.0" height="10.0" fill="peru"></rect><text x="3.0" y="5.0" text-anchor="middle" dominant-baseline="central" font-size="4.199999999999999">59</text><rect x="6.0" y="0" width="6.0" height="10.0" fill="orange"></rect><text x="9.0" y="5.0" text-anchor="middle" dominant-baseline="central" font-size="4.199999999999999">60</text><rect x="12.0" y="0" width="6.0" height="10.0" fill="yellow"></rect><text x="15.0" y="5.0" text-anchor="middle" dominant-baseline="central" font-size="4.199999999999999">61</text><rect x="18.0" y="0" width="6.0" height="10.0" fill="limegreen"></rect><text x="21.0" y="5.0" text-anchor="middle" dominant-baseline="central" font-size="4.199999999999999">66</text><rect x="24.0" y="0" width="6.0" height="10.0" fill="dodgerblue"></rect><text x="27.0" y="5.0" text-anchor="middle" dominant-baseline="central" font-size="4.199999999999999">69</text><rect x="30.0" y="0" width="6.0" height="10.0" fill="violet"></rect><text x="33.0" y="5.0" text-anchor="middle" dominant-baseline="central" font-size="4.199999999999999">72</text></g></g><g transform="translate(0, 150.0)"><g transform="translate(0.0)"><rect x="0.0" y="0" width="6.0" height="10.0" fill="peru"></rect><text x="3.0" y="5.0" text-anchor="middle" dominant-baseline="central" font-size="4.199999999999999">59</text><rect x="6.0" y="0" width="6.0" height="10.0" fill="yellow"></rect><text x="9.0" y="5.0" text-anchor="middle" dominant-baseline="central" font-size="4.199999999999999">61</text></g><g transform="translate(18.0)"><rect x="0.0" y="0" width="6.0" height="10.0" fill="orange"></rect><text x="3.0" y="5.0" text-anchor="middle" dominant-baseline="central" font-size="4.199999999999999">60</text><rect x="6.0" y="0" width="6.0" height="10.0" fill="limegreen"></rect><text x="9.0" y="5.0" text-anchor="middle" dominant-baseline="central" font-size="4.199999999999999">66</text></g><g transform="translate(36.0)"><rect x="0.0" y="0" width="6.0" height="10.0" fill="dodgerblue"></rect><text x="3.0" y="5.0" text-anchor="middle" dominant-baseline="central" font-size="4.199999999999999">69</text><rect x="6.0" y="0" width="6.0" height="10.0" fill="violet"></rect><text x="9.0" y="5.0" text-anchor="middle" dominant-baseline="central" font-size="4.199999999999999">72</text></g></g><g transform="translate(0, 180.0)"><g transform="translate(0.0)"><rect x="0.0" y="0" width="6.0" height="10.0" fill="peru"></rect><text x="3.0" y="5.0" text-anchor="middle" dominant-baseline="central" font-size="4.199999999999999">59</text><rect x="6.0" y="0" width="6.0" height="10.0" fill="orange"></rect><text x="9.0" y="5.0" text-anchor="middle" dominant-baseline="central" font-size="4.199999999999999">60</text><rect x="12.0" y="0" width="6.0" height="10.0" fill="yellow"></rect><text x="15.0" y="5.0" text-anchor="middle" dominant-baseline="central" font-size="4.199999999999999">61</text><rect x="18.0" y="0" width="6.0" height="10.0" fill="limegreen"></rect><text x="21.0" y="5.0" text-anchor="middle" dominant-baseline="central" font-size="4.199999999999999">66</text><rect x="24.0" y="0" width="6.0" height="10.0" fill="dodgerblue"></rect><text x="27.0" y="5.0" text-anchor="middle" dominant-baseline="central" font-size="4.199999999999999">69</text><rect x="30.0" y="0" width="6.0" height="10.0" fill="violet"></rect><text x="33.0" y="5.0" text-anchor="middle" dominant-baseline="central" font-size="4.199999999999999">72</text></g></g><g transform="translate(0, 210.0)"><g transform="translate(0.0)"><rect x="0.0" y="0" width="6.0" height="10.0" fill="peru"></rect><text x="3.0" y="5.0" text-anchor="middle" dominant-baseline="central" font-size="4.199999999999999">59</text></g><g transform="translate(12.0)"><rect x="0.0" y="0" width="6.0" height="10.0" fill="orange"></rect><text x="3.0" y="5.0" text-anchor="middle" dominant-baseline="central" font-size="4.199999999999999">60</text><rect x="6.0" y="0" width="6.0" height="10.0" fill="yellow"></rect><text x="9.0" y="5.0" text-anchor="middle" dominant-baseline="central" font-size="4.199999999999999">61</text></g><g transform="translate(30.0)"><rect x="0.0" y="0" width="6.0" height="10.0" fill="limegreen"></rect><text x="3.0" y="5.0" text-anchor="middle" dominant-baseline="central" font-size="4.199999999999999">66</text><rect x="6.0" y="0" width="6.0" height="10.0" fill="dodgerblue"></rect><text x="9.0" y="5.0" text-anchor="middle" dominant-baseline="central" font-size="4.199999999999999">69</text></g><g transform="translate(48.0)"><rect x="0.0" y="0" width="6.0" height="10.0" fill="violet"></rect><text x="3.0" y="5.0" text-anchor="middle" dominant-baseline="central" font-size="4.199999999999999">72</text></g></g><g transform="translate(0, 240.0)"><g transform="translate(0.0)"><rect x="0.0" y="0" width="6.0" height="10.0" fill="peru"></rect><text x="3.0" y="5.0" text-anchor="middle" dominant-baseline="central" font-size="4.199999999999999">59</text><rect x="6.0" y="0" width="6.0" height="10.0" fill="orange"></rect><text x="9.0" y="5.0" text-anchor="middle" dominant-baseline="central" font-size="4.199999999999999">60</text><rect x="12.0" y="0" width="6.0" height="10.0" fill="yellow"></rect><text x="15.0" y="5.0" text-anchor="middle" dominant-baseline="central" font-size="4.199999999999999">61</text><rect x="18.0" y="0" width="6.0" height="10.0" fill="limegreen"></rect><text x="21.0" y="5.0" text-anchor="middle" dominant-baseline="central" font-size="4.199999999999999">66</text><rect x="24.0" y="0" width="6.0" height="10.0" fill="dodgerblue"></rect><text x="27.0" y="5.0" text-anchor="middle" dominant-baseline="central" font-size="4.199999999999999">69</text><rect x="30.0" y="0" width="6.0" height="10.0" fill="violet"></rect><text x="33.0" y="5.0" text-anchor="middle" dominant-baseline="central" font-size="4.199999999999999">72</text></g></g><g transform="translate(0, 270.0)"><g transform="translate(0.0)"><rect x="0.0" y="0" width="6.0" height="10.0" fill="peru"></rect><text x="3.0" y="5.0" text-anchor="middle" dominant-baseline="central" font-size="4.199999999999999">59</text><rect x="6.0" y="0" width="6.0" height="10.0" fill="orange"></rect><text x="9.0" y="5.0" text-anchor="middle" dominant-baseline="central" font-size="4.199999999999999">60</text></g><g transform="translate(18.0)"><rect x="0.0" y="0" width="6.0" height="10.0" fill="yellow"></rect><text x="3.0" y="5.0" text-anchor="middle" dominant-baseline="central" font-size="4.199999999999999">61</text><rect x="6.0" y="0" width="6.0" height="10.0" fill="limegreen"></rect><text x="9.0" y="5.0" text-anchor="middle" dominant-baseline="central" font-size="4.199999999999999">66</text></g><g transform="translate(72.0)"><rect x="0.0" y="0" width="6.0" height="10.0" fill="dodgerblue"></rect><text x="3.0" y="5.0" text-anchor="middle" dominant-baseline="central" font-size="4.199999999999999">69</text><rect x="6.0" y="0" width="6.0" height="10.0" fill="violet"></rect><text x="9.0" y="5.0" text-anchor="middle" dominant-baseline="central" font-size="4.199999999999999">72</text></g></g><path d="M 3.0,9.8 C 3.0,24.8 75.0001,14.999999999999996 75.0001,29.999999999999996" stroke="url(#peruGradient)" stroke-width="6.0" fill="none"/><path d="M 33.0,9.8 C 33.0,24.8 15.0001,14.999999999999996 15.0001,29.999999999999996" stroke="url(#violetGradient)" stroke-width="6.0" fill="none"/><path d="M 9.0,9.8 C 9.0,24.8 81.0001,14.999999999999996 81.0001,29.999999999999996" stroke="url(#orangeGradient)" stroke-width="6.0" fill="none"/><path d="M 27.0,9.8 C 27.0,24.8 9.0001,14.999999999999996 9.0001,29.999999999999996" stroke="url(#dodgerblueGradient)" stroke-width="6.0" fill="none"/><path d="M 21.0,9.8 C 21.0,24.8 3.0001,14.999999999999996 3.0001,29.999999999999996" stroke="url(#limegreenGradient)" stroke-width="6.0" fill="none"/><path d="M 15.0,9.8 C 15.0,24.8 87.0001,14.999999999999996 87.0001,29.999999999999996" stroke="url(#yellowGradient)" stroke-width="6.0" fill="none"/><path d="M 75.0,39.8 C 75.0,54.8 3.0001,45.0 3.0001,60.0" stroke="url(#peruGradient)" stroke-width="6.0" fill="none"/><path d="M 9.0,39.8 C 9.0,54.8 27.0001,45.0 27.0001,60.0" stroke="url(#dodgerblueGradient)" stroke-width="6.0" fill="none"/><path d="M 3.0,39.8 C 3.0,54.8 21.0001,45.0 21.0001,60.0" stroke="url(#limegreenGradient)" stroke-width="6.0" fill="none"/><path d="M 87.0,39.8 C 87.0,54.8 15.0001,45.0 15.0001,60.0" stroke="url(#yellowGradient)" stroke-width="6.0" fill="none"/><path d="M 15.0,39.8 C 15.0,54.8 33.0001,45.0 33.0001,60.0" stroke="url(#violetGradient)" stroke-width="6.0" fill="none"/><path d="M 81.0,39.8 C 81.0,54.8 9.0001,45.0 9.0001,60.0" stroke="url(#orangeGradient)" stroke-width="6.0" fill="none"/><path d="M 27.0,69.8 C 27.0,84.8 15.0001,75.0 15.0001,90.0" stroke="url(#dodgerblueGradient)" stroke-width="6.0" fill="none"/><path d="M 15.0,69.8 C 15.0,84.8 27.0001,75.0 27.0001,90.0" stroke="url(#yellowGradient)" stroke-width="6.0" fill="none"/><path d="M 3.0,69.8 C 3.0,84.8 3.0001,75.0 3.0001,90.0" stroke="url(#peruGradient)" stroke-width="6.0" fill="none"/><path d="M 33.0,69.8 C 33.0,84.8 39.0001,75.0 39.0001,90.0" stroke="url(#violetGradient)" stroke-width="6.0" fill="none"/><path d="M 9.0,69.8 C 9.0,84.8 9.0001,75.0 9.0001,90.0" stroke="url(#orangeGradient)" stroke-width="6.0" fill="none"/><path d="M 21.0,69.8 C 21.0,84.8 33.0001,75.0 33.0001,90.0" stroke="url(#limegreenGradient)" stroke-width="6.0" fill="none"/><path d="M 39.0,99.8 C 39.0,114.8 33.0001,105.00000000000001 33.0001,120.00000000000001" stroke="url(#violetGradient)" stroke-width="6.0" fill="none"/><path d="M 3.0,99.8 C 3.0,114.8 3.0001,105.00000000000001 3.0001,120.00000000000001" stroke="url(#peruGradient)" stroke-width="6.0" fill="none"/><path d="M 9.0,99.8 C 9.0,114.8 9.0001,105.00000000000001 9.0001,120.00000000000001" stroke="url(#orangeGradient)" stroke-width="6.0" fill="none"/><path d="M 15.0,99.8 C 15.0,114.8 27.0001,105.00000000000001 27.0001,120.00000000000001" stroke="url(#dodgerblueGradient)" stroke-width="6.0" fill="none"/><path d="M 27.0,99.8 C 27.0,114.8 15.0001,105.00000000000001 15.0001,120.00000000000001" stroke="url(#yellowGradient)" stroke-width="6.0" fill="none"/><path d="M 33.0,99.8 C 33.0,114.8 21.0001,105.00000000000001 21.0001,120.00000000000001" stroke="url(#limegreenGradient)" stroke-width="6.0" fill="none"/><path d="M 27.0,129.8 C 27.0,144.8 39.0001,135.0 39.0001,150.0" stroke="url(#dodgerblueGradient)" stroke-width="6.0" fill="none"/><path d="M 15.0,129.8 C 15.0,144.8 9.0001,135.0 9.0001,150.0" stroke="url(#yellowGradient)" stroke-width="6.0" fill="none"/><path d="M 3.0,129.8 C 3.0,144.8 3.0001,135.0 3.0001,150.0" stroke="url(#peruGradient)" stroke-width="6.0" fill="none"/><path d="M 21.0,129.8 C 21.0,144.8 27.0001,135.0 27.0001,150.0" stroke="url(#limegreenGradient)" stroke-width="6.0" fill="none"/><path d="M 33.0,129.8 C 33.0,144.8 45.0001,135.0 45.0001,150.0" stroke="url(#violetGradient)" stroke-width="6.0" fill="none"/><path d="M 9.0,129.8 C 9.0,144.8 21.0001,135.0 21.0001,150.0" stroke="url(#orangeGradient)" stroke-width="6.0" fill="none"/><path d="M 39.0,159.8 C 39.0,174.8 27.0001,165.0 27.0001,180.0" stroke="url(#dodgerblueGradient)" stroke-width="6.0" fill="none"/><path d="M 3.0,159.8 C 3.0,174.8 3.0001,165.0 3.0001,180.0" stroke="url(#peruGradient)" stroke-width="6.0" fill="none"/><path d="M 27.0,159.8 C 27.0,174.8 21.0001,165.0 21.0001,180.0" stroke="url(#limegreenGradient)" stroke-width="6.0" fill="none"/><path d="M 21.0,159.8 C 21.0,174.8 9.0001,165.0 9.0001,180.0" stroke="url(#orangeGradient)" stroke-width="6.0" fill="none"/><path d="M 9.0,159.8 C 9.0,174.8 15.0001,165.0 15.0001,180.0" stroke="url(#yellowGradient)" stroke-width="6.0" fill="none"/><path d="M 45.0,159.8 C 45.0,174.8 33.0001,165.0 33.0001,180.0" stroke="url(#violetGradient)" stroke-width="6.0" fill="none"/><path d="M 27.0,189.8 C 27.0,204.8 39.0001,195.0 39.0001,210.0" stroke="url(#dodgerblueGradient)" stroke-width="6.0" fill="none"/><path d="M 21.0,189.8 C 21.0,204.8 33.0001,195.0 33.0001,210.0" stroke="url(#limegreenGradient)" stroke-width="6.0" fill="none"/><path d="M 15.0,189.8 C 15.0,204.8 21.0001,195.0 21.0001,210.0" stroke="url(#yellowGradient)" stroke-width="6.0" fill="none"/><path d="M 9.0,189.8 C 9.0,204.8 15.0001,195.0 15.0001,210.0" stroke="url(#orangeGradient)" stroke-width="6.0" fill="none"/><path d="M 3.0,189.8 C 3.0,204.8 3.0001,195.0 3.0001,210.0" stroke="url(#peruGradient)" stroke-width="6.0" fill="none"/><path d="M 33.0,189.8 C 33.0,204.8 51.0001,195.0 51.0001,210.0" stroke="url(#violetGradient)" stroke-width="6.0" fill="none"/><path d="M 3.0,219.8 C 3.0,234.8 3.0001,225.0 3.0001,240.0" stroke="url(#peruGradient)" stroke-width="6.0" fill="none"/><path d="M 39.0,219.8 C 39.0,234.8 27.0001,225.0 27.0001,240.0" stroke="url(#dodgerblueGradient)" stroke-width="6.0" fill="none"/><path d="M 15.0,219.8 C 15.0,234.8 9.0001,225.0 9.0001,240.0" stroke="url(#orangeGradient)" stroke-width="6.0" fill="none"/><path d="M 21.0,219.8 C 21.0,234.8 15.0001,225.0 15.0001,240.0" stroke="url(#yellowGradient)" stroke-width="6.0" fill="none"/><path d="M 33.0,219.8 C 33.0,234.8 21.0001,225.0 21.0001,240.0" stroke="url(#limegreenGradient)" stroke-width="6.0" fill="none"/><path d="M 51.0,219.8 C 51.0,234.8 33.0001,225.0 33.0001,240.0" stroke="url(#violetGradient)" stroke-width="6.0" fill="none"/><path d="M 33.0,249.8 C 33.0,264.8 81.0001,255.0 81.0001,270.0" stroke="url(#violetGradient)" stroke-width="6.0" fill="none"/><path d="M 27.0,249.8 C 27.0,264.8 75.0001,255.0 75.0001,270.0" stroke="url(#dodgerblueGradient)" stroke-width="6.0" fill="none"/><path d="M 9.0,249.8 C 9.0,264.8 9.0001,255.0 9.0001,270.0" stroke="url(#orangeGradient)" stroke-width="6.0" fill="none"/><path d="M 3.0,249.8 C 3.0,264.8 3.0001,255.0 3.0001,270.0" stroke="url(#peruGradient)" stroke-width="6.0" fill="none"/><path d="M 21.0,249.8 C 21.0,264.8 27.0001,255.0 27.0001,270.0" stroke="url(#limegreenGradient)" stroke-width="6.0" fill="none"/><path d="M 15.0,249.8 C 15.0,264.8 21.0001,255.0 21.0001,270.0" stroke="url(#yellowGradient)" stroke-width="6.0" fill="none"/><rect x="0.0" y="0.0" width="36.0" height="10.0" fill="none" stroke="black" stroke-width=".5"/><rect x="0.0" y="30.0" width="18.0" height="10.0" fill="none" stroke="black" stroke-width=".5"/><rect x="72.0" y="30.0" width="18.0" height="10.0" stroke="black" stroke-width=".5" fill="none"/><rect x="0.0" y="60.0" width="36.0" height="10.0" fill="none" stroke="black" stroke-width=".5"/><rect x="0.0" y="90.0" width="18.0" height="10.0" fill="none" stroke="black" stroke-width=".5"/><rect x="24.0" y="90.0" width="18.0" height="10.0" fill="none" stroke="black" stroke-width=".5"/><rect x="0.0" y="120.0" width="36.0" height="10.0" fill="none" stroke="black" stroke-width=".5"/><rect x="0.0" y="150.0" width="12.0" height="10.0" fill="none" stroke="black" stroke-width=".5"/><rect x="18.0" y="150.0" width="12.0" height="10.0" fill="none" stroke="black" stroke-width=".5"/><rect x="36.0" y="150.0" width="12.0" height="10.0" fill="none" stroke="black" stroke-width=".5"/><rect x="0.0" y="180.0" width="36.0" height="10.0" fill="none" stroke="black" stroke-width=".5"/><rect x="0.0" y="210.0" width="6.0" height="10.0" fill="none" stroke="black" stroke-width=".5"/><rect x="12.0" y="210.0" width="12.0" height="10.0" fill="none" stroke="black" stroke-width=".5"/><rect x="30.0" y="210.0" width="12.0" height="10.0" fill="none" stroke="black" stroke-width=".5"/><rect x="48.0" y="210.0" width="6.0" height="10.0" fill="none" stroke="black" stroke-width=".5"/><rect x="0.0" y="240.0" width="36.0" height="10.0" fill="none" stroke="black" stroke-width=".5"/><rect x="0.0" y="270.0" width="12.0" height="10.0" fill="none" stroke="black" stroke-width=".5"/><rect x="18.0" y="270.0" width="12.0" height="10.0" fill="none" stroke="black" stroke-width=".5"/><rect x="72.0" y="270.0" width="12.0" height="10.0" stroke="black" stroke-width=".5" fill="none"/><line x1="69.0" y1="-10.0" x2="69.0" y2="290.0" stroke="gray" stroke-width=".5"/>
      </g>
    </svg>