<svg viewBox="0 0 84.0 300.0" xmlns="http://www.w3.org/2000/svg">
      <g transform="translate(10, 10)">
        <g transform="translate(0, 0.0)"><g transform="translate(0.0)"><rect x="0.0" y="0" width="6.0" height="10.0" fill="peru"></rect><text x="3.0" y="5.0" text-anchor="middle" dominant-baseline="central" font-size="4.199999999999999">59</text><rect x="6.0" y="0" width="6.0" height="10.0" fill="orange"></rect><text x="9.0" y="5.0" text-anchor="middle" dominant-baseline="central" font-size="4.199999999999999">60</text><rect x="12.0" y="0" width="6.0" height="10.0" fill="yellow"></rect><text x="15.0" y="5.0" text-anchor="middle" dominant-baseline="central" font-size="4.199999999999999">61</text><rect x="18.0" y="0" width="6.0" height="10.0" fill="limegreen"></rect><text x="21.0" y="5.0" text-anchor="middle" dominant-baseline="central" font-size="4.199999999999999">66</text><rect x="24.0" y="0" width="6.0" height="10.0" fill="dodgerblue"></rect><text x="27.0" y="5.0" text-anchor="middle" dominant-baseline="central" font-size="4.199999999999999">69</text><rect x="30.0" y="0" width="6.0" height="10.0" fill="violet"></rect><text x="33.0" y="5.0" text-anchor="middle" dominant-baseline="central" font-size="4.199999999999999">72</text></g></g><g transform="translate(0, 30.0)"><g transform="translate(0.0)"><rect x="0.0" y="0" width="6.0" height="10.0" fill="limegreen"></rect><text x="3.0" y="5.0" text-anchor="middle" dominant-baseline="central" font-size="4.199999999999999">66</text><rect x="6.0" y="0" width="6.0" height="10.0" fill="dodgerblue"></rect><text x="9.0" y="5.0" text-anchor="middle" dominant-baseline="central" font-size="4.199999999999999">69</text><rect x="12.0" y="0" width="6.0" height="10.0" fill="violet"></rect><text x="15.0" y="5.0" text-anchor="middle" dominant-baseline="central" font-size="4.199999999999999">72</text></g><g transform="translate(72.0)"><rect x="0.0" y="0" width="6.0" height="10.0" fill="peru"></rect><text x="3.0" y="5.0" text-anchor="middle" dominant-baseline="central" font-size="4.199999999999999">59</text><rect x="6.0" y="0" width="6.0" height="10.0" fill="orange"></rect><text x="9.0" y="5.0" text-anchor="middle" dominant-baseline="central" font-size="4.199999999999999">60</text><rect x="12.0" y="0" width="6.0" height="10.0" fill="yellow"></rect><text x="15.0" y="5.0" text-anchor="middle" dominant-baseline="central" font-size="4.199999999999999">61</text></g></g><g transform="translate(0, 60.0)"><g transform="translate(0.0)"><rect x="0.0" y="0" width="6.0" height="10.0" fill="peru"></rect><text x="3.0" y="5.0" text-anchor="middle" dominant-baseline="central" font-size="4.199999999999999">59</text><rect x="6.0" y="0" width="6.0" height="10.0" fill="orange"></rect><text x="9.0" y="5.0" text-anchor="middle" dominant-baseline="central" font-size="4.199999999999999">60</text><rect x="12.0" y="0" width="6.0" height="10.0" fill="yellow"></rect><text x="15.0" y="5.0" text-anchor="middle" dominant-baseline="central" font-size="4.199999999999999">61</text><rect x="18.0" y="0" width="6.0" height="10.0" fill="limegreen"></rect><text x="21.0" y="5.0" text-anchor="middle" dominant-baseline="central" font-size="4.199999999999999">66</text><rect x="24.0" y="0" width="6.0" height="10.0" fill="dodgerblue"></rect><text x="27.0" y="5.0" text-anchor="middle" dominant-baseline="central" font-size="4.199999999999999">69</text><rect x="30.0" y="0" width="6.0" height="10.0" fill="violet"></rect><text x="33.0" y="5.0" text-anchor="middle" dominant-baseline="central" font-size="4.199999999999999">72</text></g></g><g transform="translate(0, 90.0)"><g transform="translate(0.0)"><rect x="0.0" y="0" width="6.0" height="10.0" fill="peru"></rect><text x="3.0" y="5.0" text-anchor="middle" dominant-baseline="central" font-size="4.199999999999999">59</text><rect x="6.0" y="0" width="6.0" height="10.0" fill="orange"></rect><text x="9.0" y="5.0" text-anchor="middle" dominant-baseline="central" font-size="4.199999999999999">60</text><rect x="12.0" y="0" width="6.0" height="10.0" fill="dodgerblue"></rect><text x="15.0" y="5.0" text-anchor="middle" dominant-baseline="central" font-size="4.199999999999999">69</text></g><g transform="translate(24.0)"><rect x="0.0" y="0" width="6.0" height="10.0" fill="yellow"></rect><text x="3.0" y="5.0" text-anchor="middle" dominant-baseline="central" font-size="4.199999999999999">61</text><rect x="6.0" y="0" width="6.0" height="10.0" fill="limegreen"></rect><text x="9.0" y="5.0" text-anchor="middle" dominant-baseline="central" font-size="4.199999999999999">66</text><rect x="12.0" y="0" width="6.0" height="10.0" fill="violet"></rect><text x="15.0" y="5.0" text-anchor="middle" dominant-baseline="central" font-size="4.199999999999999">72</text></g></g><g transform="translate(0, 120.0)"><g transform="translate(0.0)"><rect x="0.0" y="0" width="6.0" height="10.0" fill="peru"></rect><text x="3.0" y="5.0" text-anchor="middle" dominant-baseline="central" font-size="4.199999999999999">59</text><rect x="6.0" y="0" width="6.0" height="10.0" fill="orange"></rect><text x="9.0" y="5.0" text-anchor="middle" dominant-baseline="central" font-size="4.199999999999999">60</text><rect x="12.0" y="0" width="6.0" height="10.0" fill="yellow"></rect><text x="15.0" y="5.0" text-anchor="middle" dominant-baseline="central" font-size="4.199999999999999">61</text><rect x="18.0" y="0" width="6.0" height="10.0" fill="limegreen"></rect><text x="21.0" y="5.0" text-anchor="middle" dominant-baseline="central" font-size="4.199999999999999">66</text><rect x="24.0" y="0" width="6.0" height="10.0" fill="dodgerblue"></rect><text x="27.0" y="5.0" text-anchor="middle" dominant-baseline="central" font-size="4.199999999999999">69</text><rect x="30.0" y="0" width="6.0" height="10.0" fill="violet"></rect><text x="33.0" y="5.0" text-anchor="middle" dominant-baseline="central" font-size="4.199999999999999">72</text></g></g><g transform="translate(0, 150.0)"><g transform="translate(0.0)"><rect x="0.0" y="0" width="6.0" height="10.0" fill="peru"></rect><text x="3.0" y="5.0" text-anchor="middle" dominant-baseline="central" font-size="4.199999999999999">59</text><rect x="6.0" y="0" width="6.0" height="10.0" fill="yellow"></rect><text x="9.0" y="5.0" text-anchor="middle" dominant-baseline="central" font-size="4.199999999999999">61</text></g><g transform="translate(18.0)"><rect x="0.0" y="0" width="6.0" height="10.0" fill="orange"></rect><text x="3.0" y="5.0" text-anchor="middle" dominant-baseline="central" font-size="4.199999999999999">60</text><rect x="6.0" y="0" width="6.0" height="10.0" fill="limegreen"></rect><text x="9.0" y="5.0" text-anchor="middle" dominant-baseline="central" font-size="4.199999999999999">66</text></g><g transform="translate(36.0)"><rect x="0.0" y="0" width="6.0" height="10.0" fill="dodgerblue"></rect><text x="3.0" y="5.0" text-anchor="middle" dominant-baseline="central" font-size="4.199999999999999">69</text><rect x="6.0" y="0" width="6.0" height="10.0" fill="violet"></rect><text x="9.0" y="5.0" text-anchor="middle" dominant-baseline="central" font-size="4.199999999999999">72</text></g></g><g transform="translate(0, 180.0)"><g transform="translate(0.0)"><rect x="0.0" y="0" width="6.0" height="10.0" fill="peru"></rect><text x="3.0" y="5.0" text-anchor="middle" dominant-baseline="central" font-size="4.199999999999999">59</text><rect x="6.0" y="0" width="6.0" height="10.0" fill="orange"></rect><text x="9.0" y="5.0" text-anchor="middle" dominant-baseline="central" font-size="4.199999999999999">60</text><rect x="12.0" y="0" width="6.0" height="10.0" fill="yellow"></rect><text x="15.0" y="5.0" text-anchor="middle" dominant-baseline="central" font-size="4.199999999999999">61</text><rect x="18.0" y="0" width="6.0" height="10.0" fill="limegreen"></rect><text x="21.0" y="5.0" text-anchor="middle" dominant-baseline="central" font-size="4.199999999999999">66</text><rect x="24.0" y="0" width="6.0" height="10.0" fill="dodgerblue"></rect><text x="27.0" y="5.0" text-anchor="middle" dominant-baseline="central" font-size="4.199999999999999">69</text><rect x="30.0" y="0" width="6.0" height="10.0" fill="violet"></rect><text x="33.0" y="5.0" text-anchor="middle" dominant-baseline="central" font-size="4.199999999999999">72</text></g></g><g transform="translate(0, 210.0)"><g transform="translate(0.0)"><rect x="0.0" y="0" width="6.0" height="10.0" fill="peru"></rect><text x="3.0" y="5.0" text-anchor="middle" dominant-baseline="central" font-size="4.199999999999999">59</text></g><g transform="translate(12.0)"><rect x="0.0" y="0" width="6.0" height="10.0" fill="orange"></rect><text x="3.0" y="5.0" text-anchor="middle" dominant-baseline="central" font-size="4.199999999999999">60</text><rect x="6.0" y="0" width="6.0" height="10.0" fill="yellow"></rect><text x="9.0" y="5.0" text-anchor="middle" dominant-baseline="central" font-size="4.199999999999999">61</text></g><g transform="translate(30.0)"><rect x="0.0" y="0" width="6.0" height="10.0" fill="limegreen"></rect><text x="3.0" y="5.0" text-anchor="middle" dominant-baseline="central" font-size="4.199999999999999">66</text><rect x="6.0" y="0" width="6.0" height="10.0" fill="dodgerblue"></rect><text x="9.0" y="5.0" text-anchor="middle" dominant-baseline="central" font-size="4.199999999999999">69</text></g><g transform="translate(48.0)"><rect x="0.0" y="0" width="6.0" height="10.0" fill="violet"></rect><text x="3.0" y="5.0" text-anchor="middle" dominant-baseline="central" font-size="4.199999999999999">72</text></g></g><g transform="translate(0, 240.0)"><g transform="translate(0.0)"><rect x="0.0" y="0" width="6.0" height="10.0" fill="peru"></rect><text x="3.0" y="5.0" text-anchor="middle" dominant-baseline="central" font-size="4.199999999999999">59</text><rect x="6.0" y="0" width="6.0" height="10.0" fill="orange"></rect><text x="9.0" y="5.0" text-anchor="middle" dominant-baseline="central" font-size="4.199999999999999">60</text><rect x="12.0" y="0" width="6.0" height="10.0" fill="yellow"></rect><text x="15.0" y="5.0" text-anchor="middle" dominant-baseline="central" font-size="4.199999999999999">61</text><rect x="18.0" y="0" width="6.0" height="10.0" fill="limegreen"></rect><text x="21.0" y="5.0" text-anchor="middle" dominant-baseline="central" font-size="4.199999999999999">66</text><rect x="24.0" y="0" width="6.0" height="10.0" fill="dodgerblue"></rect><text x="27.0" y="5.0" text-anchor="middle" dominant-baseline="central" font-size="4.199999999999999">69</text><rect x="30.0" y="0" width="6.0" height="10.0" fill="violet"></rect><text x="33.0" y="5.0" text-anchor="middle" dominant-baseline="central" font-size="4.199999999999999">72</text></g></g><g transform="translate(0, 270.0)"><g transform="translate(0.0)"><rect x="0.0" y="0" width="6.0" height="10.0" fill="peru"></rect><text x="3.0" y="5.0" text-anchor="middle" dominant-baseline="central" font-size="4.199999999999999">59</text><rect x="6.0" y="0" width="6.0" height="10.0" fill="orange"></rect><text x="9.0" y="5.0" text-anchor="middle" dominant-baseline="central" font-size="4.199999999999999">60</text></g><g transform="translate(18.0)"><rect x="0.0" y="0" width="6.0" height="10.0" fill="yellow"></rect><text x="3.0" y="5.0" text-anchor="middle" dominant-baseline="central" font-size="4.199999999999999">61</text><rect x="6.0" y="0" width="6.0" height="10.0" fill="limegreen"></rect><text x="9.0" y="5.0" text-anchor="middle" dominant-baseline="central" font-size="4.199999999999999">66</text></g><g transform="translate(72.0)"><rect x="0.0" y="0" width="6.0" height="10.0" fill="dodgerblue"></rect><text x="3.0" y="5.0" text-anchor="middle" dominant-baseline="central" font-size="4.199999999999999">69</text><rect x="6.0" y="0" width="6.0" height="10.0" fill="violet"></rect><text x="9.0" y="5.0" text-anchor="middle" dominant-baseline="central" font-size="4.199999999999999">72</text></g></g>
      </g>
    </svg>