<?xml version="1.0" encoding="UTF-8"?>
<svg xmlns="http://www.w3.org/2000/svg" viewBox="0 0 500 300" width="100%">
    <defs>
        <radialGradient id="radialFlowGradient" color="blue" cx="50%" cy="50%" r="200%">
            <stop offset="0%" stop-color="blue" stop-opacity=".4"/>
            <stop offset="50%" stop-color="blue" stop-opacity="1"/>
            <stop offset="10%" stop-color="blue" stop-opacity=".4"/>
        </radialGradient>
    </defs>
    <!-- ================================================================ -->
    <!-- T: mirror the control from the preceding step                    -->
    <!-- 10-unit straight transition                                      -->
    <!-- ================================================================ -->
    <g transform="translate(10, 10)">
        <path d="M 0,0 
            L 5,0
            Q 30,0 30,30
            T 55,60
            L 60,60
            " stroke="url(#radialFlowGradient)" fill="none" stroke-width="5"/>
    </g>
    <g transform="translate(110, 10)">
        <path d="M 0,0 
            Q 22.5,0 30,30
            T 60,60
            " stroke="url(#radialFlowGradient)" fill="none" stroke-width="5"/>
    </g>
    <g transform="translate(210, 10)">
        <path d="M 0,0 
            Q 25,0 30,30
            T 60,60
            " stroke="url(#radialFlowGradient)" fill="none" stroke-width="5"/>
    </g>
    <g transform="translate(310, 10)">
        <path d="M 0,0 
            Q 27.5,0 30,30
            T 60,60
            " stroke="url(#radialFlowGradient)" fill="none" stroke-width="5"/>
    </g>
    <g transform="translate(410, 10)">
        <path d="M 0,0 
            Q 30,0 30,30
            T 60,60
            " stroke="url(#radialFlowGradient)" fill="none" stroke-width="5"/>
    </g>
    <!-- ================================================================ -->
    <!-- C: cubic, so just one curve with two control points              -->
    <!-- ================================================================ -->
    <g transform="translate(10, 110)">
        <path d="M 0,0
            L 5,0
            C 45,0 15,60 55,60
            L 60,60
            " stroke="url(#radialFlowGradient)" fill="none" stroke-width="5"/>
    </g>
    <g transform="translate(110, 110)">
        <path d="M 0,0
            C 45,0 15,60 60,60
            " stroke="url(#radialFlowGradient)" fill="none" stroke-width="5"/>
    </g>
    <g transform="translate(210, 110)">
        <path d="M 0,0
            C 50,0 10,60 60,60
            " stroke="url(#radialFlowGradient)" fill="none" stroke-width="5"/>
    </g>
    <g transform="translate(310, 110)">
        <path d="M 0,0
            C 55,0 5,60 60,60
            " stroke="url(#radialFlowGradient)" fill="none" stroke-width="5"/>
    </g>
    <g transform="translate(410, 110)">
        <path d="M 0,0
            C 60,0 0,60 60,60
            " stroke="url(#radialFlowGradient)" fill="none" stroke-width="5"/>
    </g>
</svg>
