<svg viewBox="0 0 300 180" xmlns="http://www.w3.org/2000/svg">
    <g transform="translate(10)">
      <line transform="translate(0, -10.0)" x1="39.0" y1="0" x2="39.0" y2="90.0" stroke="gray"/><defs><radialGradient id="dodgerblueGradient" cx="50%" cy="50%" r="150%">
  <stop offset="20%" stop-color="dodgerblue" stop-opacity=".4"/>
  <stop offset="50%" stop-color="dodgerblue" stop-opacity="1"/>
  <stop offset="80%" stop-color="dodgerblue" stop-opacity=".4"/>
</radialGradient><radialGradient id="yellowGradient" cx="50%" cy="50%" r="150%">
  <stop offset="20%" stop-color="yellow" stop-opacity=".4"/>
  <stop offset="50%" stop-color="yellow" stop-opacity="1"/>
  <stop offset="80%" stop-color="yellow" stop-opacity=".4"/>
</radialGradient><radialGradient id="violetGradient" cx="50%" cy="50%" r="150%">
  <stop offset="20%" stop-color="violet" stop-opacity=".4"/>
  <stop offset="50%" stop-color="violet" stop-opacity="1"/>
  <stop offset="80%" stop-color="violet" stop-opacity=".4"/>
</radialGradient><radialGradient id="orangeGradient" cx="50%" cy="50%" r="150%">
  <stop offset="20%" stop-color="orange" stop-opacity=".4"/>
  <stop offset="50%" stop-color="orange" stop-opacity="1"/>
  <stop offset="80%" stop-color="orange" stop-opacity=".4"/>
</radialGradient><radialGradient id="limegreenGradient" cx="50%" cy="50%" r="150%">
  <stop offset="20%" stop-color="limegreen" stop-opacity=".4"/>
  <stop offset="50%" stop-color="limegreen" stop-opacity="1"/>
  <stop offset="80%" stop-color="limegreen" stop-opacity=".4"/>
</radialGradient><radialGradient id="peruGradient" cx="50%" cy="50%" r="150%">
  <stop offset="20%" stop-color="peru" stop-opacity=".4"/>
  <stop offset="50%" stop-color="peru" stop-opacity="1"/>
  <stop offset="80%" stop-color="peru" stop-opacity=".4"/>
</radialGradient></defs><g transform="translate(0, 0.0)">
        <rect x="0.0" y="0" width="6.0" height="10.0" fill="peru"/><text x="3.0" y="5.0" text-anchor="middle" dominant-baseline="central" font-size="4.199999999999999">59</text><rect x="6.0" y="0" width="6.0" height="10.0" fill="orange"/><text x="9.0" y="5.0" text-anchor="middle" dominant-baseline="central" font-size="4.199999999999999">60</text><rect x="12.0" y="0" width="6.0" height="10.0" fill="yellow"/><text x="15.0" y="5.0" text-anchor="middle" dominant-baseline="central" font-size="4.199999999999999">61</text><rect x="18.0" y="0" width="6.0" height="10.0" fill="limegreen"/><text x="21.0" y="5.0" text-anchor="middle" dominant-baseline="central" font-size="4.199999999999999">66</text><rect x="24.0" y="0" width="6.0" height="10.0" fill="dodgerblue"/><text x="27.0" y="5.0" text-anchor="middle" dominant-baseline="central" font-size="4.199999999999999">69</text><rect x="30.0" y="0" width="6.0" height="10.0" fill="violet"/><text x="33.0" y="5.0" text-anchor="middle" dominant-baseline="central" font-size="4.199999999999999">72</text>
      </g><g transform="translate(0, 30.0)">
        <rect x="0.0" y="0" width="6.0" height="10.0" fill="limegreen"/><text x="3.0" y="5.0" text-anchor="middle" dominant-baseline="central" font-size="4.199999999999999">66</text><rect x="6.0" y="0" width="6.0" height="10.0" fill="dodgerblue"/><text x="9.0" y="5.0" text-anchor="middle" dominant-baseline="central" font-size="4.199999999999999">69</text><rect x="12.0" y="0" width="6.0" height="10.0" fill="violet"/><text x="15.0" y="5.0" text-anchor="middle" dominant-baseline="central" font-size="4.199999999999999">72</text><rect x="42.0" y="0" width="6.0" height="10.0" fill="peru"/><text x="45.0" y="5.0" text-anchor="middle" dominant-baseline="central" font-size="4.199999999999999">59</text><rect x="48.0" y="0" width="6.0" height="10.0" fill="orange"/><text x="51.0" y="5.0" text-anchor="middle" dominant-baseline="central" font-size="4.199999999999999">60</text><rect x="54.0" y="0" width="6.0" height="10.0" fill="yellow"/><text x="57.0" y="5.0" text-anchor="middle" dominant-baseline="central" font-size="4.199999999999999">61</text>
      </g><g transform="translate(0, 60.0)">
        <rect x="0.0" y="0" width="6.0" height="10.0" fill="peru"/><text x="3.0" y="5.0" text-anchor="middle" dominant-baseline="central" font-size="4.199999999999999">59</text><rect x="6.0" y="0" width="6.0" height="10.0" fill="orange"/><text x="9.0" y="5.0" text-anchor="middle" dominant-baseline="central" font-size="4.199999999999999">60</text><rect x="12.0" y="0" width="6.0" height="10.0" fill="yellow"/><text x="15.0" y="5.0" text-anchor="middle" dominant-baseline="central" font-size="4.199999999999999">61</text><rect x="18.0" y="0" width="6.0" height="10.0" fill="limegreen"/><text x="21.0" y="5.0" text-anchor="middle" dominant-baseline="central" font-size="4.199999999999999">66</text><rect x="24.0" y="0" width="6.0" height="10.0" fill="dodgerblue"/><text x="27.0" y="5.0" text-anchor="middle" dominant-baseline="central" font-size="4.199999999999999">69</text><rect x="30.0" y="0" width="6.0" height="10.0" fill="violet"/><text x="33.0" y="5.0" text-anchor="middle" dominant-baseline="central" font-size="4.199999999999999">72</text>
      </g>
      <g transform="translate(0, 0.0)"><path d="M 3.0,-20.0 C 34.5,-20.0 13.5,0 45.0,0" stroke="url(#peruGradient)" fill="none" stroke-width="6.0"/><path d="M 9.0,-20.0 C 40.5,-20.0 19.5,0 51.0,0" stroke="url(#orangeGradient)" fill="none" stroke-width="6.0"/><path d="M 15.0,-20.0 C 46.5,-20.0 25.5,0 57.0,0" stroke="url(#yellowGradient)" fill="none" stroke-width="6.0"/><path d="M 21.0,-20.0 C 7.5,-20.0 16.5,0 3.0,0" stroke="url(#limegreenGradient)" fill="none" stroke-width="6.0"/><path d="M 27.0,-20.0 C 13.5,-20.0 22.5,0 9.0,0" stroke="url(#dodgerblueGradient)" fill="none" stroke-width="6.0"/><path d="M 33.0,-20.0 C 19.5,-20.0 28.5,0 15.0,0" stroke="url(#violetGradient)" fill="none" stroke-width="6.0"/></g><g transform="translate(0, 30.0)"><path d="M 3.0,-20.0 C 16.5,-20.0 7.5,0 21.0,0" stroke="url(#limegreenGradient)" fill="none" stroke-width="6.0"/><path d="M 9.0,-20.0 C 22.5,-20.0 13.5,0 27.0,0" stroke="url(#dodgerblueGradient)" fill="none" stroke-width="6.0"/><path d="M 15.0,-20.0 C 28.5,-20.0 19.5,0 33.0,0" stroke="url(#violetGradient)" fill="none" stroke-width="6.0"/><path d="M 45.0,-20.0 C 13.5,-20.0 34.5,0 3.0,0" stroke="url(#peruGradient)" fill="none" stroke-width="6.0"/><path d="M 51.0,-20.0 C 19.5,-20.0 40.5,0 9.0,0" stroke="url(#orangeGradient)" fill="none" stroke-width="6.0"/><path d="M 57.0,-20.0 C 25.5,-20.0 46.5,0 15.0,0" stroke="url(#yellowGradient)" fill="none" stroke-width="6.0"/></g>
    </g>
  </svg>