<svg viewBox="0 0 300 180" xmlns="http://www.w3.org/2000/svg">
    <g transform="translate(10)">
      <line transform="translate(0, -10)" x1="39" y1="0" x2="39" y2="90" stroke="gray"/><g transform="translate(0, 0)">
          <rect x="0" y="0" width="6" height="10" fill="peru"/><text x="3" y="5" text-anchor="middle" dominant-baseline="central" font-size="4.199999999999999">59</text><rect x="6" y="0" width="6" height="10" fill="orange"/><text x="9" y="5" text-anchor="middle" dominant-baseline="central" font-size="4.199999999999999">60</text><rect x="12" y="0" width="6" height="10" fill="yellow"/><text x="15" y="5" text-anchor="middle" dominant-baseline="central" font-size="4.199999999999999">61</text><rect x="18" y="0" width="6" height="10" fill="limegreen"/><text x="21" y="5" text-anchor="middle" dominant-baseline="central" font-size="4.199999999999999">66</text><rect x="24" y="0" width="6" height="10" fill="dodgerblue"/><text x="27" y="5" text-anchor="middle" dominant-baseline="central" font-size="4.199999999999999">69</text><rect x="30" y="0" width="6" height="10" fill="violet"/><text x="33" y="5" text-anchor="middle" dominant-baseline="central" font-size="4.199999999999999">72</text>
        </g><g transform="translate(0, 30)">
          <rect x="0" y="0" width="6" height="10" fill="limegreen"/><text x="3" y="5" text-anchor="middle" dominant-baseline="central" font-size="4.199999999999999">66</text><rect x="6" y="0" width="6" height="10" fill="dodgerblue"/><text x="9" y="5" text-anchor="middle" dominant-baseline="central" font-size="4.199999999999999">69</text><rect x="12" y="0" width="6" height="10" fill="violet"/><text x="15" y="5" text-anchor="middle" dominant-baseline="central" font-size="4.199999999999999">72</text><rect x="42" y="0" width="6" height="10" fill="peru"/><text x="45" y="5" text-anchor="middle" dominant-baseline="central" font-size="4.199999999999999">59</text><rect x="48" y="0" width="6" height="10" fill="orange"/><text x="51" y="5" text-anchor="middle" dominant-baseline="central" font-size="4.199999999999999">60</text><rect x="54" y="0" width="6" height="10" fill="yellow"/><text x="57" y="5" text-anchor="middle" dominant-baseline="central" font-size="4.199999999999999">61</text>
        </g><g transform="translate(0, 60)">
          <rect x="0" y="0" width="6" height="10" fill="peru"/><text x="3" y="5" text-anchor="middle" dominant-baseline="central" font-size="4.199999999999999">59</text><rect x="6" y="0" width="6" height="10" fill="orange"/><text x="9" y="5" text-anchor="middle" dominant-baseline="central" font-size="4.199999999999999">60</text><rect x="12" y="0" width="6" height="10" fill="yellow"/><text x="15" y="5" text-anchor="middle" dominant-baseline="central" font-size="4.199999999999999">61</text><rect x="18" y="0" width="6" height="10" fill="limegreen"/><text x="21" y="5" text-anchor="middle" dominant-baseline="central" font-size="4.199999999999999">66</text><rect x="24" y="0" width="6" height="10" fill="dodgerblue"/><text x="27" y="5" text-anchor="middle" dominant-baseline="central" font-size="4.199999999999999">69</text><rect x="30" y="0" width="6" height="10" fill="violet"/><text x="33" y="5" text-anchor="middle" dominant-baseline="central" font-size="4.199999999999999">72</text>
        </g>
    </g>
  </svg>