<svg viewBox="0 0 200 350" xmlns="http://www.w3.org/2000/svg">
    <g transform="translate(10, 20)">
      <defs>
    <linearGradient id="dodgerblueGradient" x1="0%" x2="0%" y1="0%" y2="100%">
    <stop offset="0%" stop-color="dodgerblue" stop-opacity="1"/>
    <stop offset="6%" stop-color="dodgerblue" stop-opacity="1"/>
    <stop offset="20%" stop-color="dodgerblue" stop-opacity=".6"/>
    <stop offset="35%" stop-color="dodgerblue" stop-opacity=".4"/>
    <stop offset="50%" stop-color="dodgerblue" stop-opacity=".3"/>
    <stop offset="65%" stop-color="dodgerblue" stop-opacity=".4"/>
    <stop offset="80%" stop-color="dodgerblue" stop-opacity=".6"/>
    <stop offset="94%" stop-color="dodgerblue" stop-opacity="1"/>
    <stop offset="100%" stop-color="dodgerblue" stop-opacity="1"/>
  </linearGradient><linearGradient id="yellowGradient" x1="0%" x2="0%" y1="0%" y2="100%">
    <stop offset="0%" stop-color="yellow" stop-opacity="1"/>
    <stop offset="6%" stop-color="yellow" stop-opacity="1"/>
    <stop offset="20%" stop-color="yellow" stop-opacity=".6"/>
    <stop offset="35%" stop-color="yellow" stop-opacity=".4"/>
    <stop offset="50%" stop-color="yellow" stop-opacity=".3"/>
    <stop offset="65%" stop-color="yellow" stop-opacity=".4"/>
    <stop offset="80%" stop-color="yellow" stop-opacity=".6"/>
    <stop offset="94%" stop-color="yellow" stop-opacity="1"/>
    <stop offset="100%" stop-color="yellow" stop-opacity="1"/>
  </linearGradient><linearGradient id="violetGradient" x1="0%" x2="0%" y1="0%" y2="100%">
    <stop offset="0%" stop-color="violet" stop-opacity="1"/>
    <stop offset="6%" stop-color="violet" stop-opacity="1"/>
    <stop offset="20%" stop-color="violet" stop-opacity=".6"/>
    <stop offset="35%" stop-color="violet" stop-opacity=".4"/>
    <stop offset="50%" stop-color="violet" stop-opacity=".3"/>
    <stop offset="65%" stop-color="violet" stop-opacity=".4"/>
    <stop offset="80%" stop-color="violet" stop-opacity=".6"/>
    <stop offset="94%" stop-color="violet" stop-opacity="1"/>
    <stop offset="100%" stop-color="violet" stop-opacity="1"/>
  </linearGradient><linearGradient id="orangeGradient" x1="0%" x2="0%" y1="0%" y2="100%">
    <stop offset="0%" stop-color="orange" stop-opacity="1"/>
    <stop offset="6%" stop-color="orange" stop-opacity="1"/>
    <stop offset="20%" stop-color="orange" stop-opacity=".6"/>
    <stop offset="35%" stop-color="orange" stop-opacity=".4"/>
    <stop offset="50%" stop-color="orange" stop-opacity=".3"/>
    <stop offset="65%" stop-color="orange" stop-opacity=".4"/>
    <stop offset="80%" stop-color="orange" stop-opacity=".6"/>
    <stop offset="94%" stop-color="orange" stop-opacity="1"/>
    <stop offset="100%" stop-color="orange" stop-opacity="1"/>
  </linearGradient><linearGradient id="limegreenGradient" x1="0%" x2="0%" y1="0%" y2="100%">
    <stop offset="0%" stop-color="limegreen" stop-opacity="1"/>
    <stop offset="6%" stop-color="limegreen" stop-opacity="1"/>
    <stop offset="20%" stop-color="limegreen" stop-opacity=".6"/>
    <stop offset="35%" stop-color="limegreen" stop-opacity=".4"/>
    <stop offset="50%" stop-color="limegreen" stop-opacity=".3"/>
    <stop offset="65%" stop-color="limegreen" stop-opacity=".4"/>
    <stop offset="80%" stop-color="limegreen" stop-opacity=".6"/>
    <stop offset="94%" stop-color="limegreen" stop-opacity="1"/>
    <stop offset="100%" stop-color="limegreen" stop-opacity="1"/>
  </linearGradient><linearGradient id="peruGradient" x1="0%" x2="0%" y1="0%" y2="100%">
    <stop offset="0%" stop-color="peru" stop-opacity="1"/>
    <stop offset="6%" stop-color="peru" stop-opacity="1"/>
    <stop offset="20%" stop-color="peru" stop-opacity=".6"/>
    <stop offset="35%" stop-color="peru" stop-opacity=".4"/>
    <stop offset="50%" stop-color="peru" stop-opacity=".3"/>
    <stop offset="65%" stop-color="peru" stop-opacity=".4"/>
    <stop offset="80%" stop-color="peru" stop-opacity=".6"/>
    <stop offset="94%" stop-color="peru" stop-opacity="1"/>
    <stop offset="100%" stop-color="peru" stop-opacity="1"/>
  </linearGradient><clipPath id="clipPath1">
    <rect x="0" y="0" width="6.0" height="10.0" rx="2.75"/>
  </clipPath><clipPath id="clipPath2">
    <rect x="0" y="0" width="12.0" height="10.0" rx="2.75"/>
  </clipPath><clipPath id="clipPath3">
    <rect x="0" y="0" width="18.0" height="10.0" rx="2.75"/>
  </clipPath><clipPath id="clipPath4">
    <rect x="0" y="0" width="24.0" height="10.0" rx="2.75"/>
  </clipPath><clipPath id="clipPath5">
    <rect x="0" y="0" width="30.0" height="10.0" rx="2.75"/>
  </clipPath><clipPath id="clipPath6">
    <rect x="0" y="0" width="36.0" height="10.0" rx="2.75"/>
  </clipPath>
  </defs><g transform="translate(0, 0.0)">
        <g transform="translate(0.0)" clip-path="url(#clipPath6)">
        <rect x="0.0" y="0" width="6.0" height="10.0" fill="peru"/><text x="3.0" y="5.0" text-anchor="middle" dominant-baseline="central" font-size="4.199999999999999">
            59
          </text><rect x="6.0" y="0" width="6.0" height="10.0" fill="orange"/><text x="9.0" y="5.0" text-anchor="middle" dominant-baseline="central" font-size="4.199999999999999">
            60
          </text><rect x="12.0" y="0" width="6.0" height="10.0" fill="yellow"/><text x="15.0" y="5.0" text-anchor="middle" dominant-baseline="central" font-size="4.199999999999999">
            61
          </text><rect x="18.0" y="0" width="6.0" height="10.0" fill="limegreen"/><text x="21.0" y="5.0" text-anchor="middle" dominant-baseline="central" font-size="4.199999999999999">
            66
          </text><rect x="24.0" y="0" width="6.0" height="10.0" fill="dodgerblue"/><text x="27.0" y="5.0" text-anchor="middle" dominant-baseline="central" font-size="4.199999999999999">
            69
          </text><rect x="30.0" y="0" width="6.0" height="10.0" fill="violet"/><text x="33.0" y="5.0" text-anchor="middle" dominant-baseline="central" font-size="4.199999999999999">
            72
          </text>
      </g>
      </g><g transform="translate(0, 30.0)">
        <g transform="translate(0.0)" clip-path="url(#clipPath3)">
        <rect x="0.0" y="0" width="6.0" height="10.0" fill="limegreen"/><text x="3.0" y="5.0" text-anchor="middle" dominant-baseline="central" font-size="4.199999999999999">
            66
          </text><rect x="6.0" y="0" width="6.0" height="10.0" fill="dodgerblue"/><text x="9.0" y="5.0" text-anchor="middle" dominant-baseline="central" font-size="4.199999999999999">
            69
          </text><rect x="12.0" y="0" width="6.0" height="10.0" fill="violet"/><text x="15.0" y="5.0" text-anchor="middle" dominant-baseline="central" font-size="4.199999999999999">
            72
          </text>
      </g><g transform="translate(72.0)" clip-path="url(#clipPath3)">
        <rect x="0.0" y="0" width="6.0" height="10.0" fill="peru"/><text x="3.0" y="5.0" text-anchor="middle" dominant-baseline="central" font-size="4.199999999999999">
            59
          </text><rect x="6.0" y="0" width="6.0" height="10.0" fill="orange"/><text x="9.0" y="5.0" text-anchor="middle" dominant-baseline="central" font-size="4.199999999999999">
            60
          </text><rect x="12.0" y="0" width="6.0" height="10.0" fill="yellow"/><text x="15.0" y="5.0" text-anchor="middle" dominant-baseline="central" font-size="4.199999999999999">
            61
          </text>
      </g>
      </g><g transform="translate(0, 60.0)">
        <g transform="translate(0.0)" clip-path="url(#clipPath6)">
        <rect x="0.0" y="0" width="6.0" height="10.0" fill="peru"/><text x="3.0" y="5.0" text-anchor="middle" dominant-baseline="central" font-size="4.199999999999999">
            59
          </text><rect x="6.0" y="0" width="6.0" height="10.0" fill="orange"/><text x="9.0" y="5.0" text-anchor="middle" dominant-baseline="central" font-size="4.199999999999999">
            60
          </text><rect x="12.0" y="0" width="6.0" height="10.0" fill="yellow"/><text x="15.0" y="5.0" text-anchor="middle" dominant-baseline="central" font-size="4.199999999999999">
            61
          </text><rect x="18.0" y="0" width="6.0" height="10.0" fill="limegreen"/><text x="21.0" y="5.0" text-anchor="middle" dominant-baseline="central" font-size="4.199999999999999">
            66
          </text><rect x="24.0" y="0" width="6.0" height="10.0" fill="dodgerblue"/><text x="27.0" y="5.0" text-anchor="middle" dominant-baseline="central" font-size="4.199999999999999">
            69
          </text><rect x="30.0" y="0" width="6.0" height="10.0" fill="violet"/><text x="33.0" y="5.0" text-anchor="middle" dominant-baseline="central" font-size="4.199999999999999">
            72
          </text>
      </g>
      </g><g transform="translate(0, 90.0)">
        <g transform="translate(0.0)" clip-path="url(#clipPath3)">
        <rect x="0.0" y="0" width="6.0" height="10.0" fill="peru"/><text x="3.0" y="5.0" text-anchor="middle" dominant-baseline="central" font-size="4.199999999999999">
            59
          </text><rect x="6.0" y="0" width="6.0" height="10.0" fill="orange"/><text x="9.0" y="5.0" text-anchor="middle" dominant-baseline="central" font-size="4.199999999999999">
            60
          </text><rect x="12.0" y="0" width="6.0" height="10.0" fill="dodgerblue"/><text x="15.0" y="5.0" text-anchor="middle" dominant-baseline="central" font-size="4.199999999999999">
            69
          </text>
      </g><g transform="translate(24.0)" clip-path="url(#clipPath3)">
        <rect x="0.0" y="0" width="6.0" height="10.0" fill="yellow"/><text x="3.0" y="5.0" text-anchor="middle" dominant-baseline="central" font-size="4.199999999999999">
            61
          </text><rect x="6.0" y="0" width="6.0" height="10.0" fill="limegreen"/><text x="9.0" y="5.0" text-anchor="middle" dominant-baseline="central" font-size="4.199999999999999">
            66
          </text><rect x="12.0" y="0" width="6.0" height="10.0" fill="violet"/><text x="15.0" y="5.0" text-anchor="middle" dominant-baseline="central" font-size="4.199999999999999">
            72
          </text>
      </g>
      </g><g transform="translate(0, 120.0)">
        <g transform="translate(0.0)" clip-path="url(#clipPath6)">
        <rect x="0.0" y="0" width="6.0" height="10.0" fill="peru"/><text x="3.0" y="5.0" text-anchor="middle" dominant-baseline="central" font-size="4.199999999999999">
            59
          </text><rect x="6.0" y="0" width="6.0" height="10.0" fill="orange"/><text x="9.0" y="5.0" text-anchor="middle" dominant-baseline="central" font-size="4.199999999999999">
            60
          </text><rect x="12.0" y="0" width="6.0" height="10.0" fill="yellow"/><text x="15.0" y="5.0" text-anchor="middle" dominant-baseline="central" font-size="4.199999999999999">
            61
          </text><rect x="18.0" y="0" width="6.0" height="10.0" fill="limegreen"/><text x="21.0" y="5.0" text-anchor="middle" dominant-baseline="central" font-size="4.199999999999999">
            66
          </text><rect x="24.0" y="0" width="6.0" height="10.0" fill="dodgerblue"/><text x="27.0" y="5.0" text-anchor="middle" dominant-baseline="central" font-size="4.199999999999999">
            69
          </text><rect x="30.0" y="0" width="6.0" height="10.0" fill="violet"/><text x="33.0" y="5.0" text-anchor="middle" dominant-baseline="central" font-size="4.199999999999999">
            72
          </text>
      </g>
      </g><g transform="translate(0, 150.0)">
        <g transform="translate(0.0)" clip-path="url(#clipPath2)">
        <rect x="0.0" y="0" width="6.0" height="10.0" fill="peru"/><text x="3.0" y="5.0" text-anchor="middle" dominant-baseline="central" font-size="4.199999999999999">
            59
          </text><rect x="6.0" y="0" width="6.0" height="10.0" fill="yellow"/><text x="9.0" y="5.0" text-anchor="middle" dominant-baseline="central" font-size="4.199999999999999">
            61
          </text>
      </g><g transform="translate(18.0)" clip-path="url(#clipPath2)">
        <rect x="0.0" y="0" width="6.0" height="10.0" fill="orange"/><text x="3.0" y="5.0" text-anchor="middle" dominant-baseline="central" font-size="4.199999999999999">
            60
          </text><rect x="6.0" y="0" width="6.0" height="10.0" fill="limegreen"/><text x="9.0" y="5.0" text-anchor="middle" dominant-baseline="central" font-size="4.199999999999999">
            66
          </text>
      </g><g transform="translate(36.0)" clip-path="url(#clipPath2)">
        <rect x="0.0" y="0" width="6.0" height="10.0" fill="dodgerblue"/><text x="3.0" y="5.0" text-anchor="middle" dominant-baseline="central" font-size="4.199999999999999">
            69
          </text><rect x="6.0" y="0" width="6.0" height="10.0" fill="violet"/><text x="9.0" y="5.0" text-anchor="middle" dominant-baseline="central" font-size="4.199999999999999">
            72
          </text>
      </g>
      </g><g transform="translate(0, 180.0)">
        <g transform="translate(0.0)" clip-path="url(#clipPath6)">
        <rect x="0.0" y="0" width="6.0" height="10.0" fill="peru"/><text x="3.0" y="5.0" text-anchor="middle" dominant-baseline="central" font-size="4.199999999999999">
            59
          </text><rect x="6.0" y="0" width="6.0" height="10.0" fill="orange"/><text x="9.0" y="5.0" text-anchor="middle" dominant-baseline="central" font-size="4.199999999999999">
            60
          </text><rect x="12.0" y="0" width="6.0" height="10.0" fill="yellow"/><text x="15.0" y="5.0" text-anchor="middle" dominant-baseline="central" font-size="4.199999999999999">
            61
          </text><rect x="18.0" y="0" width="6.0" height="10.0" fill="limegreen"/><text x="21.0" y="5.0" text-anchor="middle" dominant-baseline="central" font-size="4.199999999999999">
            66
          </text><rect x="24.0" y="0" width="6.0" height="10.0" fill="dodgerblue"/><text x="27.0" y="5.0" text-anchor="middle" dominant-baseline="central" font-size="4.199999999999999">
            69
          </text><rect x="30.0" y="0" width="6.0" height="10.0" fill="violet"/><text x="33.0" y="5.0" text-anchor="middle" dominant-baseline="central" font-size="4.199999999999999">
            72
          </text>
      </g>
      </g><g transform="translate(0, 210.0)">
        <g transform="translate(0.0)" clip-path="url(#clipPath1)">
        <rect x="0.0" y="0" width="6.0" height="10.0" fill="peru"/><text x="3.0" y="5.0" text-anchor="middle" dominant-baseline="central" font-size="4.199999999999999">
            59
          </text>
      </g><g transform="translate(12.0)" clip-path="url(#clipPath2)">
        <rect x="0.0" y="0" width="6.0" height="10.0" fill="orange"/><text x="3.0" y="5.0" text-anchor="middle" dominant-baseline="central" font-size="4.199999999999999">
            60
          </text><rect x="6.0" y="0" width="6.0" height="10.0" fill="yellow"/><text x="9.0" y="5.0" text-anchor="middle" dominant-baseline="central" font-size="4.199999999999999">
            61
          </text>
      </g><g transform="translate(30.0)" clip-path="url(#clipPath2)">
        <rect x="0.0" y="0" width="6.0" height="10.0" fill="limegreen"/><text x="3.0" y="5.0" text-anchor="middle" dominant-baseline="central" font-size="4.199999999999999">
            66
          </text><rect x="6.0" y="0" width="6.0" height="10.0" fill="dodgerblue"/><text x="9.0" y="5.0" text-anchor="middle" dominant-baseline="central" font-size="4.199999999999999">
            69
          </text>
      </g><g transform="translate(48.0)" clip-path="url(#clipPath1)">
        <rect x="0.0" y="0" width="6.0" height="10.0" fill="violet"/><text x="3.0" y="5.0" text-anchor="middle" dominant-baseline="central" font-size="4.199999999999999">
            72
          </text>
      </g>
      </g><g transform="translate(0, 240.0)">
        <g transform="translate(0.0)" clip-path="url(#clipPath6)">
        <rect x="0.0" y="0" width="6.0" height="10.0" fill="peru"/><text x="3.0" y="5.0" text-anchor="middle" dominant-baseline="central" font-size="4.199999999999999">
            59
          </text><rect x="6.0" y="0" width="6.0" height="10.0" fill="orange"/><text x="9.0" y="5.0" text-anchor="middle" dominant-baseline="central" font-size="4.199999999999999">
            60
          </text><rect x="12.0" y="0" width="6.0" height="10.0" fill="yellow"/><text x="15.0" y="5.0" text-anchor="middle" dominant-baseline="central" font-size="4.199999999999999">
            61
          </text><rect x="18.0" y="0" width="6.0" height="10.0" fill="limegreen"/><text x="21.0" y="5.0" text-anchor="middle" dominant-baseline="central" font-size="4.199999999999999">
            66
          </text><rect x="24.0" y="0" width="6.0" height="10.0" fill="dodgerblue"/><text x="27.0" y="5.0" text-anchor="middle" dominant-baseline="central" font-size="4.199999999999999">
            69
          </text><rect x="30.0" y="0" width="6.0" height="10.0" fill="violet"/><text x="33.0" y="5.0" text-anchor="middle" dominant-baseline="central" font-size="4.199999999999999">
            72
          </text>
      </g>
      </g><g transform="translate(0, 270.0)">
        <g transform="translate(0.0)" clip-path="url(#clipPath2)">
        <rect x="0.0" y="0" width="6.0" height="10.0" fill="peru"/><text x="3.0" y="5.0" text-anchor="middle" dominant-baseline="central" font-size="4.199999999999999">
            59
          </text><rect x="6.0" y="0" width="6.0" height="10.0" fill="orange"/><text x="9.0" y="5.0" text-anchor="middle" dominant-baseline="central" font-size="4.199999999999999">
            60
          </text>
      </g><g transform="translate(18.0)" clip-path="url(#clipPath2)">
        <rect x="0.0" y="0" width="6.0" height="10.0" fill="yellow"/><text x="3.0" y="5.0" text-anchor="middle" dominant-baseline="central" font-size="4.199999999999999">
            61
          </text><rect x="6.0" y="0" width="6.0" height="10.0" fill="limegreen"/><text x="9.0" y="5.0" text-anchor="middle" dominant-baseline="central" font-size="4.199999999999999">
            66
          </text>
      </g><g transform="translate(72.0)" clip-path="url(#clipPath2)">
        <rect x="0.0" y="0" width="6.0" height="10.0" fill="dodgerblue"/><text x="3.0" y="5.0" text-anchor="middle" dominant-baseline="central" font-size="4.199999999999999">
            69
          </text><rect x="6.0" y="0" width="6.0" height="10.0" fill="violet"/><text x="9.0" y="5.0" text-anchor="middle" dominant-baseline="central" font-size="4.199999999999999">
            72
          </text>
      </g>
      </g><g transform="translate(0, 30.0)">
    <path d="M 3.0,-21.0 C 3.0,-6.0 75.001,-15.0 75.001,2" stroke="url(#peruGradient)" fill="none" stroke-width="6.0"/><path d="M 9.0,-21.0 C 9.0,-6.0 81.001,-15.0 81.001,2" stroke="url(#orangeGradient)" fill="none" stroke-width="6.0"/><path d="M 15.0,-21.0 C 15.0,-6.0 87.001,-15.0 87.001,2" stroke="url(#yellowGradient)" fill="none" stroke-width="6.0"/><path d="M 21.0,-21.0 C 21.0,-6.0 3.001,-15.0 3.001,2" stroke="url(#limegreenGradient)" fill="none" stroke-width="6.0"/><path d="M 27.0,-21.0 C 27.0,-6.0 9.001,-15.0 9.001,2" stroke="url(#dodgerblueGradient)" fill="none" stroke-width="6.0"/><path d="M 33.0,-21.0 C 33.0,-6.0 15.001,-15.0 15.001,2" stroke="url(#violetGradient)" fill="none" stroke-width="6.0"/>
  </g><g transform="translate(0, 60.0)">
    <path d="M 3.0,-21.0 C 3.0,-6.0 21.001,-15.0 21.001,2" stroke="url(#limegreenGradient)" fill="none" stroke-width="6.0"/><path d="M 9.0,-21.0 C 9.0,-6.0 27.001,-15.0 27.001,2" stroke="url(#dodgerblueGradient)" fill="none" stroke-width="6.0"/><path d="M 15.0,-21.0 C 15.0,-6.0 33.001,-15.0 33.001,2" stroke="url(#violetGradient)" fill="none" stroke-width="6.0"/><path d="M 75.0,-21.0 C 75.0,-6.0 3.001,-15.0 3.001,2" stroke="url(#peruGradient)" fill="none" stroke-width="6.0"/><path d="M 81.0,-21.0 C 81.0,-6.0 9.001,-15.0 9.001,2" stroke="url(#orangeGradient)" fill="none" stroke-width="6.0"/><path d="M 87.0,-21.0 C 87.0,-6.0 15.001,-15.0 15.001,2" stroke="url(#yellowGradient)" fill="none" stroke-width="6.0"/>
  </g><g transform="translate(0, 90.0)">
    <path d="M 3.0,-21.0 C 3.0,-6.0 3.001,-15.0 3.001,2" stroke="url(#peruGradient)" fill="none" stroke-width="6.0"/><path d="M 9.0,-21.0 C 9.0,-6.0 9.001,-15.0 9.001,2" stroke="url(#orangeGradient)" fill="none" stroke-width="6.0"/><path d="M 15.0,-21.0 C 15.0,-6.0 27.001,-15.0 27.001,2" stroke="url(#yellowGradient)" fill="none" stroke-width="6.0"/><path d="M 21.0,-21.0 C 21.0,-6.0 33.001,-15.0 33.001,2" stroke="url(#limegreenGradient)" fill="none" stroke-width="6.0"/><path d="M 27.0,-21.0 C 27.0,-6.0 15.001,-15.0 15.001,2" stroke="url(#dodgerblueGradient)" fill="none" stroke-width="6.0"/><path d="M 33.0,-21.0 C 33.0,-6.0 39.001,-15.0 39.001,2" stroke="url(#violetGradient)" fill="none" stroke-width="6.0"/>
  </g><g transform="translate(0, 120.0)">
    <path d="M 3.0,-21.0 C 3.0,-6.0 3.001,-15.0 3.001,2" stroke="url(#peruGradient)" fill="none" stroke-width="6.0"/><path d="M 9.0,-21.0 C 9.0,-6.0 9.001,-15.0 9.001,2" stroke="url(#orangeGradient)" fill="none" stroke-width="6.0"/><path d="M 15.0,-21.0 C 15.0,-6.0 27.001,-15.0 27.001,2" stroke="url(#dodgerblueGradient)" fill="none" stroke-width="6.0"/><path d="M 27.0,-21.0 C 27.0,-6.0 15.001,-15.0 15.001,2" stroke="url(#yellowGradient)" fill="none" stroke-width="6.0"/><path d="M 33.0,-21.0 C 33.0,-6.0 21.001,-15.0 21.001,2" stroke="url(#limegreenGradient)" fill="none" stroke-width="6.0"/><path d="M 39.0,-21.0 C 39.0,-6.0 33.001,-15.0 33.001,2" stroke="url(#violetGradient)" fill="none" stroke-width="6.0"/>
  </g><g transform="translate(0, 150.0)">
    <path d="M 3.0,-21.0 C 3.0,-6.0 3.001,-15.0 3.001,2" stroke="url(#peruGradient)" fill="none" stroke-width="6.0"/><path d="M 9.0,-21.0 C 9.0,-6.0 21.001,-15.0 21.001,2" stroke="url(#orangeGradient)" fill="none" stroke-width="6.0"/><path d="M 15.0,-21.0 C 15.0,-6.0 9.001,-15.0 9.001,2" stroke="url(#yellowGradient)" fill="none" stroke-width="6.0"/><path d="M 21.0,-21.0 C 21.0,-6.0 27.001,-15.0 27.001,2" stroke="url(#limegreenGradient)" fill="none" stroke-width="6.0"/><path d="M 27.0,-21.0 C 27.0,-6.0 39.001,-15.0 39.001,2" stroke="url(#dodgerblueGradient)" fill="none" stroke-width="6.0"/><path d="M 33.0,-21.0 C 33.0,-6.0 45.001,-15.0 45.001,2" stroke="url(#violetGradient)" fill="none" stroke-width="6.0"/>
  </g><g transform="translate(0, 180.0)">
    <path d="M 3.0,-21.0 C 3.0,-6.0 3.001,-15.0 3.001,2" stroke="url(#peruGradient)" fill="none" stroke-width="6.0"/><path d="M 9.0,-21.0 C 9.0,-6.0 15.001,-15.0 15.001,2" stroke="url(#yellowGradient)" fill="none" stroke-width="6.0"/><path d="M 21.0,-21.0 C 21.0,-6.0 9.001,-15.0 9.001,2" stroke="url(#orangeGradient)" fill="none" stroke-width="6.0"/><path d="M 27.0,-21.0 C 27.0,-6.0 21.001,-15.0 21.001,2" stroke="url(#limegreenGradient)" fill="none" stroke-width="6.0"/><path d="M 39.0,-21.0 C 39.0,-6.0 27.001,-15.0 27.001,2" stroke="url(#dodgerblueGradient)" fill="none" stroke-width="6.0"/><path d="M 45.0,-21.0 C 45.0,-6.0 33.001,-15.0 33.001,2" stroke="url(#violetGradient)" fill="none" stroke-width="6.0"/>
  </g><g transform="translate(0, 210.0)">
    <path d="M 3.0,-21.0 C 3.0,-6.0 3.001,-15.0 3.001,2" stroke="url(#peruGradient)" fill="none" stroke-width="6.0"/><path d="M 9.0,-21.0 C 9.0,-6.0 15.001,-15.0 15.001,2" stroke="url(#orangeGradient)" fill="none" stroke-width="6.0"/><path d="M 15.0,-21.0 C 15.0,-6.0 21.001,-15.0 21.001,2" stroke="url(#yellowGradient)" fill="none" stroke-width="6.0"/><path d="M 21.0,-21.0 C 21.0,-6.0 33.001,-15.0 33.001,2" stroke="url(#limegreenGradient)" fill="none" stroke-width="6.0"/><path d="M 27.0,-21.0 C 27.0,-6.0 39.001,-15.0 39.001,2" stroke="url(#dodgerblueGradient)" fill="none" stroke-width="6.0"/><path d="M 33.0,-21.0 C 33.0,-6.0 51.001,-15.0 51.001,2" stroke="url(#violetGradient)" fill="none" stroke-width="6.0"/>
  </g><g transform="translate(0, 240.0)">
    <path d="M 3.0,-21.0 C 3.0,-6.0 3.001,-15.0 3.001,2" stroke="url(#peruGradient)" fill="none" stroke-width="6.0"/><path d="M 15.0,-21.0 C 15.0,-6.0 9.001,-15.0 9.001,2" stroke="url(#orangeGradient)" fill="none" stroke-width="6.0"/><path d="M 21.0,-21.0 C 21.0,-6.0 15.001,-15.0 15.001,2" stroke="url(#yellowGradient)" fill="none" stroke-width="6.0"/><path d="M 33.0,-21.0 C 33.0,-6.0 21.001,-15.0 21.001,2" stroke="url(#limegreenGradient)" fill="none" stroke-width="6.0"/><path d="M 39.0,-21.0 C 39.0,-6.0 27.001,-15.0 27.001,2" stroke="url(#dodgerblueGradient)" fill="none" stroke-width="6.0"/><path d="M 51.0,-21.0 C 51.0,-6.0 33.001,-15.0 33.001,2" stroke="url(#violetGradient)" fill="none" stroke-width="6.0"/>
  </g><g transform="translate(0, 270.0)">
    <path d="M 3.0,-21.0 C 3.0,-6.0 3.001,-15.0 3.001,2" stroke="url(#peruGradient)" fill="none" stroke-width="6.0"/><path d="M 9.0,-21.0 C 9.0,-6.0 9.001,-15.0 9.001,2" stroke="url(#orangeGradient)" fill="none" stroke-width="6.0"/><path d="M 15.0,-21.0 C 15.0,-6.0 21.001,-15.0 21.001,2" stroke="url(#yellowGradient)" fill="none" stroke-width="6.0"/><path d="M 21.0,-21.0 C 21.0,-6.0 27.001,-15.0 27.001,2" stroke="url(#limegreenGradient)" fill="none" stroke-width="6.0"/><path d="M 27.0,-21.0 C 27.0,-6.0 75.001,-15.0 75.001,2" stroke="url(#dodgerblueGradient)" fill="none" stroke-width="6.0"/><path d="M 33.0,-21.0 C 33.0,-6.0 81.001,-15.0 81.001,2" stroke="url(#violetGradient)" fill="none" stroke-width="6.0"/>
  </g><line transform="translate(0, -10.0)" x1="69.0" y1="0" x2="69.0" y2="300.0" stroke="gray" stroke-width=".5"/><rect transform="translate(0.0, 0.0)" x="-0.25" y="-.25" width="36.5" height="10.5" stroke="black" stroke-width=".5" fill="none" rx="3"/><rect transform="translate(0.0, 30.0)" x="-0.25" y="-.25" width="18.5" height="10.5" stroke="black" stroke-width=".5" fill="none" rx="3"/><rect transform="translate(72.0, 30.0)" x="-0.25" y="-.25" width="18.5" height="10.5" stroke="black" stroke-width=".5" fill="none" rx="3"/><rect transform="translate(0.0, 60.0)" x="-0.25" y="-.25" width="36.5" height="10.5" stroke="black" stroke-width=".5" fill="none" rx="3"/><rect transform="translate(0.0, 90.0)" x="-0.25" y="-.25" width="18.5" height="10.5" stroke="black" stroke-width=".5" fill="none" rx="3"/><rect transform="translate(24.0, 90.0)" x="-0.25" y="-.25" width="18.5" height="10.5" stroke="black" stroke-width=".5" fill="none" rx="3"/><rect transform="translate(0.0, 120.0)" x="-0.25" y="-.25" width="36.5" height="10.5" stroke="black" stroke-width=".5" fill="none" rx="3"/><rect transform="translate(0.0, 150.0)" x="-0.25" y="-.25" width="12.5" height="10.5" stroke="black" stroke-width=".5" fill="none" rx="3"/><rect transform="translate(18.0, 150.0)" x="-0.25" y="-.25" width="12.5" height="10.5" stroke="black" stroke-width=".5" fill="none" rx="3"/><rect transform="translate(36.0, 150.0)" x="-0.25" y="-.25" width="12.5" height="10.5" stroke="black" stroke-width=".5" fill="none" rx="3"/><rect transform="translate(0.0, 180.0)" x="-0.25" y="-.25" width="36.5" height="10.5" stroke="black" stroke-width=".5" fill="none" rx="3"/><rect transform="translate(0.0, 210.0)" x="-0.25" y="-.25" width="6.5" height="10.5" stroke="black" stroke-width=".5" fill="none" rx="3"/><rect transform="translate(12.0, 210.0)" x="-0.25" y="-.25" width="12.5" height="10.5" stroke="black" stroke-width=".5" fill="none" rx="3"/><rect transform="translate(30.0, 210.0)" x="-0.25" y="-.25" width="12.5" height="10.5" stroke="black" stroke-width=".5" fill="none" rx="3"/><rect transform="translate(48.0, 210.0)" x="-0.25" y="-.25" width="6.5" height="10.5" stroke="black" stroke-width=".5" fill="none" rx="3"/><rect transform="translate(0.0, 240.0)" x="-0.25" y="-.25" width="36.5" height="10.5" stroke="black" stroke-width=".5" fill="none" rx="3"/><rect transform="translate(0.0, 270.0)" x="-0.25" y="-.25" width="12.5" height="10.5" stroke="black" stroke-width=".5" fill="none" rx="3"/><rect transform="translate(18.0, 270.0)" x="-0.25" y="-.25" width="12.5" height="10.5" stroke="black" stroke-width=".5" fill="none" rx="3"/><rect transform="translate(72.0, 270.0)" x="-0.25" y="-.25" width="12.5" height="10.5" stroke="black" stroke-width=".5" fill="none" rx="3"/><line x1="18.25" y1="35.0" x2="71.75" y2="35.0" stroke="black" stroke-width=".5"/><line x1="18.25" y1="95.0" x2="23.75" y2="95.0" stroke="black" stroke-width=".5"/><line x1="12.25" y1="155.0" x2="17.75" y2="155.0" stroke="black" stroke-width=".5"/><line x1="30.25" y1="155.0" x2="35.75" y2="155.0" stroke="black" stroke-width=".5"/><line x1="6.25" y1="215.0" x2="11.75" y2="215.0" stroke="black" stroke-width=".5"/><line x1="24.25" y1="215.0" x2="29.75" y2="215.0" stroke="black" stroke-width=".5"/><line x1="42.25" y1="215.0" x2="47.75" y2="215.0" stroke="black" stroke-width=".5"/><line x1="12.25" y1="275.0" x2="17.75" y2="275.0" stroke="black" stroke-width=".5"/><line x1="30.25" y1="275.0" x2="71.75" y2="275.0" stroke="black" stroke-width=".5"/>
    </g>
  </svg>