<svg viewBox="0 0 300 180" xmlns="http://www.w3.org/2000/svg">
    <g transform="translate(10)">
      <line transform="translate(0, -10)" x1="65" y1="0" x2="65" y2="90" stroke="gray"/><g transform="translate(0, 0)">
        <rect x="0" y="0" width="10" height="10" fill="Peru"/><text x="5" y="5" text-anchor="middle" dominant-baseline="central" font-size="5">
                    59
                  </text><rect x="10" y="0" width="10" height="10" fill="Orange"/><text x="15" y="5" text-anchor="middle" dominant-baseline="central" font-size="5">
                    60
                  </text><rect x="20" y="0" width="10" height="10" fill="Yellow"/><text x="25" y="5" text-anchor="middle" dominant-baseline="central" font-size="5">
                    61
                  </text><rect x="30" y="0" width="10" height="10" fill="LimeGreen"/><text x="35" y="5" text-anchor="middle" dominant-baseline="central" font-size="5">
                    66
                  </text><rect x="40" y="0" width="10" height="10" fill="DodgerBlue"/><text x="45" y="5" text-anchor="middle" dominant-baseline="central" font-size="5">
                    69
                  </text><rect x="50" y="0" width="10" height="10" fill="Violet"/><text x="55" y="5" text-anchor="middle" dominant-baseline="central" font-size="5">
                    72
                  </text>
      </g><g transform="translate(0, 30)">
        <rect x="0" y="0" width="10" height="10" fill="LimeGreen"/><text x="5" y="5" text-anchor="middle" dominant-baseline="central" font-size="5">
                    66
                  </text><rect x="10" y="0" width="10" height="10" fill="DodgerBlue"/><text x="15" y="5" text-anchor="middle" dominant-baseline="central" font-size="5">
                    69
                  </text><rect x="20" y="0" width="10" height="10" fill="Violet"/><text x="25" y="5" text-anchor="middle" dominant-baseline="central" font-size="5">
                    72
                  </text><rect x="70" y="0" width="10" height="10" fill="Peru"/><text x="75" y="5" text-anchor="middle" dominant-baseline="central" font-size="5">
                    59
                  </text><rect x="80" y="0" width="10" height="10" fill="Orange"/><text x="85" y="5" text-anchor="middle" dominant-baseline="central" font-size="5">
                    60
                  </text><rect x="90" y="0" width="10" height="10" fill="Yellow"/><text x="95" y="5" text-anchor="middle" dominant-baseline="central" font-size="5">
                    61
                  </text>
      </g><g transform="translate(0, 60)">
        <rect x="0" y="0" width="10" height="10" fill="Peru"/><text x="5" y="5" text-anchor="middle" dominant-baseline="central" font-size="5">
                    59
                  </text><rect x="10" y="0" width="10" height="10" fill="Orange"/><text x="15" y="5" text-anchor="middle" dominant-baseline="central" font-size="5">
                    60
                  </text><rect x="20" y="0" width="10" height="10" fill="Yellow"/><text x="25" y="5" text-anchor="middle" dominant-baseline="central" font-size="5">
                    61
                  </text><rect x="30" y="0" width="10" height="10" fill="LimeGreen"/><text x="35" y="5" text-anchor="middle" dominant-baseline="central" font-size="5">
                    66
                  </text><rect x="40" y="0" width="10" height="10" fill="DodgerBlue"/><text x="45" y="5" text-anchor="middle" dominant-baseline="central" font-size="5">
                    69
                  </text><rect x="50" y="0" width="10" height="10" fill="Violet"/><text x="55" y="5" text-anchor="middle" dominant-baseline="central" font-size="5">
                    72
                  </text>
      </g>
    </g>
  </svg>