<svg viewBox="0 0 300 180" xmlns="http://www.w3.org/2000/svg">
    <g transform="translate(10)">
      <line transform="translate(0, -10)" x1="39" y1="0" x2="39" y2="90" stroke="gray"/><g transform="translate(0, 0)">
        <rect x="0" y="0" width="6" height="10" fill="Peru"/><text x="3" y="5" text-anchor="middle" dominant-baseline="central" font-size="4.0">59</text><rect x="6" y="0" width="6" height="10" fill="Orange"/><text x="9" y="5" text-anchor="middle" dominant-baseline="central" font-size="4.0">60</text><rect x="12" y="0" width="6" height="10" fill="Yellow"/><text x="15" y="5" text-anchor="middle" dominant-baseline="central" font-size="4.0">61</text><rect x="18" y="0" width="6" height="10" fill="LimeGreen"/><text x="21" y="5" text-anchor="middle" dominant-baseline="central" font-size="4.0">66</text><rect x="24" y="0" width="6" height="10" fill="DodgerBlue"/><text x="27" y="5" text-anchor="middle" dominant-baseline="central" font-size="4.0">69</text><rect x="30" y="0" width="6" height="10" fill="Violet"/><text x="33" y="5" text-anchor="middle" dominant-baseline="central" font-size="4.0">72</text>
      </g><g transform="translate(0, 30)">
        <rect x="0" y="0" width="6" height="10" fill="LimeGreen"/><text x="3" y="5" text-anchor="middle" dominant-baseline="central" font-size="4.0">66</text><rect x="6" y="0" width="6" height="10" fill="DodgerBlue"/><text x="9" y="5" text-anchor="middle" dominant-baseline="central" font-size="4.0">69</text><rect x="12" y="0" width="6" height="10" fill="Violet"/><text x="15" y="5" text-anchor="middle" dominant-baseline="central" font-size="4.0">72</text><rect x="42" y="0" width="6" height="10" fill="Peru"/><text x="45" y="5" text-anchor="middle" dominant-baseline="central" font-size="4.0">59</text><rect x="48" y="0" width="6" height="10" fill="Orange"/><text x="51" y="5" text-anchor="middle" dominant-baseline="central" font-size="4.0">60</text><rect x="54" y="0" width="6" height="10" fill="Yellow"/><text x="57" y="5" text-anchor="middle" dominant-baseline="central" font-size="4.0">61</text>
      </g><g transform="translate(0, 60)">
        <rect x="0" y="0" width="6" height="10" fill="Peru"/><text x="3" y="5" text-anchor="middle" dominant-baseline="central" font-size="4.0">59</text><rect x="6" y="0" width="6" height="10" fill="Orange"/><text x="9" y="5" text-anchor="middle" dominant-baseline="central" font-size="4.0">60</text><rect x="12" y="0" width="6" height="10" fill="Yellow"/><text x="15" y="5" text-anchor="middle" dominant-baseline="central" font-size="4.0">61</text><rect x="18" y="0" width="6" height="10" fill="LimeGreen"/><text x="21" y="5" text-anchor="middle" dominant-baseline="central" font-size="4.0">66</text><rect x="24" y="0" width="6" height="10" fill="DodgerBlue"/><text x="27" y="5" text-anchor="middle" dominant-baseline="central" font-size="4.0">69</text><rect x="30" y="0" width="6" height="10" fill="Violet"/><text x="33" y="5" text-anchor="middle" dominant-baseline="central" font-size="4.0">72</text>
      </g>
    </g>
  </svg>