<svg viewBox="0 0 300 180" xmlns="http://www.w3.org/2000/svg">
    <g transform="translate(10)">
      <defs><linearGradient id="dodgerblueGradient" x1="0%" x2="0%" y1="0%" y2="100%">
    <stop offset="0%" stop-color="dodgerblue" stop-opacity="1"/>
    <stop offset="50%" stop-color="dodgerblue" stop-opacity=".2"/>
    <stop offset="100%" stop-color="dodgerblue" stop-opacity="1"/>
  </linearGradient><linearGradient id="yellowGradient" x1="0%" x2="0%" y1="0%" y2="100%">
    <stop offset="0%" stop-color="yellow" stop-opacity="1"/>
    <stop offset="50%" stop-color="yellow" stop-opacity=".2"/>
    <stop offset="100%" stop-color="yellow" stop-opacity="1"/>
  </linearGradient><linearGradient id="violetGradient" x1="0%" x2="0%" y1="0%" y2="100%">
    <stop offset="0%" stop-color="violet" stop-opacity="1"/>
    <stop offset="50%" stop-color="violet" stop-opacity=".2"/>
    <stop offset="100%" stop-color="violet" stop-opacity="1"/>
  </linearGradient><linearGradient id="orangeGradient" x1="0%" x2="0%" y1="0%" y2="100%">
    <stop offset="0%" stop-color="orange" stop-opacity="1"/>
    <stop offset="50%" stop-color="orange" stop-opacity=".2"/>
    <stop offset="100%" stop-color="orange" stop-opacity="1"/>
  </linearGradient><linearGradient id="limegreenGradient" x1="0%" x2="0%" y1="0%" y2="100%">
    <stop offset="0%" stop-color="limegreen" stop-opacity="1"/>
    <stop offset="50%" stop-color="limegreen" stop-opacity=".2"/>
    <stop offset="100%" stop-color="limegreen" stop-opacity="1"/>
  </linearGradient><linearGradient id="peruGradient" x1="0%" x2="0%" y1="0%" y2="100%">
    <stop offset="0%" stop-color="peru" stop-opacity="1"/>
    <stop offset="50%" stop-color="peru" stop-opacity=".2"/>
    <stop offset="100%" stop-color="peru" stop-opacity="1"/>
  </linearGradient><clipPath id="clipPath1">
    <rect x="0" y="0" width="6.0" height="10.0" rx="2.75"/>
   </clipPath><clipPath id="clipPath2">
    <rect x="0" y="0" width="12.0" height="10.0" rx="2.75"/>
   </clipPath><clipPath id="clipPath3">
    <rect x="0" y="0" width="18.0" height="10.0" rx="2.75"/>
   </clipPath><clipPath id="clipPath4">
    <rect x="0" y="0" width="24.0" height="10.0" rx="2.75"/>
   </clipPath><clipPath id="clipPath5">
    <rect x="0" y="0" width="30.0" height="10.0" rx="2.75"/>
   </clipPath><clipPath id="clipPath6">
    <rect x="0" y="0" width="36.0" height="10.0" rx="2.75"/>
   </clipPath></defs><g transform="translate(0, 0.0)">
        <g transform="translate(0.0)" clip-path="url(#clipPath6)"><rect x="0.0" y="0" width="6.0" height="10.0" fill="peru"/><text x="3.0" y="5.0" text-anchor="middle" dominant-baseline="central" font-size="4.199999999999999">59</text><rect x="6.0" y="0" width="6.0" height="10.0" fill="orange"/><text x="9.0" y="5.0" text-anchor="middle" dominant-baseline="central" font-size="4.199999999999999">60</text><rect x="12.0" y="0" width="6.0" height="10.0" fill="yellow"/><text x="15.0" y="5.0" text-anchor="middle" dominant-baseline="central" font-size="4.199999999999999">61</text><rect x="18.0" y="0" width="6.0" height="10.0" fill="limegreen"/><text x="21.0" y="5.0" text-anchor="middle" dominant-baseline="central" font-size="4.199999999999999">66</text><rect x="24.0" y="0" width="6.0" height="10.0" fill="dodgerblue"/><text x="27.0" y="5.0" text-anchor="middle" dominant-baseline="central" font-size="4.199999999999999">69</text><rect x="30.0" y="0" width="6.0" height="10.0" fill="violet"/><text x="33.0" y="5.0" text-anchor="middle" dominant-baseline="central" font-size="4.199999999999999">72</text></g>
      </g><g transform="translate(0, 30.0)">
        <g transform="translate(0.0)" clip-path="url(#clipPath3)"><rect x="0.0" y="0" width="6.0" height="10.0" fill="limegreen"/><text x="3.0" y="5.0" text-anchor="middle" dominant-baseline="central" font-size="4.199999999999999">66</text><rect x="6.0" y="0" width="6.0" height="10.0" fill="dodgerblue"/><text x="9.0" y="5.0" text-anchor="middle" dominant-baseline="central" font-size="4.199999999999999">69</text><rect x="12.0" y="0" width="6.0" height="10.0" fill="violet"/><text x="15.0" y="5.0" text-anchor="middle" dominant-baseline="central" font-size="4.199999999999999">72</text></g><g transform="translate(42.0)" clip-path="url(#clipPath3)"><rect x="0.0" y="0" width="6.0" height="10.0" fill="peru"/><text x="3.0" y="5.0" text-anchor="middle" dominant-baseline="central" font-size="4.199999999999999">59</text><rect x="6.0" y="0" width="6.0" height="10.0" fill="orange"/><text x="9.0" y="5.0" text-anchor="middle" dominant-baseline="central" font-size="4.199999999999999">60</text><rect x="12.0" y="0" width="6.0" height="10.0" fill="yellow"/><text x="15.0" y="5.0" text-anchor="middle" dominant-baseline="central" font-size="4.199999999999999">61</text></g>
      </g><g transform="translate(0, 60.0)">
        <g transform="translate(0.0)" clip-path="url(#clipPath6)"><rect x="0.0" y="0" width="6.0" height="10.0" fill="peru"/><text x="3.0" y="5.0" text-anchor="middle" dominant-baseline="central" font-size="4.199999999999999">59</text><rect x="6.0" y="0" width="6.0" height="10.0" fill="orange"/><text x="9.0" y="5.0" text-anchor="middle" dominant-baseline="central" font-size="4.199999999999999">60</text><rect x="12.0" y="0" width="6.0" height="10.0" fill="yellow"/><text x="15.0" y="5.0" text-anchor="middle" dominant-baseline="central" font-size="4.199999999999999">61</text><rect x="18.0" y="0" width="6.0" height="10.0" fill="limegreen"/><text x="21.0" y="5.0" text-anchor="middle" dominant-baseline="central" font-size="4.199999999999999">66</text><rect x="24.0" y="0" width="6.0" height="10.0" fill="dodgerblue"/><text x="27.0" y="5.0" text-anchor="middle" dominant-baseline="central" font-size="4.199999999999999">69</text><rect x="30.0" y="0" width="6.0" height="10.0" fill="violet"/><text x="33.0" y="5.0" text-anchor="middle" dominant-baseline="central" font-size="4.199999999999999">72</text></g>
      </g>
      <g transform="translate(0, 30.0)"><path d="M 3.0,-20.0 C 3.0,-5.0 45.0, -15.0 45.0,0" stroke="url(#peruGradient)" fill="none" stroke-width="6.0"/><path d="M 9.0,-20.0 C 9.0,-5.0 51.0, -15.0 51.0,0" stroke="url(#orangeGradient)" fill="none" stroke-width="6.0"/><path d="M 15.0,-20.0 C 15.0,-5.0 57.0, -15.0 57.0,0" stroke="url(#yellowGradient)" fill="none" stroke-width="6.0"/><path d="M 21.0,-20.0 C 21.0,-5.0 3.0, -15.0 3.0,0" stroke="url(#limegreenGradient)" fill="none" stroke-width="6.0"/><path d="M 27.0,-20.0 C 27.0,-5.0 9.0, -15.0 9.0,0" stroke="url(#dodgerblueGradient)" fill="none" stroke-width="6.0"/><path d="M 33.0,-20.0 C 33.0,-5.0 15.0, -15.0 15.0,0" stroke="url(#violetGradient)" fill="none" stroke-width="6.0"/></g><g transform="translate(0, 60.0)"><path d="M 3.0,-20.0 C 3.0,-5.0 21.0, -15.0 21.0,0" stroke="url(#limegreenGradient)" fill="none" stroke-width="6.0"/><path d="M 9.0,-20.0 C 9.0,-5.0 27.0, -15.0 27.0,0" stroke="url(#dodgerblueGradient)" fill="none" stroke-width="6.0"/><path d="M 15.0,-20.0 C 15.0,-5.0 33.0, -15.0 33.0,0" stroke="url(#violetGradient)" fill="none" stroke-width="6.0"/><path d="M 45.0,-20.0 C 45.0,-5.0 3.0, -15.0 3.0,0" stroke="url(#peruGradient)" fill="none" stroke-width="6.0"/><path d="M 51.0,-20.0 C 51.0,-5.0 9.0, -15.0 9.0,0" stroke="url(#orangeGradient)" fill="none" stroke-width="6.0"/><path d="M 57.0,-20.0 C 57.0,-5.0 15.0, -15.0 15.0,0" stroke="url(#yellowGradient)" fill="none" stroke-width="6.0"/></g>
      <line transform="translate(0, -10.0)" x1="39.0" y1="0" x2="39.0" y2="90.0" stroke="gray" stroke-width=".5"/>
      <rect transform="translate(0.0, 0.0)" x="-0.25" y="-.25" width="36.5" height="10.5" stroke="black" stroke-width=".5" fill="none" rx="3"/><rect transform="translate(0.0, 30.0)" x="-0.25" y="-.25" width="18.5" height="10.5" stroke="black" stroke-width=".5" fill="none" rx="3"/><rect transform="translate(42.0, 30.0)" x="-0.25" y="-.25" width="18.5" height="10.5" stroke="black" stroke-width=".5" fill="none" rx="3"/><rect transform="translate(0.0, 60.0)" x="-0.25" y="-.25" width="36.5" height="10.5" stroke="black" stroke-width=".5" fill="none" rx="3"/>
      <line x1="18.25" y1="35.0" x2="41.75" y2="35.0" stroke="black" stroke-width=".5"/>
    </g>
  </svg>