<?xml version="1.0" encoding="UTF-8" standalone="no"?>
<!DOCTYPE svg PUBLIC "-//W3C//DTD SVG 1.1//EN"
 "http://www.w3.org/Graphics/SVG/1.1/DTD/svg11.dtd">
<!-- Generated by graphviz version 12.2.0 (20241103.1931)
 -->
<!-- Title: G Pages: 1 -->
<svg width="2465pt" height="332pt"
 viewBox="0.00 0.00 2465.23 332.00" xmlns="http://www.w3.org/2000/svg" xmlns:xlink="http://www.w3.org/1999/xlink">
<g id="graph0" class="graph" transform="scale(1 1) rotate(0) translate(4 328)">
<title>G</title>
<polygon fill="white" stroke="none" points="-4,4 -4,-328 2461.23,-328 2461.23,4 -4,4"/>
<!-- starts -->
<g id="node1" class="node">
<title>starts</title>
<ellipse fill="none" stroke="black" cx="628.66" cy="-306" rx="30.37" ry="18"/>
<text text-anchor="middle" x="628.66" y="-300.95" font-family="Times,serif" font-size="14.00">starts</text>
</g>
<!-- ends -->
<g id="node2" class="node">
<title>ends</title>
<ellipse fill="none" stroke="black" cx="584.66" cy="-18" rx="27.81" ry="18"/>
<text text-anchor="middle" x="584.66" y="-12.95" font-family="Times,serif" font-size="14.00">ends</text>
</g>
<!-- starts&#45;&gt;ends -->
<g id="edge1" class="edge">
<title>starts&#45;&gt;ends</title>
<path fill="none" stroke="black" d="M597.91,-304.66C480.81,-303.03 67.41,-294.32 28.66,-252 -126.86,-82.14 395.74,-32.14 545.63,-21.45"/>
<polygon fill="black" stroke="black" points="545.72,-24.95 555.45,-20.77 545.23,-17.96 545.72,-24.95"/>
</g>
<!-- 192 -->
<g id="node3" class="node">
<title>192</title>
<ellipse fill="none" stroke="black" cx="1247.66" cy="-234" rx="1209.57" ry="18"/>
<text text-anchor="middle" x="1247.66" y="-228.95" font-family="Times,serif" font-size="14.00">192: there is not a shadow of evidence in favour of this view : to assert that we could not breed our cart and race &#45; horses , long and short &#45; horned cattle , and poultry of various breeds , and esculent vegetables , for an unlimited number of generations , would be opposed to all experience . character of domestic varieties </text>
</g>
<!-- starts&#45;&gt;192 -->
<g id="edge2" class="edge">
<title>starts&#45;&gt;192</title>
<path fill="none" stroke="black" d="M658.51,-301.62C733.95,-293.09 936.62,-270.17 1083.2,-253.6"/>
<polygon fill="black" stroke="black" points="1083.5,-257.09 1093.04,-252.49 1082.71,-250.13 1083.5,-257.09"/>
</g>
<!-- 173 -->
<g id="node4" class="node">
<title>173</title>
<ellipse fill="none" stroke="black" cx="1159.66" cy="-162" rx="34.97" ry="18"/>
<text text-anchor="middle" x="1159.66" y="-156.95" font-family="Times,serif" font-size="14.00">173: ; </text>
</g>
<!-- 192&#45;&gt;173 -->
<g id="edge3" class="edge">
<title>192&#45;&gt;173</title>
<path fill="none" stroke="black" d="M1225.91,-215.7C1214.11,-206.31 1199.42,-194.63 1186.87,-184.65"/>
<polygon fill="black" stroke="black" points="1189.38,-182.17 1179.37,-178.68 1185.02,-187.64 1189.38,-182.17"/>
</g>
<!-- 254 -->
<g id="node5" class="node">
<title>254</title>
<ellipse fill="none" stroke="black" cx="1247.66" cy="-162" rx="34.97" ry="18"/>
<text text-anchor="middle" x="1247.66" y="-156.95" font-family="Times,serif" font-size="14.00">254: : </text>
</g>
<!-- 192&#45;&gt;254 -->
<g id="edge4" class="edge">
<title>192&#45;&gt;254</title>
<path fill="none" stroke="black" d="M1247.66,-215.7C1247.66,-208.41 1247.66,-199.73 1247.66,-191.54"/>
<polygon fill="black" stroke="black" points="1251.16,-191.62 1247.66,-181.62 1244.16,-191.62 1251.16,-191.62"/>
</g>
<!-- 255 -->
<g id="node6" class="node">
<title>255</title>
<ellipse fill="none" stroke="black" cx="1159.66" cy="-90" rx="452.1" ry="18"/>
<text text-anchor="middle" x="1159.66" y="-84.95" font-family="Times,serif" font-size="14.00">255: difficulty of distinguishing between varieties and species ; origin of domestic varieties from one or more species </text>
</g>
<!-- 173&#45;&gt;255 -->
<g id="edge5" class="edge">
<title>173&#45;&gt;255</title>
<path fill="none" stroke="black" d="M1159.66,-143.7C1159.66,-136.41 1159.66,-127.73 1159.66,-119.54"/>
<polygon fill="black" stroke="black" points="1163.16,-119.62 1159.66,-109.62 1156.16,-119.62 1163.16,-119.62"/>
</g>
<!-- 254&#45;&gt;255 -->
<g id="edge6" class="edge">
<title>254&#45;&gt;255</title>
<path fill="none" stroke="black" d="M1229.43,-146.5C1218.14,-137.52 1203.35,-125.76 1190.3,-115.37"/>
<polygon fill="black" stroke="black" points="1192.8,-112.89 1182.79,-109.4 1188.44,-118.36 1192.8,-112.89"/>
</g>
<!-- 255&#45;&gt;ends -->
<g id="edge7" class="edge">
<title>255&#45;&gt;ends</title>
<path fill="none" stroke="black" d="M1023.03,-72.37C892.28,-56.45 703.46,-33.46 623.15,-23.69"/>
<polygon fill="black" stroke="black" points="623.96,-20.26 613.61,-22.52 623.11,-27.21 623.96,-20.26"/>
</g>
</g>
</svg>
