<?xml version="1.0" encoding="UTF-8" standalone="no"?>
<!DOCTYPE svg PUBLIC "-//W3C//DTD SVG 1.1//EN"
 "http://www.w3.org/Graphics/SVG/1.1/DTD/svg11.dtd">
<!-- Generated by graphviz version 12.2.1 (20241206.2353)
 -->
<!-- Title: G Pages: 1 -->
<svg width="1826pt" height="260pt"
 viewBox="0.00 0.00 1825.59 260.00" xmlns="http://www.w3.org/2000/svg" xmlns:xlink="http://www.w3.org/1999/xlink">
<g id="graph0" class="graph" transform="scale(1 1) rotate(0) translate(4 256)">
<title>G</title>
<polygon fill="white" stroke="none" points="-4,4 -4,-256 1821.59,-256 1821.59,4 -4,4"/>
<!-- 255 -->
<g id="node1" class="node">
<title>255</title>
<ellipse fill="none" stroke="black" cx="1365.49" cy="-90" rx="452.1" ry="18"/>
<text text-anchor="middle" x="1365.49" y="-84.95" font-family="Times,serif" font-size="14.00">255: difficulty of distinguishing between varieties and species ; origin of domestic varieties from one or more species </text>
</g>
<!-- 168 -->
<g id="node2" class="node">
<title>168</title>
<ellipse fill="none" stroke="black" cx="1266.49" cy="-18" rx="151.67" ry="18"/>
<text text-anchor="middle" x="1266.49" y="-12.95" font-family="Times,serif" font-size="14.00">168: . character of domestic varieties </text>
</g>
<!-- 255&#45;&gt;168 -->
<g id="edge1" class="edge">
<title>255&#45;&gt;168</title>
<path fill="none" stroke="black" d="M1335.1,-71.7C1322.08,-63.11 1307.04,-52.61 1294.31,-43.24"/>
<polygon fill="black" stroke="black" points="1296.42,-40.44 1286.32,-37.25 1292.23,-46.05 1296.42,-40.44"/>
</g>
<!-- ends -->
<g id="node3" class="node">
<title>ends</title>
<ellipse fill="none" stroke="black" cx="1463.49" cy="-18" rx="27.81" ry="18"/>
<text text-anchor="middle" x="1463.49" y="-12.95" font-family="Times,serif" font-size="14.00">ends</text>
</g>
<!-- 255&#45;&gt;ends -->
<g id="edge2" class="edge">
<title>255&#45;&gt;ends</title>
<path fill="none" stroke="black" d="M1389.72,-71.7C1403.85,-61.6 1421.72,-48.84 1436.33,-38.4"/>
<polygon fill="black" stroke="black" points="1438.05,-41.47 1444.16,-32.81 1433.98,-35.77 1438.05,-41.47"/>
</g>
<!-- 168&#45;&gt;255 -->
<g id="edge3" class="edge">
<title>168&#45;&gt;255</title>
<path fill="none" stroke="black" d="M1296.58,-36.1C1309.79,-44.8 1325.14,-55.52 1338.04,-65.03"/>
<polygon fill="black" stroke="black" points="1335.62,-67.6 1345.72,-70.79 1339.82,-61.99 1335.62,-67.6"/>
</g>
<!-- 93 -->
<g id="node4" class="node">
<title>93</title>
<ellipse fill="none" stroke="black" cx="447.49" cy="-90" rx="447.49" ry="18"/>
<text text-anchor="middle" x="447.49" y="-84.95" font-family="Times,serif" font-size="14.00">93: difficulty of distinguishing between varieties and species ; origin of domestic varieties from one or more species </text>
</g>
<!-- 93&#45;&gt;168 -->
<g id="edge4" class="edge">
<title>93&#45;&gt;168</title>
<path fill="none" stroke="black" d="M632.82,-73.16C785.77,-60.09 999.03,-41.86 1134.94,-30.24"/>
<polygon fill="black" stroke="black" points="1135.04,-33.75 1144.71,-29.41 1134.44,-26.77 1135.04,-33.75"/>
</g>
<!-- 87 -->
<g id="node5" class="node">
<title>87</title>
<ellipse fill="none" stroke="black" cx="447.49" cy="-162" rx="147.06" ry="18"/>
<text text-anchor="middle" x="447.49" y="-156.95" font-family="Times,serif" font-size="14.00">87: . character of domestic varieties </text>
</g>
<!-- 87&#45;&gt;93 -->
<g id="edge5" class="edge">
<title>87&#45;&gt;93</title>
<path fill="none" stroke="black" d="M447.49,-143.7C447.49,-136.41 447.49,-127.73 447.49,-119.54"/>
<polygon fill="black" stroke="black" points="450.99,-119.62 447.49,-109.62 443.99,-119.62 450.99,-119.62"/>
</g>
<!-- starts -->
<g id="node6" class="node">
<title>starts</title>
<ellipse fill="none" stroke="black" cx="447.49" cy="-234" rx="30.37" ry="18"/>
<text text-anchor="middle" x="447.49" y="-228.95" font-family="Times,serif" font-size="14.00">starts</text>
</g>
<!-- starts&#45;&gt;87 -->
<g id="edge6" class="edge">
<title>starts&#45;&gt;87</title>
<path fill="none" stroke="black" d="M447.49,-215.7C447.49,-208.41 447.49,-199.73 447.49,-191.54"/>
<polygon fill="black" stroke="black" points="450.99,-191.62 447.49,-181.62 443.99,-191.62 450.99,-191.62"/>
</g>
</g>
</svg>
