<?xml version="1.0" encoding="UTF-8" standalone="no"?>
<!DOCTYPE svg PUBLIC "-//W3C//DTD SVG 1.1//EN"
 "http://www.w3.org/Graphics/SVG/1.1/DTD/svg11.dtd">
<!-- Generated by graphviz version 12.2.1 (20241206.2353)
 -->
<!-- Title: G Pages: 1 -->
<svg width="1863pt" height="260pt"
 viewBox="0.00 0.00 1862.59 260.00" xmlns="http://www.w3.org/2000/svg" xmlns:xlink="http://www.w3.org/1999/xlink">
<g id="graph0" class="graph" transform="scale(1 1) rotate(0) translate(4 256)">
<title>G</title>
<polygon fill="white" stroke="none" points="-4,4 -4,-256 1858.59,-256 1858.59,4 -4,4"/>
<!-- 168 -->
<g id="node1" class="node">
<title>168</title>
<ellipse fill="none" stroke="black" cx="602.1" cy="-162" rx="151.67" ry="18"/>
<text text-anchor="middle" x="602.1" y="-156.95" font-family="Times,serif" font-size="14.00">168: . character of domestic varieties </text>
</g>
<!-- 174 -->
<g id="node2" class="node">
<title>174</title>
<ellipse fill="none" stroke="black" cx="452.1" cy="-90" rx="452.1" ry="18"/>
<text text-anchor="middle" x="452.1" y="-84.95" font-family="Times,serif" font-size="14.00">174: difficulty of distinguishing between varieties and species ; origin of domestic varieties from one or more species </text>
</g>
<!-- 168&#45;&gt;174 -->
<g id="edge1" class="edge">
<title>168&#45;&gt;174</title>
<path fill="none" stroke="black" d="M565.79,-144.05C545.89,-134.77 521,-123.15 499.58,-113.16"/>
<polygon fill="black" stroke="black" points="501.29,-110.09 490.75,-109.04 498.33,-116.44 501.29,-110.09"/>
</g>
<!-- ends -->
<g id="node3" class="node">
<title>ends</title>
<ellipse fill="none" stroke="black" cx="932.1" cy="-18" rx="27.81" ry="18"/>
<text text-anchor="middle" x="932.1" y="-12.95" font-family="Times,serif" font-size="14.00">ends</text>
</g>
<!-- 174&#45;&gt;ends -->
<g id="edge2" class="edge">
<title>174&#45;&gt;ends</title>
<path fill="none" stroke="black" d="M567.68,-72.14C673.62,-56.69 824.27,-34.72 893.99,-24.56"/>
<polygon fill="black" stroke="black" points="894.37,-28.04 903.76,-23.13 893.36,-21.11 894.37,-28.04"/>
</g>
<!-- 93 -->
<g id="node4" class="node">
<title>93</title>
<ellipse fill="none" stroke="black" cx="1407.1" cy="-90" rx="447.49" ry="18"/>
<text text-anchor="middle" x="1407.1" y="-84.95" font-family="Times,serif" font-size="14.00">93: difficulty of distinguishing between varieties and species ; origin of domestic varieties from one or more species </text>
</g>
<!-- 93&#45;&gt;ends -->
<g id="edge3" class="edge">
<title>93&#45;&gt;ends</title>
<path fill="none" stroke="black" d="M1292.72,-72.14C1188.14,-56.73 1039.54,-34.83 970.32,-24.63"/>
<polygon fill="black" stroke="black" points="971.03,-21.2 960.63,-23.2 970.01,-28.12 971.03,-21.2"/>
</g>
<!-- 87 -->
<g id="node5" class="node">
<title>87</title>
<ellipse fill="none" stroke="black" cx="1257.1" cy="-162" rx="147.06" ry="18"/>
<text text-anchor="middle" x="1257.1" y="-156.95" font-family="Times,serif" font-size="14.00">87: . character of domestic varieties </text>
</g>
<!-- 87&#45;&gt;93 -->
<g id="edge4" class="edge">
<title>87&#45;&gt;93</title>
<path fill="none" stroke="black" d="M1293.03,-144.23C1312.99,-134.92 1338.07,-123.21 1359.63,-113.15"/>
<polygon fill="black" stroke="black" points="1360.94,-116.4 1368.52,-109 1357.98,-110.06 1360.94,-116.4"/>
</g>
<!-- starts -->
<g id="node6" class="node">
<title>starts</title>
<ellipse fill="none" stroke="black" cx="932.1" cy="-234" rx="30.37" ry="18"/>
<text text-anchor="middle" x="932.1" y="-228.95" font-family="Times,serif" font-size="14.00">starts</text>
</g>
<!-- starts&#45;&gt;168 -->
<g id="edge7" class="edge">
<title>starts&#45;&gt;168</title>
<path fill="none" stroke="black" d="M903.68,-226.97C855.67,-216.79 756.77,-195.81 685.29,-180.65"/>
<polygon fill="black" stroke="black" points="686.05,-177.23 675.54,-178.58 684.6,-184.08 686.05,-177.23"/>
</g>
<!-- starts&#45;&gt;ends -->
<g id="edge5" class="edge">
<title>starts&#45;&gt;ends</title>
<path fill="none" stroke="black" d="M932.1,-215.85C932.1,-179.14 932.1,-92.66 932.1,-47.53"/>
<polygon fill="black" stroke="black" points="935.6,-47.75 932.1,-37.75 928.6,-47.75 935.6,-47.75"/>
</g>
<!-- starts&#45;&gt;87 -->
<g id="edge6" class="edge">
<title>starts&#45;&gt;87</title>
<path fill="none" stroke="black" d="M960.37,-226.91C1007.79,-216.7 1105.06,-195.75 1175.33,-180.61"/>
<polygon fill="black" stroke="black" points="1175.85,-184.08 1184.89,-178.55 1174.38,-177.24 1175.85,-184.08"/>
</g>
</g>
</svg>
