<?xml version="1.0" encoding="UTF-8" standalone="no"?>
<!DOCTYPE svg PUBLIC "-//W3C//DTD SVG 1.1//EN"
 "http://www.w3.org/Graphics/SVG/1.1/DTD/svg11.dtd">
<!-- Generated by graphviz version 12.1.2 (20240928.0832)
 -->
<!-- Title: MyGraph Pages: 1 -->
<svg width="2011pt" height="435pt"
 viewBox="0.00 0.00 2010.71 435.00" xmlns="http://www.w3.org/2000/svg" xmlns:xlink="http://www.w3.org/1999/xlink">
<g id="graph0" class="graph" transform="scale(1 1) rotate(0) translate(4 431)">
<title>MyGraph</title>
<polygon fill="white" stroke="none" points="-4,4 -4,-431 2006.71,-431 2006.71,4 -4,4"/>
<!-- Cluster_8_2_reading -->
<g id="node1" class="node">
<title>Cluster_8_2_reading</title>
<polygon fill="none" stroke="black" points="2002.71,-36 257.96,-36 257.96,0 2002.71,0 2002.71,-36"/>
<text text-anchor="middle" x="1130.33" y="-12.95" font-family="Times,serif" font-size="14.00">there is not a shadow of evidence in favour of this view : to assert that we could not breed our cart and race &#45; horses , long and short &#45; horned cattle , and poultry of various breeds , and esculent vegetables , for an unlimited number of generations , would be opposed to all experience . character of domestic varieties </text>
</g>
<!-- Cluster_8_1b_reading -->
<g id="node2" class="node">
<title>Cluster_8_1b_reading</title>
<polygon fill="none" stroke="black" points="1157.33,-90 1103.33,-90 1103.33,-54 1157.33,-54 1157.33,-90"/>
<text text-anchor="middle" x="1130.33" y="-66.95" font-family="Times,serif" font-size="14.00">; </text>
</g>
<!-- Cluster_8_1a_reading -->
<g id="node3" class="node">
<title>Cluster_8_1a_reading</title>
<polygon fill="none" stroke="black" points="1157.33,-144 1103.33,-144 1103.33,-108 1157.33,-108 1157.33,-144"/>
<text text-anchor="middle" x="1130.33" y="-120.95" font-family="Times,serif" font-size="14.00">: </text>
</g>
<!-- Cluster_8_0_reading -->
<g id="node4" class="node">
<title>Cluster_8_0_reading</title>
<polygon fill="none" stroke="black" points="1447.71,-198 812.96,-198 812.96,-162 1447.71,-162 1447.71,-198"/>
<text text-anchor="middle" x="1130.33" y="-174.95" font-family="Times,serif" font-size="14.00">difficulty of distinguishing between varieties and species ; origin of domestic varieties from one or more species </text>
</g>
<!-- Cluster_8_0 -->
<g id="node5" class="node">
<title>Cluster_8_0</title>
<ellipse fill="none" stroke="black" cx="175.72" cy="-180" rx="41.63" ry="18"/>
<text text-anchor="middle" x="175.72" y="-174.95" font-family="Times,serif" font-size="14.00">Group 0</text>
</g>
<!-- Cluster_8_0&#45;&#45;Cluster_8_0_reading -->
<g id="edge4" class="edge">
<title>Cluster_8_0&#45;&#45;Cluster_8_0_reading</title>
<path fill="none" stroke="black" d="M217.66,-180C319.46,-180 591.8,-180 812.5,-180"/>
</g>
<!-- Cluster_8_1a -->
<g id="node6" class="node">
<title>Cluster_8_1a</title>
<ellipse fill="none" stroke="black" cx="175.72" cy="-126" rx="45.72" ry="18"/>
<text text-anchor="middle" x="175.72" y="-120.95" font-family="Times,serif" font-size="14.00">Group 1a</text>
</g>
<!-- Cluster_8_1a&#45;&#45;Cluster_8_1a_reading -->
<g id="edge3" class="edge">
<title>Cluster_8_1a&#45;&#45;Cluster_8_1a_reading</title>
<path fill="none" stroke="black" d="M221.71,-126C388.96,-126 971.99,-126 1103.04,-126"/>
</g>
<!-- Cluster_8_1b -->
<g id="node7" class="node">
<title>Cluster_8_1b</title>
<ellipse fill="none" stroke="black" cx="175.72" cy="-72" rx="46.23" ry="18"/>
<text text-anchor="middle" x="175.72" y="-66.95" font-family="Times,serif" font-size="14.00">Group 1b</text>
</g>
<!-- Cluster_8_1b&#45;&#45;Cluster_8_1b_reading -->
<g id="edge2" class="edge">
<title>Cluster_8_1b&#45;&#45;Cluster_8_1b_reading</title>
<path fill="none" stroke="black" d="M222.35,-72C390.46,-72 972.33,-72 1103.1,-72"/>
</g>
<!-- Cluster_8_2 -->
<g id="node8" class="node">
<title>Cluster_8_2</title>
<ellipse fill="none" stroke="black" cx="175.72" cy="-18" rx="41.63" ry="18"/>
<text text-anchor="middle" x="175.72" y="-12.95" font-family="Times,serif" font-size="14.00">Group 2</text>
</g>
<!-- Cluster_8_2&#45;&#45;Cluster_8_2_reading -->
<g id="edge1" class="edge">
<title>Cluster_8_2&#45;&#45;Cluster_8_2_reading</title>
<path fill="none" stroke="black" d="M217.66,-18C228.96,-18 242.37,-18 257.58,-18"/>
</g>
<!-- Cluster_8 -->
<g id="node9" class="node">
<title>Cluster_8</title>
<ellipse fill="none" stroke="black" cx="46.75" cy="-99" rx="46.75" ry="18"/>
<text text-anchor="middle" x="46.75" y="-93.95" font-family="Times,serif" font-size="14.00">Cluster_8</text>
</g>
<!-- Cluster_8&#45;&#45;Cluster_8_0 -->
<g id="edge8" class="edge">
<title>Cluster_8&#45;&#45;Cluster_8_0</title>
<path fill="none" stroke="black" d="M70.82,-114.65C87.09,-125.58 109.47,-140.42 129.49,-153 136.15,-157.18 143.44,-161.6 150.19,-165.63"/>
</g>
<!-- Cluster_8&#45;&#45;Cluster_8_1a -->
<g id="edge7" class="edge">
<title>Cluster_8&#45;&#45;Cluster_8_1a</title>
<path fill="none" stroke="black" d="M88.27,-107.62C103.22,-110.8 120.14,-114.39 135.02,-117.56"/>
</g>
<!-- Cluster_8&#45;&#45;Cluster_8_1b -->
<g id="edge6" class="edge">
<title>Cluster_8&#45;&#45;Cluster_8_1b</title>
<path fill="none" stroke="black" d="M88.27,-90.38C103.08,-87.23 119.81,-83.68 134.58,-80.54"/>
</g>
<!-- Cluster_8&#45;&#45;Cluster_8_2 -->
<g id="edge5" class="edge">
<title>Cluster_8&#45;&#45;Cluster_8_2</title>
<path fill="none" stroke="black" d="M70.82,-83.35C87.09,-72.42 109.47,-57.58 129.49,-45 136.15,-40.82 143.44,-36.4 150.19,-32.37"/>
</g>
<!-- Cluster_7_22_reading -->
<g id="node10" class="node">
<title>Cluster_7_22_reading</title>
<polygon fill="none" stroke="black" points="1475.83,-252 784.83,-252 784.83,-216 1475.83,-216 1475.83,-252"/>
<text text-anchor="middle" x="1130.33" y="-228.95" font-family="Times,serif" font-size="14.00">natural selection , as will hereafter be explained , will determine how far the new characters thus arising shall be preserved </text>
</g>
<!-- Cluster_7_22 -->
<g id="node11" class="node">
<title>Cluster_7_22</title>
<ellipse fill="none" stroke="black" cx="175.72" cy="-234" rx="46.23" ry="18"/>
<text text-anchor="middle" x="175.72" y="-228.95" font-family="Times,serif" font-size="14.00">Group 22</text>
</g>
<!-- Cluster_7_22&#45;&#45;Cluster_7_22_reading -->
<g id="edge9" class="edge">
<title>Cluster_7_22&#45;&#45;Cluster_7_22_reading</title>
<path fill="none" stroke="black" d="M222.35,-234C323.13,-234 572.62,-234 784.47,-234"/>
</g>
<!-- Cluster_7 -->
<g id="node12" class="node">
<title>Cluster_7</title>
<ellipse fill="none" stroke="black" cx="46.75" cy="-234" rx="46.75" ry="18"/>
<text text-anchor="middle" x="46.75" y="-228.95" font-family="Times,serif" font-size="14.00">Cluster_7</text>
</g>
<!-- Cluster_7&#45;&#45;Cluster_7_22 -->
<g id="edge10" class="edge">
<title>Cluster_7&#45;&#45;Cluster_7_22</title>
<path fill="none" stroke="black" d="M93.95,-234C105.43,-234 117.74,-234 129.19,-234"/>
</g>
<!-- Cluster_9_87_reading -->
<g id="node13" class="node">
<title>Cluster_9_87_reading</title>
<polygon fill="none" stroke="black" points="1540.71,-319 719.96,-319 719.96,-283 1540.71,-283 1540.71,-319"/>
<text text-anchor="middle" x="1130.33" y="-295.95" font-family="Times,serif" font-size="14.00">. character of domestic varieties ; difficulty of distinguishing between varieties and species ; origin of domestic varieties from one or more species </text>
</g>
<!-- Cluster_9_22_reading -->
<g id="node14" class="node">
<title>Cluster_9_22_reading</title>
<polygon fill="none" stroke="black" points="1475.83,-373 784.83,-373 784.83,-337 1475.83,-337 1475.83,-373"/>
<text text-anchor="middle" x="1130.33" y="-349.95" font-family="Times,serif" font-size="14.00">natural selection , as will hereafter be explained , will determine how far the new characters thus arising shall be preserved </text>
</g>
<!-- Cluster_9_22 -->
<g id="node15" class="node">
<title>Cluster_9_22</title>
<ellipse fill="none" stroke="black" cx="175.72" cy="-355" rx="46.23" ry="18"/>
<text text-anchor="middle" x="175.72" y="-349.95" font-family="Times,serif" font-size="14.00">Group 22</text>
</g>
<!-- Cluster_9_22&#45;&#45;Cluster_9_22_reading -->
<g id="edge12" class="edge">
<title>Cluster_9_22&#45;&#45;Cluster_9_22_reading</title>
<path fill="none" stroke="black" d="M222.35,-355C323.13,-355 572.62,-355 784.47,-355"/>
</g>
<!-- Cluster_9_87 -->
<g id="node16" class="node">
<title>Cluster_9_87</title>
<ellipse fill="none" stroke="black" cx="175.72" cy="-301" rx="46.23" ry="18"/>
<text text-anchor="middle" x="175.72" y="-295.95" font-family="Times,serif" font-size="14.00">Group 87</text>
</g>
<!-- Cluster_9_87&#45;&#45;Cluster_9_87_reading -->
<g id="edge11" class="edge">
<title>Cluster_9_87&#45;&#45;Cluster_9_87_reading</title>
<path fill="none" stroke="black" d="M222.35,-301C312.99,-301 523.89,-301 719.53,-301"/>
</g>
<!-- Cluster_9 -->
<g id="node17" class="node">
<title>Cluster_9</title>
<ellipse fill="none" stroke="black" cx="46.75" cy="-315" rx="46.75" ry="18"/>
<text text-anchor="middle" x="46.75" y="-309.95" font-family="Times,serif" font-size="14.00">Cluster_9</text>
</g>
<!-- Cluster_9&#45;&#45;Cluster_9_22 -->
<g id="edge14" class="edge">
<title>Cluster_9&#45;&#45;Cluster_9_22</title>
<path fill="none" stroke="black" d="M83.79,-326.36C101.1,-331.81 121.77,-338.32 139.03,-343.75"/>
</g>
<!-- Cluster_9&#45;&#45;Cluster_9_87 -->
<g id="edge13" class="edge">
<title>Cluster_9&#45;&#45;Cluster_9_87</title>
<path fill="none" stroke="black" d="M92.16,-310.1C104.74,-308.72 118.43,-307.21 130.98,-305.82"/>
</g>
<!-- Cluster_6_0_reading -->
<g id="node18" class="node">
<title>Cluster_6_0_reading</title>
<polygon fill="none" stroke="black" points="1475.83,-427 784.83,-427 784.83,-391 1475.83,-391 1475.83,-427"/>
<text text-anchor="middle" x="1130.33" y="-403.95" font-family="Times,serif" font-size="14.00">natural selection , as will hereafter be explained , will determine how far the new characters thus arising shall be preserved </text>
</g>
<!-- Cluster_6_0 -->
<g id="node19" class="node">
<title>Cluster_6_0</title>
<ellipse fill="none" stroke="black" cx="175.72" cy="-409" rx="41.63" ry="18"/>
<text text-anchor="middle" x="175.72" y="-403.95" font-family="Times,serif" font-size="14.00">Group 0</text>
</g>
<!-- Cluster_6_0&#45;&#45;Cluster_6_0_reading -->
<g id="edge15" class="edge">
<title>Cluster_6_0&#45;&#45;Cluster_6_0_reading</title>
<path fill="none" stroke="black" d="M217.66,-409C315.19,-409 569.24,-409 784.45,-409"/>
</g>
<!-- Cluster_6 -->
<g id="node20" class="node">
<title>Cluster_6</title>
<ellipse fill="none" stroke="black" cx="46.75" cy="-409" rx="46.75" ry="18"/>
<text text-anchor="middle" x="46.75" y="-403.95" font-family="Times,serif" font-size="14.00">Cluster_6</text>
</g>
<!-- Cluster_6&#45;&#45;Cluster_6_0 -->
<g id="edge16" class="edge">
<title>Cluster_6&#45;&#45;Cluster_6_0</title>
<path fill="none" stroke="black" d="M93.95,-409C106.99,-409 121.1,-409 133.81,-409"/>
</g>
</g>
</svg>
