<?xml version="1.0" encoding="UTF-8" standalone="no"?>
<!DOCTYPE svg PUBLIC "-//W3C//DTD SVG 1.1//EN"
 "http://www.w3.org/Graphics/SVG/1.1/DTD/svg11.dtd">
<!-- Generated by graphviz version 12.2.1 (20241206.2353)
 -->
<!-- Title: MyGraph Pages: 1 -->
<svg width="2029pt" height="800pt"
 viewBox="0.00 0.00 2029.13 800.00" xmlns="http://www.w3.org/2000/svg" xmlns:xlink="http://www.w3.org/1999/xlink">
<g id="graph0" class="graph" transform="scale(1 1) rotate(0) translate(4 796)">
<title>MyGraph</title>
<polygon fill="white" stroke="none" points="-4,4 -4,-796 2025.13,-796 2025.13,4 -4,4"/>
<!-- Cluster_8_254_reading -->
<g id="node1" class="node">
<title>Cluster_8_254_reading</title>
<polygon fill="none" stroke="black" points="1175.76,-36 1121.76,-36 1121.76,0 1175.76,0 1175.76,-36"/>
<text text-anchor="middle" x="1148.76" y="-12.95" font-family="Times,serif" font-size="14.00">: </text>
</g>
<!-- Cluster_8_174_reading -->
<g id="node2" class="node">
<title>Cluster_8_174_reading</title>
<polygon fill="none" stroke="black" points="1466.13,-90 831.38,-90 831.38,-54 1466.13,-54 1466.13,-90"/>
<text text-anchor="middle" x="1148.76" y="-66.95" font-family="Times,serif" font-size="14.00">difficulty of distinguishing between varieties and species ; origin of domestic varieties from one or more species </text>
</g>
<!-- Cluster_8_173_reading -->
<g id="node3" class="node">
<title>Cluster_8_173_reading</title>
<polygon fill="none" stroke="black" points="1175.76,-144 1121.76,-144 1121.76,-108 1175.76,-108 1175.76,-144"/>
<text text-anchor="middle" x="1148.76" y="-120.95" font-family="Times,serif" font-size="14.00">; </text>
</g>
<!-- Cluster_8_111_reading -->
<g id="node4" class="node">
<title>Cluster_8_111_reading</title>
<polygon fill="none" stroke="black" points="2021.13,-198 276.38,-198 276.38,-162 2021.13,-162 2021.13,-198"/>
<text text-anchor="middle" x="1148.76" y="-174.95" font-family="Times,serif" font-size="14.00">there is not a shadow of evidence in favour of this view : to assert that we could not breed our cart and race &#45; horses , long and short &#45; horned cattle , and poultry of various breeds , and esculent vegetables , for an unlimited number of generations , would be opposed to all experience . character of domestic varieties </text>
</g>
<!-- Cluster_8_111 -->
<g id="node5" class="node">
<title>Cluster_8_111</title>
<ellipse fill="none" stroke="black" cx="189.54" cy="-180" rx="50.84" ry="18"/>
<text text-anchor="middle" x="189.54" y="-174.95" font-family="Times,serif" font-size="14.00">Group 111</text>
</g>
<!-- Cluster_8_111&#45;&#45;Cluster_8_111_reading -->
<g id="edge4" class="edge">
<title>Cluster_8_111&#45;&#45;Cluster_8_111_reading</title>
<path fill="none" stroke="black" d="M240.66,-180C251.04,-180 262.86,-180 275.92,-180"/>
</g>
<!-- Cluster_8_173 -->
<g id="node6" class="node">
<title>Cluster_8_173</title>
<ellipse fill="none" stroke="black" cx="189.54" cy="-126" rx="50.84" ry="18"/>
<text text-anchor="middle" x="189.54" y="-120.95" font-family="Times,serif" font-size="14.00">Group 173</text>
</g>
<!-- Cluster_8_173&#45;&#45;Cluster_8_173_reading -->
<g id="edge3" class="edge">
<title>Cluster_8_173&#45;&#45;Cluster_8_173_reading</title>
<path fill="none" stroke="black" d="M240.66,-126C414.92,-126 990.91,-126 1121.34,-126"/>
</g>
<!-- Cluster_8_174 -->
<g id="node7" class="node">
<title>Cluster_8_174</title>
<ellipse fill="none" stroke="black" cx="189.54" cy="-72" rx="50.84" ry="18"/>
<text text-anchor="middle" x="189.54" y="-66.95" font-family="Times,serif" font-size="14.00">Group 174</text>
</g>
<!-- Cluster_8_174&#45;&#45;Cluster_8_174_reading -->
<g id="edge2" class="edge">
<title>Cluster_8_174&#45;&#45;Cluster_8_174_reading</title>
<path fill="none" stroke="black" d="M240.66,-72C349.52,-72 615.17,-72 831.03,-72"/>
</g>
<!-- Cluster_8_254 -->
<g id="node8" class="node">
<title>Cluster_8_254</title>
<ellipse fill="none" stroke="black" cx="189.54" cy="-18" rx="50.84" ry="18"/>
<text text-anchor="middle" x="189.54" y="-12.95" font-family="Times,serif" font-size="14.00">Group 254</text>
</g>
<!-- Cluster_8_254&#45;&#45;Cluster_8_254_reading -->
<g id="edge1" class="edge">
<title>Cluster_8_254&#45;&#45;Cluster_8_254_reading</title>
<path fill="none" stroke="black" d="M240.66,-18C414.92,-18 990.91,-18 1121.34,-18"/>
</g>
<!-- Cluster_8 -->
<g id="node9" class="node">
<title>Cluster_8</title>
<ellipse fill="none" stroke="black" cx="51.35" cy="-99" rx="46.75" ry="18"/>
<text text-anchor="middle" x="51.35" y="-93.95" font-family="Times,serif" font-size="14.00">Cluster_8</text>
</g>
<!-- Cluster_8&#45;&#45;Cluster_8_111 -->
<g id="edge8" class="edge">
<title>Cluster_8&#45;&#45;Cluster_8_111</title>
<path fill="none" stroke="black" d="M76.3,-114.54C93.5,-125.55 117.32,-140.54 138.7,-153 145.59,-157.01 153.11,-161.19 160.17,-165.03"/>
</g>
<!-- Cluster_8&#45;&#45;Cluster_8_173 -->
<g id="edge7" class="edge">
<title>Cluster_8&#45;&#45;Cluster_8_173</title>
<path fill="none" stroke="black" d="M93.58,-107.17C109.71,-110.37 128.23,-114.04 144.61,-117.29"/>
</g>
<!-- Cluster_8&#45;&#45;Cluster_8_174 -->
<g id="edge6" class="edge">
<title>Cluster_8&#45;&#45;Cluster_8_174</title>
<path fill="none" stroke="black" d="M93.58,-90.83C109.71,-87.63 128.23,-83.96 144.61,-80.71"/>
</g>
<!-- Cluster_8&#45;&#45;Cluster_8_254 -->
<g id="edge5" class="edge">
<title>Cluster_8&#45;&#45;Cluster_8_254</title>
<path fill="none" stroke="black" d="M76.3,-83.46C93.5,-72.45 117.32,-57.46 138.7,-45 145.59,-40.99 153.11,-36.81 160.17,-32.97"/>
</g>
<!-- Cluster_7_0_reading -->
<g id="node10" class="node">
<title>Cluster_7_0_reading</title>
<polygon fill="none" stroke="black" points="1494.26,-252 803.26,-252 803.26,-216 1494.26,-216 1494.26,-252"/>
<text text-anchor="middle" x="1148.76" y="-228.95" font-family="Times,serif" font-size="14.00">natural selection , as will hereafter be explained , will determine how far the new characters thus arising shall be preserved </text>
</g>
<!-- Cluster_7_0 -->
<g id="node11" class="node">
<title>Cluster_7_0</title>
<ellipse fill="none" stroke="black" cx="189.54" cy="-234" rx="41.63" ry="18"/>
<text text-anchor="middle" x="189.54" y="-228.95" font-family="Times,serif" font-size="14.00">Group 0</text>
</g>
<!-- Cluster_7_0&#45;&#45;Cluster_7_0_reading -->
<g id="edge9" class="edge">
<title>Cluster_7_0&#45;&#45;Cluster_7_0_reading</title>
<path fill="none" stroke="black" d="M231.37,-234C329.41,-234 586.11,-234 802.97,-234"/>
</g>
<!-- Cluster_7 -->
<g id="node12" class="node">
<title>Cluster_7</title>
<ellipse fill="none" stroke="black" cx="51.35" cy="-234" rx="46.75" ry="18"/>
<text text-anchor="middle" x="51.35" y="-228.95" font-family="Times,serif" font-size="14.00">Cluster_7</text>
</g>
<!-- Cluster_7&#45;&#45;Cluster_7_0 -->
<g id="edge10" class="edge">
<title>Cluster_7&#45;&#45;Cluster_7_0</title>
<path fill="none" stroke="black" d="M98.46,-234C114.36,-234 132.04,-234 147.51,-234"/>
</g>
<!-- Cluster_9_87_reading -->
<g id="node13" class="node">
<title>Cluster_9_87_reading</title>
<polygon fill="none" stroke="black" points="1494.26,-306 803.26,-306 803.26,-270 1494.26,-270 1494.26,-306"/>
<text text-anchor="middle" x="1148.76" y="-282.95" font-family="Times,serif" font-size="14.00">natural selection , as will hereafter be explained , will determine how far the new characters thus arising shall be preserved </text>
</g>
<!-- Cluster_9_0_reading -->
<g id="node14" class="node">
<title>Cluster_9_0_reading</title>
<polygon fill="none" stroke="black" points="1559.13,-360 738.38,-360 738.38,-324 1559.13,-324 1559.13,-360"/>
<text text-anchor="middle" x="1148.76" y="-336.95" font-family="Times,serif" font-size="14.00">. character of domestic varieties ; difficulty of distinguishing between varieties and species ; origin of domestic varieties from one or more species </text>
</g>
<!-- Cluster_9_0 -->
<g id="node15" class="node">
<title>Cluster_9_0</title>
<ellipse fill="none" stroke="black" cx="189.54" cy="-342" rx="41.63" ry="18"/>
<text text-anchor="middle" x="189.54" y="-336.95" font-family="Times,serif" font-size="14.00">Group 0</text>
</g>
<!-- Cluster_9_0&#45;&#45;Cluster_9_0_reading -->
<g id="edge12" class="edge">
<title>Cluster_9_0&#45;&#45;Cluster_9_0_reading</title>
<path fill="none" stroke="black" d="M231.37,-342C319.78,-342 537.19,-342 738.07,-342"/>
</g>
<!-- Cluster_9_87 -->
<g id="node16" class="node">
<title>Cluster_9_87</title>
<ellipse fill="none" stroke="black" cx="189.54" cy="-288" rx="46.23" ry="18"/>
<text text-anchor="middle" x="189.54" y="-282.95" font-family="Times,serif" font-size="14.00">Group 87</text>
</g>
<!-- Cluster_9_87&#45;&#45;Cluster_9_87_reading -->
<g id="edge11" class="edge">
<title>Cluster_9_87&#45;&#45;Cluster_9_87_reading</title>
<path fill="none" stroke="black" d="M236.07,-288C337.4,-288 589.5,-288 802.97,-288"/>
</g>
<!-- Cluster_9 -->
<g id="node17" class="node">
<title>Cluster_9</title>
<ellipse fill="none" stroke="black" cx="51.35" cy="-315" rx="46.75" ry="18"/>
<text text-anchor="middle" x="51.35" y="-309.95" font-family="Times,serif" font-size="14.00">Cluster_9</text>
</g>
<!-- Cluster_9&#45;&#45;Cluster_9_0 -->
<g id="edge14" class="edge">
<title>Cluster_9&#45;&#45;Cluster_9_0</title>
<path fill="none" stroke="black" d="M93.58,-323.17C111.9,-326.81 133.31,-331.05 151.16,-334.59"/>
</g>
<!-- Cluster_9&#45;&#45;Cluster_9_87 -->
<g id="edge13" class="edge">
<title>Cluster_9&#45;&#45;Cluster_9_87</title>
<path fill="none" stroke="black" d="M93.58,-306.83C110.81,-303.41 130.76,-299.46 147.92,-296.05"/>
</g>
<!-- Cluster_6_0_reading -->
<g id="node18" class="node">
<title>Cluster_6_0_reading</title>
<polygon fill="none" stroke="black" points="1494.26,-414 803.26,-414 803.26,-378 1494.26,-378 1494.26,-414"/>
<text text-anchor="middle" x="1148.76" y="-390.95" font-family="Times,serif" font-size="14.00">natural selection , as will hereafter be explained , will determine how far the new characters thus arising shall be preserved </text>
</g>
<!-- Cluster_6_0 -->
<g id="node19" class="node">
<title>Cluster_6_0</title>
<ellipse fill="none" stroke="black" cx="189.54" cy="-396" rx="41.63" ry="18"/>
<text text-anchor="middle" x="189.54" y="-390.95" font-family="Times,serif" font-size="14.00">Group 0</text>
</g>
<!-- Cluster_6_0&#45;&#45;Cluster_6_0_reading -->
<g id="edge15" class="edge">
<title>Cluster_6_0&#45;&#45;Cluster_6_0_reading</title>
<path fill="none" stroke="black" d="M231.37,-396C329.41,-396 586.11,-396 802.97,-396"/>
</g>
<!-- Cluster_6 -->
<g id="node20" class="node">
<title>Cluster_6</title>
<ellipse fill="none" stroke="black" cx="51.35" cy="-396" rx="46.75" ry="18"/>
<text text-anchor="middle" x="51.35" y="-390.95" font-family="Times,serif" font-size="14.00">Cluster_6</text>
</g>
<!-- Cluster_6&#45;&#45;Cluster_6_0 -->
<g id="edge16" class="edge">
<title>Cluster_6&#45;&#45;Cluster_6_0</title>
<path fill="none" stroke="black" d="M98.46,-396C114.36,-396 132.04,-396 147.51,-396"/>
</g>
<!-- Cluster_10_93_reading -->
<g id="node21" class="node">
<title>Cluster_10_93_reading</title>
<polygon fill="none" stroke="black" points="1175.76,-468 1121.76,-468 1121.76,-432 1175.76,-432 1175.76,-468"/>
<text text-anchor="middle" x="1148.76" y="-444.95" font-family="Times,serif" font-size="14.00">: </text>
</g>
<!-- Cluster_10_92_reading -->
<g id="node22" class="node">
<title>Cluster_10_92_reading</title>
<polygon fill="none" stroke="black" points="1175.76,-522 1121.76,-522 1121.76,-486 1175.76,-486 1175.76,-522"/>
<text text-anchor="middle" x="1148.76" y="-498.95" font-family="Times,serif" font-size="14.00">; </text>
</g>
<!-- Cluster_10_254_reading -->
<g id="node23" class="node">
<title>Cluster_10_254_reading</title>
<polygon fill="none" stroke="black" points="1246.01,-576 1051.51,-576 1051.51,-540 1246.01,-540 1246.01,-576"/>
<text text-anchor="middle" x="1148.76" y="-552.95" font-family="Times,serif" font-size="14.00">. character of domestic varieties </text>
</g>
<!-- Cluster_10_173_reading -->
<g id="node24" class="node">
<title>Cluster_10_173_reading</title>
<polygon fill="none" stroke="black" points="1931.88,-630 365.63,-630 365.63,-594 1931.88,-594 1931.88,-630"/>
<text text-anchor="middle" x="1148.76" y="-606.95" font-family="Times,serif" font-size="14.00">there is not a shadow of evidence in favour of this view : to assert that we could not breed our cart and race &#45; horses , long and short &#45; horned cattle , and poultry of various breeds , and esculent vegetables , for an unlimited number of generations , would be opposed to all experience </text>
</g>
<!-- Cluster_10_168_reading -->
<g id="node25" class="node">
<title>Cluster_10_168_reading</title>
<polygon fill="none" stroke="black" points="1466.13,-684 831.38,-684 831.38,-648 1466.13,-648 1466.13,-684"/>
<text text-anchor="middle" x="1148.76" y="-660.95" font-family="Times,serif" font-size="14.00">difficulty of distinguishing between varieties and species ; origin of domestic varieties from one or more species </text>
</g>
<!-- Cluster_10_111_reading -->
<g id="node26" class="node">
<title>Cluster_10_111_reading</title>
<polygon fill="none" stroke="black" points="1175.76,-738 1121.76,-738 1121.76,-702 1175.76,-702 1175.76,-738"/>
<text text-anchor="middle" x="1148.76" y="-714.95" font-family="Times,serif" font-size="14.00">; </text>
</g>
<!-- Cluster_10_0_reading -->
<g id="node27" class="node">
<title>Cluster_10_0_reading</title>
<polygon fill="none" stroke="black" points="1494.26,-792 803.26,-792 803.26,-756 1494.26,-756 1494.26,-792"/>
<text text-anchor="middle" x="1148.76" y="-768.95" font-family="Times,serif" font-size="14.00">natural selection , as will hereafter be explained , will determine how far the new characters thus arising shall be preserved </text>
</g>
<!-- Cluster_10_0 -->
<g id="node28" class="node">
<title>Cluster_10_0</title>
<ellipse fill="none" stroke="black" cx="189.54" cy="-774" rx="41.63" ry="18"/>
<text text-anchor="middle" x="189.54" y="-768.95" font-family="Times,serif" font-size="14.00">Group 0</text>
</g>
<!-- Cluster_10_0&#45;&#45;Cluster_10_0_reading -->
<g id="edge23" class="edge">
<title>Cluster_10_0&#45;&#45;Cluster_10_0_reading</title>
<path fill="none" stroke="black" d="M231.37,-774C329.41,-774 586.11,-774 802.97,-774"/>
</g>
<!-- Cluster_10_111 -->
<g id="node29" class="node">
<title>Cluster_10_111</title>
<ellipse fill="none" stroke="black" cx="189.54" cy="-720" rx="50.84" ry="18"/>
<text text-anchor="middle" x="189.54" y="-714.95" font-family="Times,serif" font-size="14.00">Group 111</text>
</g>
<!-- Cluster_10_111&#45;&#45;Cluster_10_111_reading -->
<g id="edge22" class="edge">
<title>Cluster_10_111&#45;&#45;Cluster_10_111_reading</title>
<path fill="none" stroke="black" d="M240.66,-720C414.92,-720 990.91,-720 1121.34,-720"/>
</g>
<!-- Cluster_10_168 -->
<g id="node30" class="node">
<title>Cluster_10_168</title>
<ellipse fill="none" stroke="black" cx="189.54" cy="-666" rx="50.84" ry="18"/>
<text text-anchor="middle" x="189.54" y="-660.95" font-family="Times,serif" font-size="14.00">Group 168</text>
</g>
<!-- Cluster_10_168&#45;&#45;Cluster_10_168_reading -->
<g id="edge21" class="edge">
<title>Cluster_10_168&#45;&#45;Cluster_10_168_reading</title>
<path fill="none" stroke="black" d="M240.66,-666C349.52,-666 615.17,-666 831.03,-666"/>
</g>
<!-- Cluster_10_173 -->
<g id="node31" class="node">
<title>Cluster_10_173</title>
<ellipse fill="none" stroke="black" cx="189.54" cy="-612" rx="50.84" ry="18"/>
<text text-anchor="middle" x="189.54" y="-606.95" font-family="Times,serif" font-size="14.00">Group 173</text>
</g>
<!-- Cluster_10_173&#45;&#45;Cluster_10_173_reading -->
<g id="edge20" class="edge">
<title>Cluster_10_173&#45;&#45;Cluster_10_173_reading</title>
<path fill="none" stroke="black" d="M240.66,-612C271.34,-612 314.47,-612 365.42,-612"/>
</g>
<!-- Cluster_10_254 -->
<g id="node32" class="node">
<title>Cluster_10_254</title>
<ellipse fill="none" stroke="black" cx="189.54" cy="-558" rx="50.84" ry="18"/>
<text text-anchor="middle" x="189.54" y="-552.95" font-family="Times,serif" font-size="14.00">Group 254</text>
</g>
<!-- Cluster_10_254&#45;&#45;Cluster_10_254_reading -->
<g id="edge19" class="edge">
<title>Cluster_10_254&#45;&#45;Cluster_10_254_reading</title>
<path fill="none" stroke="black" d="M240.66,-558C392.61,-558 850,-558 1051.11,-558"/>
</g>
<!-- Cluster_10_92 -->
<g id="node33" class="node">
<title>Cluster_10_92</title>
<ellipse fill="none" stroke="black" cx="189.54" cy="-504" rx="46.23" ry="18"/>
<text text-anchor="middle" x="189.54" y="-498.95" font-family="Times,serif" font-size="14.00">Group 92</text>
</g>
<!-- Cluster_10_92&#45;&#45;Cluster_10_92_reading -->
<g id="edge18" class="edge">
<title>Cluster_10_92&#45;&#45;Cluster_10_92_reading</title>
<path fill="none" stroke="black" d="M236.07,-504C404.56,-504 989.83,-504 1121.37,-504"/>
</g>
<!-- Cluster_10_93 -->
<g id="node34" class="node">
<title>Cluster_10_93</title>
<ellipse fill="none" stroke="black" cx="189.54" cy="-450" rx="46.23" ry="18"/>
<text text-anchor="middle" x="189.54" y="-444.95" font-family="Times,serif" font-size="14.00">Group 93</text>
</g>
<!-- Cluster_10_93&#45;&#45;Cluster_10_93_reading -->
<g id="edge17" class="edge">
<title>Cluster_10_93&#45;&#45;Cluster_10_93_reading</title>
<path fill="none" stroke="black" d="M236.07,-450C404.56,-450 989.83,-450 1121.37,-450"/>
</g>
<!-- Cluster_10 -->
<g id="node35" class="node">
<title>Cluster_10</title>
<ellipse fill="none" stroke="black" cx="51.35" cy="-612" rx="51.35" ry="18"/>
<text text-anchor="middle" x="51.35" y="-606.95" font-family="Times,serif" font-size="14.00">Cluster_10</text>
</g>
<!-- Cluster_10&#45;&#45;Cluster_10_0 -->
<g id="edge30" class="edge">
<title>Cluster_10&#45;&#45;Cluster_10_0</title>
<path fill="none" stroke="black" d="M60.32,-630.21C73.31,-658.24 101.42,-712.33 138.7,-747 144.68,-752.56 152.03,-757.36 159.22,-761.29"/>
</g>
<!-- Cluster_10&#45;&#45;Cluster_10_111 -->
<g id="edge29" class="edge">
<title>Cluster_10&#45;&#45;Cluster_10_111</title>
<path fill="none" stroke="black" d="M68.11,-629.19C84.63,-646.59 111.86,-673.64 138.7,-693 144.85,-697.43 151.81,-701.64 158.53,-705.36"/>
</g>
<!-- Cluster_10&#45;&#45;Cluster_10_168 -->
<g id="edge28" class="edge">
<title>Cluster_10&#45;&#45;Cluster_10_168</title>
<path fill="none" stroke="black" d="M86.37,-625.49C107.17,-633.73 133.68,-644.25 154.49,-652.5"/>
</g>
<!-- Cluster_10&#45;&#45;Cluster_10_173 -->
<g id="edge27" class="edge">
<title>Cluster_10&#45;&#45;Cluster_10_173</title>
<path fill="none" stroke="black" d="M103.06,-612C114.56,-612 126.76,-612 138.24,-612"/>
</g>
<!-- Cluster_10&#45;&#45;Cluster_10_254 -->
<g id="edge26" class="edge">
<title>Cluster_10&#45;&#45;Cluster_10_254</title>
<path fill="none" stroke="black" d="M86.37,-598.51C107.17,-590.27 133.68,-579.75 154.49,-571.5"/>
</g>
<!-- Cluster_10&#45;&#45;Cluster_10_92 -->
<g id="edge25" class="edge">
<title>Cluster_10&#45;&#45;Cluster_10_92</title>
<path fill="none" stroke="black" d="M68.11,-594.81C84.63,-577.41 111.86,-550.36 138.7,-531 145.17,-526.34 152.53,-521.92 159.58,-518.06"/>
</g>
<!-- Cluster_10&#45;&#45;Cluster_10_93 -->
<g id="edge24" class="edge">
<title>Cluster_10&#45;&#45;Cluster_10_93</title>
<path fill="none" stroke="black" d="M60.32,-593.79C73.31,-565.76 101.42,-511.67 138.7,-477 144.32,-471.77 151.15,-467.22 157.92,-463.43"/>
</g>
</g>
</svg>
