<?xml version="1.0" encoding="UTF-8" standalone="no"?>
<!DOCTYPE svg PUBLIC "-//W3C//DTD SVG 1.1//EN"
 "http://www.w3.org/Graphics/SVG/1.1/DTD/svg11.dtd">
<!-- Generated by graphviz version 12.1.1 (20240910.0053)
 -->
<!-- Title: MyGraph Pages: 1 -->
<svg width="200pt" height="260pt"
 viewBox="0.00 0.00 200.27 260.00" xmlns="http://www.w3.org/2000/svg" xmlns:xlink="http://www.w3.org/1999/xlink">
<g id="graph0" class="graph" transform="scale(1 1) rotate(0) translate(4 256)">
<title>MyGraph</title>
<polygon fill="white" stroke="none" points="-4,4 -4,-256 196.27,-256 196.27,4 -4,4"/>
<!-- AP_2 -->
<g id="node1" class="node">
<title>AP_2</title>
<ellipse fill="none" stroke="black" cx="31.9" cy="-99" rx="31.9" ry="18"/>
<text text-anchor="middle" x="31.9" y="-93.95" font-family="Times,serif" font-size="14.00">AP_2</text>
</g>
<!-- AP_2_0 -->
<g id="node2" class="node">
<title>AP_2_0</title>
<ellipse fill="none" stroke="black" cx="146.04" cy="-180" rx="41.63" ry="18"/>
<text text-anchor="middle" x="146.04" y="-174.95" font-family="Times,serif" font-size="14.00">Group 0</text>
</g>
<!-- AP_2&#45;&#45;AP_2_0 -->
<g id="edge1" class="edge">
<title>AP_2&#45;&#45;AP_2_0</title>
<path fill="none" stroke="black" d="M50.26,-114.14C63.47,-125.38 82.29,-140.8 99.81,-153 106.11,-157.39 113.15,-161.81 119.76,-165.76"/>
</g>
<!-- AP_2_1a -->
<g id="node3" class="node">
<title>AP_2_1a</title>
<ellipse fill="none" stroke="black" cx="146.04" cy="-126" rx="45.72" ry="18"/>
<text text-anchor="middle" x="146.04" y="-120.95" font-family="Times,serif" font-size="14.00">Group 1a</text>
</g>
<!-- AP_2&#45;&#45;AP_2_1a -->
<g id="edge2" class="edge">
<title>AP_2&#45;&#45;AP_2_1a</title>
<path fill="none" stroke="black" d="M61.78,-105.95C75.41,-109.23 91.86,-113.2 106.53,-116.73"/>
</g>
<!-- AP_2_1b -->
<g id="node4" class="node">
<title>AP_2_1b</title>
<ellipse fill="none" stroke="black" cx="146.04" cy="-72" rx="46.23" ry="18"/>
<text text-anchor="middle" x="146.04" y="-66.95" font-family="Times,serif" font-size="14.00">Group 1b</text>
</g>
<!-- AP_2&#45;&#45;AP_2_1b -->
<g id="edge3" class="edge">
<title>AP_2&#45;&#45;AP_2_1b</title>
<path fill="none" stroke="black" d="M61.78,-92.05C75.28,-88.8 91.55,-84.88 106.11,-81.37"/>
</g>
<!-- AP_2_2 -->
<g id="node5" class="node">
<title>AP_2_2</title>
<ellipse fill="none" stroke="black" cx="146.04" cy="-18" rx="41.63" ry="18"/>
<text text-anchor="middle" x="146.04" y="-12.95" font-family="Times,serif" font-size="14.00">Group 2</text>
</g>
<!-- AP_2&#45;&#45;AP_2_2 -->
<g id="edge4" class="edge">
<title>AP_2&#45;&#45;AP_2_2</title>
<path fill="none" stroke="black" d="M50.26,-83.86C63.47,-72.62 82.29,-57.2 99.81,-45 106.11,-40.61 113.15,-36.19 119.76,-32.24"/>
</g>
<!-- AP_0 -->
<g id="node6" class="node">
<title>AP_0</title>
<ellipse fill="none" stroke="black" cx="31.9" cy="-234" rx="31.9" ry="18"/>
<text text-anchor="middle" x="31.9" y="-228.95" font-family="Times,serif" font-size="14.00">AP_0</text>
</g>
<!-- AP_0_0 -->
<g id="node7" class="node">
<title>AP_0_0</title>
<ellipse fill="none" stroke="black" cx="146.04" cy="-234" rx="41.63" ry="18"/>
<text text-anchor="middle" x="146.04" y="-228.95" font-family="Times,serif" font-size="14.00">Group 0</text>
</g>
<!-- AP_0&#45;&#45;AP_0_0 -->
<g id="edge5" class="edge">
<title>AP_0&#45;&#45;AP_0_0</title>
<path fill="none" stroke="black" d="M64.14,-234C76.58,-234 91.07,-234 104.32,-234"/>
</g>
</g>
</svg>
