<?xml version="1.0" encoding="UTF-8" standalone="no"?>
<!DOCTYPE svg PUBLIC "-//W3C//DTD SVG 1.1//EN"
 "http://www.w3.org/Graphics/SVG/1.1/DTD/svg11.dtd">
<!-- Generated by graphviz version 12.1.1 (20240910.0053)
 -->
<!-- Title: MyGraph Pages: 1 -->
<svg width="1981pt" height="435pt"
 viewBox="0.00 0.00 1981.02 435.00" xmlns="http://www.w3.org/2000/svg" xmlns:xlink="http://www.w3.org/1999/xlink">
<g id="graph0" class="graph" transform="scale(1 1) rotate(0) translate(4 431)">
<title>MyGraph</title>
<polygon fill="white" stroke="none" points="-4,4 -4,-431 1977.02,-431 1977.02,4 -4,4"/>
<!-- AP_8_2_reading -->
<g id="node1" class="node">
<title>AP_8_2_reading</title>
<polygon fill="none" stroke="black" points="1973.02,-36 228.27,-36 228.27,0 1973.02,0 1973.02,-36"/>
<text text-anchor="middle" x="1100.65" y="-12.95" font-family="Times,serif" font-size="14.00">there is not a shadow of evidence in favour of this view : to assert that we could not breed our cart and race &#45; horses , long and short &#45; horned cattle , and poultry of various breeds , and esculent vegetables , for an unlimited number of generations , would be opposed to all experience . character of domestic varieties </text>
</g>
<!-- AP_8_1b_reading -->
<g id="node2" class="node">
<title>AP_8_1b_reading</title>
<polygon fill="none" stroke="black" points="1127.65,-90 1073.65,-90 1073.65,-54 1127.65,-54 1127.65,-90"/>
<text text-anchor="middle" x="1100.65" y="-66.95" font-family="Times,serif" font-size="14.00">; </text>
</g>
<!-- AP_8_1a_reading -->
<g id="node3" class="node">
<title>AP_8_1a_reading</title>
<polygon fill="none" stroke="black" points="1127.65,-144 1073.65,-144 1073.65,-108 1127.65,-108 1127.65,-144"/>
<text text-anchor="middle" x="1100.65" y="-120.95" font-family="Times,serif" font-size="14.00">: </text>
</g>
<!-- AP_8_0_reading -->
<g id="node4" class="node">
<title>AP_8_0_reading</title>
<polygon fill="none" stroke="black" points="1418.02,-198 783.27,-198 783.27,-162 1418.02,-162 1418.02,-198"/>
<text text-anchor="middle" x="1100.65" y="-174.95" font-family="Times,serif" font-size="14.00">difficulty of distinguishing between varieties and species ; origin of domestic varieties from one or more species </text>
</g>
<!-- AP_8_0 -->
<g id="node5" class="node">
<title>AP_8_0</title>
<ellipse fill="none" stroke="black" cx="146.04" cy="-180" rx="41.63" ry="18"/>
<text text-anchor="middle" x="146.04" y="-174.95" font-family="Times,serif" font-size="14.00">Group 0</text>
</g>
<!-- AP_8_0&#45;&#45;AP_8_0_reading -->
<g id="edge4" class="edge">
<title>AP_8_0&#45;&#45;AP_8_0_reading</title>
<path fill="none" stroke="black" d="M187.97,-180C289.78,-180 562.12,-180 782.81,-180"/>
</g>
<!-- AP_8_1a -->
<g id="node6" class="node">
<title>AP_8_1a</title>
<ellipse fill="none" stroke="black" cx="146.04" cy="-126" rx="45.72" ry="18"/>
<text text-anchor="middle" x="146.04" y="-120.95" font-family="Times,serif" font-size="14.00">Group 1a</text>
</g>
<!-- AP_8_1a&#45;&#45;AP_8_1a_reading -->
<g id="edge3" class="edge">
<title>AP_8_1a&#45;&#45;AP_8_1a_reading</title>
<path fill="none" stroke="black" d="M192.03,-126C359.28,-126 942.31,-126 1073.36,-126"/>
</g>
<!-- AP_8_1b -->
<g id="node7" class="node">
<title>AP_8_1b</title>
<ellipse fill="none" stroke="black" cx="146.04" cy="-72" rx="46.23" ry="18"/>
<text text-anchor="middle" x="146.04" y="-66.95" font-family="Times,serif" font-size="14.00">Group 1b</text>
</g>
<!-- AP_8_1b&#45;&#45;AP_8_1b_reading -->
<g id="edge2" class="edge">
<title>AP_8_1b&#45;&#45;AP_8_1b_reading</title>
<path fill="none" stroke="black" d="M192.66,-72C360.78,-72 942.64,-72 1073.42,-72"/>
</g>
<!-- AP_8_2 -->
<g id="node8" class="node">
<title>AP_8_2</title>
<ellipse fill="none" stroke="black" cx="146.04" cy="-18" rx="41.63" ry="18"/>
<text text-anchor="middle" x="146.04" y="-12.95" font-family="Times,serif" font-size="14.00">Group 2</text>
</g>
<!-- AP_8_2&#45;&#45;AP_8_2_reading -->
<g id="edge1" class="edge">
<title>AP_8_2&#45;&#45;AP_8_2_reading</title>
<path fill="none" stroke="black" d="M187.97,-18C199.28,-18 212.69,-18 227.9,-18"/>
</g>
<!-- AP_8 -->
<g id="node9" class="node">
<title>AP_8</title>
<ellipse fill="none" stroke="black" cx="31.9" cy="-99" rx="31.9" ry="18"/>
<text text-anchor="middle" x="31.9" y="-93.95" font-family="Times,serif" font-size="14.00">AP_8</text>
</g>
<!-- AP_8&#45;&#45;AP_8_0 -->
<g id="edge8" class="edge">
<title>AP_8&#45;&#45;AP_8_0</title>
<path fill="none" stroke="black" d="M50.26,-114.14C63.47,-125.38 82.29,-140.8 99.81,-153 106.11,-157.39 113.15,-161.81 119.76,-165.76"/>
</g>
<!-- AP_8&#45;&#45;AP_8_1a -->
<g id="edge7" class="edge">
<title>AP_8&#45;&#45;AP_8_1a</title>
<path fill="none" stroke="black" d="M61.78,-105.95C75.41,-109.23 91.86,-113.2 106.53,-116.73"/>
</g>
<!-- AP_8&#45;&#45;AP_8_1b -->
<g id="edge6" class="edge">
<title>AP_8&#45;&#45;AP_8_1b</title>
<path fill="none" stroke="black" d="M61.78,-92.05C75.28,-88.8 91.55,-84.88 106.11,-81.37"/>
</g>
<!-- AP_8&#45;&#45;AP_8_2 -->
<g id="edge5" class="edge">
<title>AP_8&#45;&#45;AP_8_2</title>
<path fill="none" stroke="black" d="M50.26,-83.86C63.47,-72.62 82.29,-57.2 99.81,-45 106.11,-40.61 113.15,-36.19 119.76,-32.24"/>
</g>
<!-- AP_7_2_reading -->
<g id="node10" class="node">
<title>AP_7_2_reading</title>
<polygon fill="none" stroke="black" points="1446.15,-252 755.15,-252 755.15,-216 1446.15,-216 1446.15,-252"/>
<text text-anchor="middle" x="1100.65" y="-228.95" font-family="Times,serif" font-size="14.00">natural selection , as will hereafter be explained , will determine how far the new characters thus arising shall be preserved </text>
</g>
<!-- AP_7_2 -->
<g id="node11" class="node">
<title>AP_7_2</title>
<ellipse fill="none" stroke="black" cx="146.04" cy="-234" rx="41.63" ry="18"/>
<text text-anchor="middle" x="146.04" y="-228.95" font-family="Times,serif" font-size="14.00">Group 2</text>
</g>
<!-- AP_7_2&#45;&#45;AP_7_2_reading -->
<g id="edge9" class="edge">
<title>AP_7_2&#45;&#45;AP_7_2_reading</title>
<path fill="none" stroke="black" d="M187.97,-234C285.5,-234 539.55,-234 754.77,-234"/>
</g>
<!-- AP_7 -->
<g id="node12" class="node">
<title>AP_7</title>
<ellipse fill="none" stroke="black" cx="31.9" cy="-234" rx="31.9" ry="18"/>
<text text-anchor="middle" x="31.9" y="-228.95" font-family="Times,serif" font-size="14.00">AP_7</text>
</g>
<!-- AP_7&#45;&#45;AP_7_2 -->
<g id="edge10" class="edge">
<title>AP_7&#45;&#45;AP_7_2</title>
<path fill="none" stroke="black" d="M64.14,-234C76.58,-234 91.07,-234 104.32,-234"/>
</g>
<!-- AP_9_2_reading -->
<g id="node13" class="node">
<title>AP_9_2_reading</title>
<polygon fill="none" stroke="black" points="1446.15,-319 755.15,-319 755.15,-283 1446.15,-283 1446.15,-319"/>
<text text-anchor="middle" x="1100.65" y="-295.95" font-family="Times,serif" font-size="14.00">natural selection , as will hereafter be explained , will determine how far the new characters thus arising shall be preserved </text>
</g>
<!-- AP_9_1_reading -->
<g id="node14" class="node">
<title>AP_9_1_reading</title>
<polygon fill="none" stroke="black" points="1517.77,-373 683.52,-373 683.52,-337 1517.77,-337 1517.77,-373"/>
<text text-anchor="middle" x="1100.65" y="-349.95" font-family="Times,serif" font-size="14.00">preserved . character of domestic varieties ; difficulty of distinguishing between varieties and species ; origin of domestic varieties from one or more </text>
</g>
<!-- AP_9_1 -->
<g id="node15" class="node">
<title>AP_9_1</title>
<ellipse fill="none" stroke="black" cx="146.04" cy="-355" rx="41.63" ry="18"/>
<text text-anchor="middle" x="146.04" y="-349.95" font-family="Times,serif" font-size="14.00">Group 1</text>
</g>
<!-- AP_9_1&#45;&#45;AP_9_1_reading -->
<g id="edge12" class="edge">
<title>AP_9_1&#45;&#45;AP_9_1_reading</title>
<path fill="none" stroke="black" d="M187.97,-355C274.87,-355 485.99,-355 683.2,-355"/>
</g>
<!-- AP_9_2 -->
<g id="node16" class="node">
<title>AP_9_2</title>
<ellipse fill="none" stroke="black" cx="146.04" cy="-301" rx="41.63" ry="18"/>
<text text-anchor="middle" x="146.04" y="-295.95" font-family="Times,serif" font-size="14.00">Group 2</text>
</g>
<!-- AP_9_2&#45;&#45;AP_9_2_reading -->
<g id="edge11" class="edge">
<title>AP_9_2&#45;&#45;AP_9_2_reading</title>
<path fill="none" stroke="black" d="M187.97,-301C285.5,-301 539.55,-301 754.77,-301"/>
</g>
<!-- AP_9 -->
<g id="node17" class="node">
<title>AP_9</title>
<ellipse fill="none" stroke="black" cx="31.9" cy="-315" rx="31.9" ry="18"/>
<text text-anchor="middle" x="31.9" y="-309.95" font-family="Times,serif" font-size="14.00">AP_9</text>
</g>
<!-- AP_9&#45;&#45;AP_9_1 -->
<g id="edge14" class="edge">
<title>AP_9&#45;&#45;AP_9_1</title>
<path fill="none" stroke="black" d="M59.48,-324.48C75.54,-330.21 96.12,-337.55 113.06,-343.59"/>
</g>
<!-- AP_9&#45;&#45;AP_9_2 -->
<g id="edge13" class="edge">
<title>AP_9&#45;&#45;AP_9_2</title>
<path fill="none" stroke="black" d="M63.54,-311.17C76.51,-309.56 91.79,-307.65 105.58,-305.93"/>
</g>
<!-- AP_6_0_reading -->
<g id="node18" class="node">
<title>AP_6_0_reading</title>
<polygon fill="none" stroke="black" points="1446.15,-427 755.15,-427 755.15,-391 1446.15,-391 1446.15,-427"/>
<text text-anchor="middle" x="1100.65" y="-403.95" font-family="Times,serif" font-size="14.00">natural selection , as will hereafter be explained , will determine how far the new characters thus arising shall be preserved </text>
</g>
<!-- AP_6_0 -->
<g id="node19" class="node">
<title>AP_6_0</title>
<ellipse fill="none" stroke="black" cx="146.04" cy="-409" rx="41.63" ry="18"/>
<text text-anchor="middle" x="146.04" y="-403.95" font-family="Times,serif" font-size="14.00">Group 0</text>
</g>
<!-- AP_6_0&#45;&#45;AP_6_0_reading -->
<g id="edge15" class="edge">
<title>AP_6_0&#45;&#45;AP_6_0_reading</title>
<path fill="none" stroke="black" d="M187.97,-409C285.5,-409 539.55,-409 754.77,-409"/>
</g>
<!-- AP_6 -->
<g id="node20" class="node">
<title>AP_6</title>
<ellipse fill="none" stroke="black" cx="31.9" cy="-409" rx="31.9" ry="18"/>
<text text-anchor="middle" x="31.9" y="-403.95" font-family="Times,serif" font-size="14.00">AP_6</text>
</g>
<!-- AP_6&#45;&#45;AP_6_0 -->
<g id="edge16" class="edge">
<title>AP_6&#45;&#45;AP_6_0</title>
<path fill="none" stroke="black" d="M64.14,-409C76.58,-409 91.07,-409 104.32,-409"/>
</g>
</g>
</svg>
