<?xml version="1.0" encoding="UTF-8" standalone="no"?>
<!DOCTYPE svg PUBLIC "-//W3C//DTD SVG 1.1//EN"
 "http://www.w3.org/Graphics/SVG/1.1/DTD/svg11.dtd">
<!-- Generated by graphviz version 2.36.0 (20140111.2315)
 -->
<!-- Title: MyGraph Pages: 1 -->
<svg width="198pt" height="260pt"
 viewBox="0.00 0.00 198.00 260.00" xmlns="http://www.w3.org/2000/svg" xmlns:xlink="http://www.w3.org/1999/xlink">
<g id="graph0" class="graph" transform="scale(1 1) rotate(0) translate(4 256)">
<title>MyGraph</title>
<polygon fill="white" stroke="none" points="-4,4 -4,-256 194,-256 194,4 -4,4"/>
<!-- AP_8 -->
<g id="node1" class="node"><title>AP_8</title>
<ellipse fill="none" stroke="black" cx="31" cy="-99" rx="31.3957" ry="18"/>
<text text-anchor="middle" x="31" y="-95.3" font-family="Times,serif" font-size="14.00">AP_8</text>
</g>
<!-- AP_8_0 -->
<g id="node2" class="node"><title>AP_8_0</title>
<ellipse fill="none" stroke="black" cx="144" cy="-180" rx="40.8928" ry="18"/>
<text text-anchor="middle" x="144" y="-176.3" font-family="Times,serif" font-size="14.00">Group 0</text>
</g>
<!-- AP_8&#45;&#45;AP_8_0 -->
<g id="edge1" class="edge"><title>AP_8&#45;&#45;AP_8_0</title>
<path fill="none" stroke="black" d="M48.8324,-113.92C61.8603,-125.181 80.5636,-140.733 98,-153 104.259,-157.403 111.256,-161.824 117.832,-165.777"/>
</g>
<!-- AP_8_1a -->
<g id="node3" class="node"><title>AP_8_1a</title>
<ellipse fill="none" stroke="black" cx="144" cy="-126" rx="44.6926" ry="18"/>
<text text-anchor="middle" x="144" y="-122.3" font-family="Times,serif" font-size="14.00">Group 1a</text>
</g>
<!-- AP_8&#45;&#45;AP_8_1a -->
<g id="edge2" class="edge"><title>AP_8&#45;&#45;AP_8_1a</title>
<path fill="none" stroke="black" d="M60.01,-105.813C73.754,-109.156 90.507,-113.231 105.353,-116.843"/>
</g>
<!-- AP_8_1b -->
<g id="node4" class="node"><title>AP_8_1b</title>
<ellipse fill="none" stroke="black" cx="144" cy="-72" rx="45.4919" ry="18"/>
<text text-anchor="middle" x="144" y="-68.3" font-family="Times,serif" font-size="14.00">Group 1b</text>
</g>
<!-- AP_8&#45;&#45;AP_8_1b -->
<g id="edge3" class="edge"><title>AP_8&#45;&#45;AP_8_1b</title>
<path fill="none" stroke="black" d="M60.01,-92.1868C73.6255,-88.8749 90.1942,-84.8447 104.936,-81.2588"/>
</g>
<!-- AP_8_2 -->
<g id="node5" class="node"><title>AP_8_2</title>
<ellipse fill="none" stroke="black" cx="144" cy="-18" rx="40.8928" ry="18"/>
<text text-anchor="middle" x="144" y="-14.3" font-family="Times,serif" font-size="14.00">Group 2</text>
</g>
<!-- AP_8&#45;&#45;AP_8_2 -->
<g id="edge4" class="edge"><title>AP_8&#45;&#45;AP_8_2</title>
<path fill="none" stroke="black" d="M48.8324,-84.0799C61.8603,-72.8192 80.5636,-57.2666 98,-45 104.259,-40.5965 111.256,-36.1758 117.832,-32.2233"/>
</g>
<!-- AP_6 -->
<g id="node6" class="node"><title>AP_6</title>
<ellipse fill="none" stroke="black" cx="31" cy="-234" rx="31.3957" ry="18"/>
<text text-anchor="middle" x="31" y="-230.3" font-family="Times,serif" font-size="14.00">AP_6</text>
</g>
<!-- AP_6_0 -->
<g id="node7" class="node"><title>AP_6_0</title>
<ellipse fill="none" stroke="black" cx="144" cy="-234" rx="40.8928" ry="18"/>
<text text-anchor="middle" x="144" y="-230.3" font-family="Times,serif" font-size="14.00">Group 0</text>
</g>
<!-- AP_6&#45;&#45;AP_6_0 -->
<g id="edge5" class="edge"><title>AP_6&#45;&#45;AP_6_0</title>
<path fill="none" stroke="black" d="M62.3312,-234C74.784,-234 89.3815,-234 102.711,-234"/>
</g>
</g>
</svg>
