<?xml version="1.0" encoding="UTF-8" standalone="no"?>
<!DOCTYPE svg PUBLIC "-//W3C//DTD SVG 1.1//EN"
 "http://www.w3.org/Graphics/SVG/1.1/DTD/svg11.dtd">
<!-- Generated by graphviz version 12.1.2 (20240928.0832)
 -->
<!-- Title: MyGraph Pages: 1 -->
<svg width="2020pt" height="435pt"
 viewBox="0.00 0.00 2019.92 435.00" xmlns="http://www.w3.org/2000/svg" xmlns:xlink="http://www.w3.org/1999/xlink">
<g id="graph0" class="graph" transform="scale(1 1) rotate(0) translate(4 431)">
<title>MyGraph</title>
<polygon fill="white" stroke="none" points="-4,4 -4,-431 2015.92,-431 2015.92,4 -4,4"/>
<!-- Cluster_8_255_reading -->
<g id="node1" class="node">
<title>Cluster_8_255_reading</title>
<polygon fill="none" stroke="black" points="1456.92,-36 822.17,-36 822.17,0 1456.92,0 1456.92,-36"/>
<text text-anchor="middle" x="1139.54" y="-12.95" font-family="Times,serif" font-size="14.00">difficulty of distinguishing between varieties and species ; origin of domestic varieties from one or more species </text>
</g>
<!-- Cluster_8_254_reading -->
<g id="node2" class="node">
<title>Cluster_8_254_reading</title>
<polygon fill="none" stroke="black" points="1166.54,-90 1112.54,-90 1112.54,-54 1166.54,-54 1166.54,-90"/>
<text text-anchor="middle" x="1139.54" y="-66.95" font-family="Times,serif" font-size="14.00">: </text>
</g>
<!-- Cluster_8_192_reading -->
<g id="node3" class="node">
<title>Cluster_8_192_reading</title>
<polygon fill="none" stroke="black" points="2011.92,-144 267.17,-144 267.17,-108 2011.92,-108 2011.92,-144"/>
<text text-anchor="middle" x="1139.54" y="-120.95" font-family="Times,serif" font-size="14.00">there is not a shadow of evidence in favour of this view : to assert that we could not breed our cart and race &#45; horses , long and short &#45; horned cattle , and poultry of various breeds , and esculent vegetables , for an unlimited number of generations , would be opposed to all experience . character of domestic varieties </text>
</g>
<!-- Cluster_8_173_reading -->
<g id="node4" class="node">
<title>Cluster_8_173_reading</title>
<polygon fill="none" stroke="black" points="1166.54,-198 1112.54,-198 1112.54,-162 1166.54,-162 1166.54,-198"/>
<text text-anchor="middle" x="1139.54" y="-174.95" font-family="Times,serif" font-size="14.00">; </text>
</g>
<!-- Cluster_8_173 -->
<g id="node5" class="node">
<title>Cluster_8_173</title>
<ellipse fill="none" stroke="black" cx="180.33" cy="-180" rx="50.84" ry="18"/>
<text text-anchor="middle" x="180.33" y="-174.95" font-family="Times,serif" font-size="14.00">Group 173</text>
</g>
<!-- Cluster_8_173&#45;&#45;Cluster_8_173_reading -->
<g id="edge4" class="edge">
<title>Cluster_8_173&#45;&#45;Cluster_8_173_reading</title>
<path fill="none" stroke="black" d="M231.45,-180C405.7,-180 981.69,-180 1112.13,-180"/>
</g>
<!-- Cluster_8_192 -->
<g id="node6" class="node">
<title>Cluster_8_192</title>
<ellipse fill="none" stroke="black" cx="180.33" cy="-126" rx="50.84" ry="18"/>
<text text-anchor="middle" x="180.33" y="-120.95" font-family="Times,serif" font-size="14.00">Group 192</text>
</g>
<!-- Cluster_8_192&#45;&#45;Cluster_8_192_reading -->
<g id="edge3" class="edge">
<title>Cluster_8_192&#45;&#45;Cluster_8_192_reading</title>
<path fill="none" stroke="black" d="M231.45,-126C241.83,-126 253.65,-126 266.71,-126"/>
</g>
<!-- Cluster_8_254 -->
<g id="node7" class="node">
<title>Cluster_8_254</title>
<ellipse fill="none" stroke="black" cx="180.33" cy="-72" rx="50.84" ry="18"/>
<text text-anchor="middle" x="180.33" y="-66.95" font-family="Times,serif" font-size="14.00">Group 254</text>
</g>
<!-- Cluster_8_254&#45;&#45;Cluster_8_254_reading -->
<g id="edge2" class="edge">
<title>Cluster_8_254&#45;&#45;Cluster_8_254_reading</title>
<path fill="none" stroke="black" d="M231.45,-72C405.7,-72 981.69,-72 1112.13,-72"/>
</g>
<!-- Cluster_8_255 -->
<g id="node8" class="node">
<title>Cluster_8_255</title>
<ellipse fill="none" stroke="black" cx="180.33" cy="-18" rx="50.84" ry="18"/>
<text text-anchor="middle" x="180.33" y="-12.95" font-family="Times,serif" font-size="14.00">Group 255</text>
</g>
<!-- Cluster_8_255&#45;&#45;Cluster_8_255_reading -->
<g id="edge1" class="edge">
<title>Cluster_8_255&#45;&#45;Cluster_8_255_reading</title>
<path fill="none" stroke="black" d="M231.45,-18C340.31,-18 605.96,-18 821.82,-18"/>
</g>
<!-- Cluster_8 -->
<g id="node9" class="node">
<title>Cluster_8</title>
<ellipse fill="none" stroke="black" cx="46.75" cy="-99" rx="46.75" ry="18"/>
<text text-anchor="middle" x="46.75" y="-93.95" font-family="Times,serif" font-size="14.00">Cluster_8</text>
</g>
<!-- Cluster_8&#45;&#45;Cluster_8_173 -->
<g id="edge8" class="edge">
<title>Cluster_8&#45;&#45;Cluster_8_173</title>
<path fill="none" stroke="black" d="M70.66,-114.91C86.86,-125.97 109.21,-140.84 129.49,-153 136.24,-157.05 143.64,-161.2 150.62,-165"/>
</g>
<!-- Cluster_8&#45;&#45;Cluster_8_192 -->
<g id="edge7" class="edge">
<title>Cluster_8&#45;&#45;Cluster_8_192</title>
<path fill="none" stroke="black" d="M88.66,-107.39C103.6,-110.46 120.54,-113.94 135.71,-117.05"/>
</g>
<!-- Cluster_8&#45;&#45;Cluster_8_254 -->
<g id="edge6" class="edge">
<title>Cluster_8&#45;&#45;Cluster_8_254</title>
<path fill="none" stroke="black" d="M88.66,-90.61C103.6,-87.54 120.54,-84.06 135.71,-80.95"/>
</g>
<!-- Cluster_8&#45;&#45;Cluster_8_255 -->
<g id="edge5" class="edge">
<title>Cluster_8&#45;&#45;Cluster_8_255</title>
<path fill="none" stroke="black" d="M70.66,-83.09C86.86,-72.03 109.21,-57.16 129.49,-45 136.24,-40.95 143.64,-36.8 150.62,-33"/>
</g>
<!-- Cluster_7_22_reading -->
<g id="node10" class="node">
<title>Cluster_7_22_reading</title>
<polygon fill="none" stroke="black" points="1485.04,-252 794.04,-252 794.04,-216 1485.04,-216 1485.04,-252"/>
<text text-anchor="middle" x="1139.54" y="-228.95" font-family="Times,serif" font-size="14.00">natural selection , as will hereafter be explained , will determine how far the new characters thus arising shall be preserved </text>
</g>
<!-- Cluster_7_22 -->
<g id="node11" class="node">
<title>Cluster_7_22</title>
<ellipse fill="none" stroke="black" cx="180.33" cy="-234" rx="46.23" ry="18"/>
<text text-anchor="middle" x="180.33" y="-228.95" font-family="Times,serif" font-size="14.00">Group 22</text>
</g>
<!-- Cluster_7_22&#45;&#45;Cluster_7_22_reading -->
<g id="edge9" class="edge">
<title>Cluster_7_22&#45;&#45;Cluster_7_22_reading</title>
<path fill="none" stroke="black" d="M226.85,-234C328.19,-234 580.29,-234 793.76,-234"/>
</g>
<!-- Cluster_7 -->
<g id="node12" class="node">
<title>Cluster_7</title>
<ellipse fill="none" stroke="black" cx="46.75" cy="-234" rx="46.75" ry="18"/>
<text text-anchor="middle" x="46.75" y="-228.95" font-family="Times,serif" font-size="14.00">Cluster_7</text>
</g>
<!-- Cluster_7&#45;&#45;Cluster_7_22 -->
<g id="edge10" class="edge">
<title>Cluster_7&#45;&#45;Cluster_7_22</title>
<path fill="none" stroke="black" d="M93.77,-234C106.81,-234 121,-234 134,-234"/>
</g>
<!-- Cluster_9_87_reading -->
<g id="node13" class="node">
<title>Cluster_9_87_reading</title>
<polygon fill="none" stroke="black" points="1549.92,-319 729.17,-319 729.17,-283 1549.92,-283 1549.92,-319"/>
<text text-anchor="middle" x="1139.54" y="-295.95" font-family="Times,serif" font-size="14.00">. character of domestic varieties ; difficulty of distinguishing between varieties and species ; origin of domestic varieties from one or more species </text>
</g>
<!-- Cluster_9_22_reading -->
<g id="node14" class="node">
<title>Cluster_9_22_reading</title>
<polygon fill="none" stroke="black" points="1485.04,-373 794.04,-373 794.04,-337 1485.04,-337 1485.04,-373"/>
<text text-anchor="middle" x="1139.54" y="-349.95" font-family="Times,serif" font-size="14.00">natural selection , as will hereafter be explained , will determine how far the new characters thus arising shall be preserved </text>
</g>
<!-- Cluster_9_22 -->
<g id="node15" class="node">
<title>Cluster_9_22</title>
<ellipse fill="none" stroke="black" cx="180.33" cy="-355" rx="46.23" ry="18"/>
<text text-anchor="middle" x="180.33" y="-349.95" font-family="Times,serif" font-size="14.00">Group 22</text>
</g>
<!-- Cluster_9_22&#45;&#45;Cluster_9_22_reading -->
<g id="edge12" class="edge">
<title>Cluster_9_22&#45;&#45;Cluster_9_22_reading</title>
<path fill="none" stroke="black" d="M226.85,-355C328.19,-355 580.29,-355 793.76,-355"/>
</g>
<!-- Cluster_9_87 -->
<g id="node16" class="node">
<title>Cluster_9_87</title>
<ellipse fill="none" stroke="black" cx="180.33" cy="-301" rx="46.23" ry="18"/>
<text text-anchor="middle" x="180.33" y="-295.95" font-family="Times,serif" font-size="14.00">Group 87</text>
</g>
<!-- Cluster_9_87&#45;&#45;Cluster_9_87_reading -->
<g id="edge11" class="edge">
<title>Cluster_9_87&#45;&#45;Cluster_9_87_reading</title>
<path fill="none" stroke="black" d="M226.85,-301C318.07,-301 531.42,-301 728.81,-301"/>
</g>
<!-- Cluster_9 -->
<g id="node17" class="node">
<title>Cluster_9</title>
<ellipse fill="none" stroke="black" cx="46.75" cy="-315" rx="46.75" ry="18"/>
<text text-anchor="middle" x="46.75" y="-309.95" font-family="Times,serif" font-size="14.00">Cluster_9</text>
</g>
<!-- Cluster_9&#45;&#45;Cluster_9_22 -->
<g id="edge14" class="edge">
<title>Cluster_9&#45;&#45;Cluster_9_22</title>
<path fill="none" stroke="black" d="M84.4,-326.14C102.8,-331.74 125.02,-338.49 143.33,-344.06"/>
</g>
<!-- Cluster_9&#45;&#45;Cluster_9_87 -->
<g id="edge13" class="edge">
<title>Cluster_9&#45;&#45;Cluster_9_87</title>
<path fill="none" stroke="black" d="M92.29,-310.26C106.16,-308.78 121.44,-307.16 135.27,-305.69"/>
</g>
<!-- Cluster_6_22_reading -->
<g id="node18" class="node">
<title>Cluster_6_22_reading</title>
<polygon fill="none" stroke="black" points="1485.04,-427 794.04,-427 794.04,-391 1485.04,-391 1485.04,-427"/>
<text text-anchor="middle" x="1139.54" y="-403.95" font-family="Times,serif" font-size="14.00">natural selection , as will hereafter be explained , will determine how far the new characters thus arising shall be preserved </text>
</g>
<!-- Cluster_6_22 -->
<g id="node19" class="node">
<title>Cluster_6_22</title>
<ellipse fill="none" stroke="black" cx="180.33" cy="-409" rx="46.23" ry="18"/>
<text text-anchor="middle" x="180.33" y="-403.95" font-family="Times,serif" font-size="14.00">Group 22</text>
</g>
<!-- Cluster_6_22&#45;&#45;Cluster_6_22_reading -->
<g id="edge15" class="edge">
<title>Cluster_6_22&#45;&#45;Cluster_6_22_reading</title>
<path fill="none" stroke="black" d="M226.85,-409C328.19,-409 580.29,-409 793.76,-409"/>
</g>
<!-- Cluster_6 -->
<g id="node20" class="node">
<title>Cluster_6</title>
<ellipse fill="none" stroke="black" cx="46.75" cy="-409" rx="46.75" ry="18"/>
<text text-anchor="middle" x="46.75" y="-403.95" font-family="Times,serif" font-size="14.00">Cluster_6</text>
</g>
<!-- Cluster_6&#45;&#45;Cluster_6_22 -->
<g id="edge16" class="edge">
<title>Cluster_6&#45;&#45;Cluster_6_22</title>
<path fill="none" stroke="black" d="M93.77,-409C106.81,-409 121,-409 134,-409"/>
</g>
</g>
</svg>
