<?xml version="1.0" encoding="UTF-8" standalone="no"?>
<!DOCTYPE svg PUBLIC "-//W3C//DTD SVG 1.1//EN"
 "http://www.w3.org/Graphics/SVG/1.1/DTD/svg11.dtd">
<!-- Generated by graphviz version 2.36.0 (20140111.2315)
 -->
<!-- Title: MyGraph Pages: 1 -->
<svg width="1086pt" height="148pt"
 viewBox="0.00 0.00 1086.00 148.00" xmlns="http://www.w3.org/2000/svg" xmlns:xlink="http://www.w3.org/1999/xlink">
<g id="graph0" class="graph" transform="scale(1 1) rotate(0) translate(4 144)">
<title>MyGraph</title>
<polygon fill="white" stroke="none" points="-4,4 -4,-144 1082,-144 1082,4 -4,4"/>
<!-- 0 -->
<g id="node1" class="node"><title>0</title>
<g id="a_node1"><a xlink:title="Expanded node">
<polygon fill="plum" stroke="black" points="532,-103 532,-139 626,-139 626,-103 532,-103"/>
<text text-anchor="middle" x="544" y="-117.3" font-family="Times,serif" font-size="14.00">0</text>
<polyline fill="none" stroke="black" points="556,-103 556,-139 "/>
<text text-anchor="middle" x="591" y="-117.3" font-family="Times,serif" font-size="14.00">expanded</text>
</a>
</g>
</g>
<!-- 1 -->
<g id="node2" class="node"><title>1</title>
<g id="a_node2"><a xlink:title="there is not a shadow of evidence in favour of this view : to assert that we could not breed our cart and race &#45; horses , long and short &#45; horned cattle , and poultry of various breeds , and esculent vegetables , for an unlimited number of generations , would be opposed to all experience \n\n(4, 5)">
<polygon fill="lightblue" stroke="black" points="0,-0.5 0,-83.5 370,-83.5 370,-0.5 0,-0.5"/>
<text text-anchor="middle" x="12" y="-38.3" font-family="Times,serif" font-size="14.00">1</text>
<polyline fill="none" stroke="black" points="24,-0.5 24,-83.5 "/>
<text text-anchor="start" x="32" y="-68.3" font-family="Times,serif" font-size="14.00">there is not a shadow of evidence in favour of this view : </text>
<text text-anchor="start" x="32" y="-53.3" font-family="Times,serif" font-size="14.00">to assert that we could not breed our cart and race &#45; horses </text>
<text text-anchor="start" x="32" y="-38.3" font-family="Times,serif" font-size="14.00">, long and short &#45; horned cattle , and poultry of various </text>
<text text-anchor="start" x="32" y="-23.3" font-family="Times,serif" font-size="14.00">breeds , and esculent vegetables , for an unlimited number </text>
<text text-anchor="start" x="32" y="-8.3" font-family="Times,serif" font-size="14.00">of generations , would be opposed to all experience </text>
</a>
</g>
</g>
<!-- 0&#45;&gt;1 -->
<g id="edge1" class="edge"><title>0&#45;&gt;1</title>
<path fill="none" stroke="black" d="M531.645,-111.891C493.291,-105.229 437.61,-95.3479 380.066,-84.1902"/>
<polygon fill="black" stroke="black" points="380.548,-80.7184 370.063,-82.2413 379.209,-87.5892 380.548,-80.7184"/>
</g>
<!-- 2 -->
<g id="node3" class="node"><title>2</title>
<g id="a_node3"><a xlink:title=". character of domestic varieties \n\n(4, 5)">
<polygon fill="lightblue" stroke="black" points="388,-24 388,-60 610,-60 610,-24 388,-24"/>
<text text-anchor="middle" x="400" y="-38.3" font-family="Times,serif" font-size="14.00">2</text>
<polyline fill="none" stroke="black" points="412,-24 412,-60 "/>
<text text-anchor="start" x="420" y="-38.3" font-family="Times,serif" font-size="14.00">. character of domestic varieties </text>
</a>
</g>
</g>
<!-- 0&#45;&gt;2 -->
<g id="edge2" class="edge"><title>0&#45;&gt;2</title>
<path fill="none" stroke="black" d="M561.245,-102.911C550.267,-92.3442 536.01,-78.6217 523.911,-66.9766"/>
<polygon fill="black" stroke="black" points="526.337,-64.454 516.705,-60.041 521.483,-69.4975 526.337,-64.454"/>
</g>
<!-- 3 -->
<g id="node4" class="node"><title>3</title>
<polygon fill="lightgrey" stroke="black" points="628,-15 628,-69 690,-69 690,-15 628,-15"/>
<text text-anchor="middle" x="640" y="-38.3" font-family="Times,serif" font-size="14.00">3</text>
<polyline fill="none" stroke="black" points="652,-15 652,-69 "/>
<text text-anchor="start" x="660" y="-53.8" font-family="Times,serif" font-size="14.00">5: : </text>
<text text-anchor="start" x="660" y="-22.8" font-family="Times,serif" font-size="14.00">4: ; </text>
</g>
<!-- 0&#45;&gt;3 -->
<g id="edge3" class="edge"><title>0&#45;&gt;3</title>
<path fill="none" stroke="black" d="M598.764,-102.672C605.289,-96.829 612.532,-90.2132 619,-84 621.438,-81.6578 623.935,-79.2145 626.43,-76.7383"/>
<polygon fill="black" stroke="black" points="629.282,-78.835 633.858,-69.2793 624.322,-73.8958 629.282,-78.835"/>
</g>
<!-- 4 -->
<g id="node5" class="node"><title>4</title>
<g id="a_node5"><a xlink:title="difficulty of distinguishing between varieties and species ; origin of domestic varieties from one or more species \n\n(4, 5)">
<polygon fill="lightblue" stroke="black" points="708,-23 708,-61 1078,-61 1078,-23 708,-23"/>
<text text-anchor="middle" x="720" y="-38.3" font-family="Times,serif" font-size="14.00">4</text>
<polyline fill="none" stroke="black" points="732,-23 732,-61 "/>
<text text-anchor="start" x="740" y="-45.8" font-family="Times,serif" font-size="14.00">difficulty of distinguishing between varieties and species ; </text>
<text text-anchor="start" x="740" y="-30.8" font-family="Times,serif" font-size="14.00">origin of domestic varieties from one or more species </text>
</a>
</g>
</g>
<!-- 0&#45;&gt;4 -->
<g id="edge4" class="edge"><title>0&#45;&gt;4</title>
<path fill="none" stroke="black" d="M626.009,-108.472C674.366,-96.6141 750.699,-77.8954 809.384,-63.5046"/>
<polygon fill="black" stroke="black" points="810.504,-66.8337 819.383,-61.0527 808.837,-60.0352 810.504,-66.8337"/>
</g>
</g>
</svg>
