<?xml version="1.0" encoding="UTF-8" standalone="no"?>
<!DOCTYPE svg PUBLIC "-//W3C//DTD SVG 1.1//EN"
 "http://www.w3.org/Graphics/SVG/1.1/DTD/svg11.dtd">
<!-- Generated by graphviz version 12.2.1 (20241206.2353)
 -->
<!-- Title: MyGraph Pages: 1 -->
<svg width="1062pt" height="155pt"
 viewBox="0.00 0.00 1062.25 154.50" xmlns="http://www.w3.org/2000/svg" xmlns:xlink="http://www.w3.org/1999/xlink">
<g id="graph0" class="graph" transform="scale(1 1) rotate(0) translate(4 150.5)">
<title>MyGraph</title>
<polygon fill="white" stroke="none" points="-4,4 -4,-150.5 1058.25,-150.5 1058.25,4 -4,4"/>
<!-- 0 -->
<g id="node1" class="node">
<title>0</title>
<g id="a_node1"><a xlink:title="Expanded node">
<polygon fill="plum" stroke="black" points="522.12,-110 522.12,-146 612.62,-146 612.62,-110 522.12,-110"/>
<text text-anchor="middle" x="533.5" y="-122.95" font-family="Times,serif" font-size="14.00">0</text>
<polyline fill="none" stroke="black" points="544.88,-110 544.88,-146"/>
<text text-anchor="middle" x="578.75" y="-122.95" font-family="Times,serif" font-size="14.00">expanded</text>
</a>
</g>
</g>
<!-- 1 -->
<g id="node2" class="node">
<title>1</title>
<g id="a_node2"><a xlink:title="there is not a shadow of evidence in favour of this view : to assert that we could not breed our cart and race &#45; horses , long and short &#45; horned cattle , and poultry of various breeds , and esculent vegetables , for an unlimited number of generations , would be opposed to all experience &#10;&#10;(4, 5)">
<polygon fill="lightblue" stroke="black" points="0,-0.5 0,-91 362.75,-91 362.75,-0.5 0,-0.5"/>
<text text-anchor="middle" x="11.38" y="-40.7" font-family="Times,serif" font-size="14.00">1</text>
<polyline fill="none" stroke="black" points="22.75,-0.5 22.75,-91"/>
<text text-anchor="start" x="30.75" y="-73.7" font-family="Times,serif" font-size="14.00">there is not a shadow of evidence in favour of this view : </text>
<text text-anchor="start" x="30.75" y="-57.2" font-family="Times,serif" font-size="14.00">to assert that we could not breed our cart and race &#45; horses </text>
<text text-anchor="start" x="30.75" y="-40.7" font-family="Times,serif" font-size="14.00">, long and short &#45; horned cattle , and poultry of various </text>
<text text-anchor="start" x="30.75" y="-24.2" font-family="Times,serif" font-size="14.00">breeds , and esculent vegetables , for an unlimited number </text>
<text text-anchor="start" x="30.75" y="-7.7" font-family="Times,serif" font-size="14.00">of generations , would be opposed to all experience </text>
</a>
</g>
</g>
<!-- 0&#45;&gt;1 -->
<g id="edge1" class="edge">
<title>0&#45;&gt;1</title>
<path fill="none" stroke="black" d="M521.7,-119.42C484.38,-113.07 429.99,-103.47 374.26,-92.07"/>
<polygon fill="black" stroke="black" points="375.09,-88.66 364.59,-90.07 373.67,-95.52 375.09,-88.66"/>
</g>
<!-- 2 -->
<g id="node3" class="node">
<title>2</title>
<g id="a_node3"><a xlink:title=". character of domestic varieties &#10;&#10;(4, 5)">
<polygon fill="lightblue" stroke="black" points="380.75,-27.75 380.75,-63.75 598,-63.75 598,-27.75 380.75,-27.75"/>
<text text-anchor="middle" x="392.12" y="-40.7" font-family="Times,serif" font-size="14.00">2</text>
<polyline fill="none" stroke="black" points="403.5,-27.75 403.5,-63.75"/>
<text text-anchor="start" x="411.5" y="-40.7" font-family="Times,serif" font-size="14.00">. character of domestic varieties </text>
</a>
</g>
</g>
<!-- 0&#45;&gt;2 -->
<g id="edge2" class="edge">
<title>0&#45;&gt;2</title>
<path fill="none" stroke="black" d="M550.45,-109.59C539.82,-98.65 525.93,-84.36 514.08,-72.17"/>
<polygon fill="black" stroke="black" points="516.8,-69.95 507.32,-65.21 511.78,-74.82 516.8,-69.95"/>
</g>
<!-- 3 -->
<g id="node4" class="node">
<title>3</title>
<polygon fill="lightgrey" stroke="black" points="616.12,-17.25 616.12,-74.25 676.62,-74.25 676.62,-17.25 616.12,-17.25"/>
<text text-anchor="middle" x="627.5" y="-40.7" font-family="Times,serif" font-size="14.00">3</text>
<polyline fill="none" stroke="black" points="638.88,-17.25 638.88,-74.25"/>
<text text-anchor="start" x="646.88" y="-56.95" font-family="Times,serif" font-size="14.00">5: : </text>
<text text-anchor="start" x="646.88" y="-24.45" font-family="Times,serif" font-size="14.00">4: ; </text>
</g>
<!-- 0&#45;&gt;3 -->
<g id="edge3" class="edge">
<title>0&#45;&gt;3</title>
<path fill="none" stroke="black" d="M587.78,-109.79C594.21,-104.13 601.23,-97.7 607.38,-91.5 610.07,-88.78 612.8,-85.91 615.5,-82.99"/>
<polygon fill="black" stroke="black" points="617.87,-85.59 621.97,-75.83 612.67,-80.9 617.87,-85.59"/>
</g>
<!-- 4 -->
<g id="node5" class="node">
<title>4</title>
<g id="a_node5"><a xlink:title="difficulty of distinguishing between varieties and species ; origin of domestic varieties from one or more species &#10;&#10;(4, 5)">
<polygon fill="lightblue" stroke="black" points="694.5,-25.25 694.5,-66.25 1054.25,-66.25 1054.25,-25.25 694.5,-25.25"/>
<text text-anchor="middle" x="705.88" y="-40.7" font-family="Times,serif" font-size="14.00">4</text>
<polyline fill="none" stroke="black" points="717.25,-25.25 717.25,-66.25"/>
<text text-anchor="start" x="725.25" y="-48.95" font-family="Times,serif" font-size="14.00">difficulty of distinguishing between varieties and species ; </text>
<text text-anchor="start" x="725.25" y="-32.45" font-family="Times,serif" font-size="14.00">origin of domestic varieties from one or more species </text>
</a>
</g>
</g>
<!-- 0&#45;&gt;4 -->
<g id="edge4" class="edge">
<title>0&#45;&gt;4</title>
<path fill="none" stroke="black" d="M613,-115.07C658.73,-103.12 730.28,-84.42 786.96,-69.6"/>
<polygon fill="black" stroke="black" points="787.84,-72.99 796.63,-67.07 786.07,-66.22 787.84,-72.99"/>
</g>
</g>
</svg>
