<?xml version="1.0" encoding="UTF-8" standalone="no"?>
<!DOCTYPE svg PUBLIC "-//W3C//DTD SVG 1.1//EN"
 "http://www.w3.org/Graphics/SVG/1.1/DTD/svg11.dtd">
<!-- Generated by graphviz version 2.36.0 (20140111.2315)
 -->
<!-- Title: MyGraph Pages: 1 -->
<svg width="846pt" height="164pt"
 viewBox="0.00 0.00 846.00 164.00" xmlns="http://www.w3.org/2000/svg" xmlns:xlink="http://www.w3.org/1999/xlink">
<g id="graph0" class="graph" transform="scale(1 1) rotate(0) translate(4 160)">
<title>MyGraph</title>
<polygon fill="white" stroke="none" points="-4,4 -4,-160 842,-160 842,4 -4,4"/>
<!-- 0 -->
<g id="node1" class="node"><title>0</title>
<g id="a_node1"><a xlink:title="Expanded node">
<polygon fill="plum" stroke="black" points="372,-119 372,-155 466,-155 466,-119 372,-119"/>
<text text-anchor="middle" x="384" y="-133.3" font-family="Times,serif" font-size="14.00">0</text>
<polyline fill="none" stroke="black" points="396,-119 396,-155 "/>
<text text-anchor="middle" x="431" y="-133.3" font-family="Times,serif" font-size="14.00">expanded</text>
</a>
</g>
</g>
<!-- 1 -->
<g id="node2" class="node"><title>1</title>
<g id="a_node2"><a xlink:title="there is not a shadow of evidence in favour of this view : to assert that we could not breed our cart and race &#45; horses , long and short &#45; horned cattle , and poultry of various breeds , and esculent vegetables , for an unlimited number of generations , would be opposed to all experience . character of domestic varieties \n\n(4, 5)">
<polygon fill="lightblue" stroke="black" points="0,-1 0,-99 370,-99 370,-1 0,-1"/>
<text text-anchor="middle" x="12" y="-46.3" font-family="Times,serif" font-size="14.00">1</text>
<polyline fill="none" stroke="black" points="24,-1 24,-99 "/>
<text text-anchor="start" x="32" y="-83.8" font-family="Times,serif" font-size="14.00">there is not a shadow of evidence in favour of this view : </text>
<text text-anchor="start" x="32" y="-68.8" font-family="Times,serif" font-size="14.00">to assert that we could not breed our cart and race &#45; horses </text>
<text text-anchor="start" x="32" y="-53.8" font-family="Times,serif" font-size="14.00">, long and short &#45; horned cattle , and poultry of various </text>
<text text-anchor="start" x="32" y="-38.8" font-family="Times,serif" font-size="14.00">breeds , and esculent vegetables , for an unlimited number </text>
<text text-anchor="start" x="32" y="-23.8" font-family="Times,serif" font-size="14.00">of generations , would be opposed to all experience . </text>
<text text-anchor="start" x="32" y="-8.8" font-family="Times,serif" font-size="14.00">character of domestic varieties </text>
</a>
</g>
</g>
<!-- 0&#45;&gt;1 -->
<g id="edge1" class="edge"><title>0&#45;&gt;1</title>
<path fill="none" stroke="black" d="M371.928,-118.901C358.429,-113.998 342.968,-108.381 326.847,-102.526"/>
<polygon fill="black" stroke="black" points="327.883,-99.1782 317.289,-99.0536 325.493,-105.758 327.883,-99.1782"/>
</g>
<!-- 2 -->
<g id="node3" class="node"><title>2</title>
<polygon fill="lightgrey" stroke="black" points="388,-23 388,-77 450,-77 450,-23 388,-23"/>
<text text-anchor="middle" x="400" y="-46.3" font-family="Times,serif" font-size="14.00">2</text>
<polyline fill="none" stroke="black" points="412,-23 412,-77 "/>
<text text-anchor="start" x="420" y="-61.8" font-family="Times,serif" font-size="14.00">5: : </text>
<text text-anchor="start" x="420" y="-30.8" font-family="Times,serif" font-size="14.00">4: ; </text>
</g>
<!-- 0&#45;&gt;2 -->
<g id="edge2" class="edge"><title>0&#45;&gt;2</title>
<path fill="none" stroke="black" d="M419,-118.799C419,-109.756 419,-98.3094 419,-87.4091"/>
<polygon fill="black" stroke="black" points="422.5,-87.2217 419,-77.2218 415.5,-87.2218 422.5,-87.2217"/>
</g>
<!-- 3 -->
<g id="node4" class="node"><title>3</title>
<g id="a_node4"><a xlink:title="difficulty of distinguishing between varieties and species ; origin of domestic varieties from one or more species \n\n(4, 5)">
<polygon fill="lightblue" stroke="black" points="468,-31 468,-69 838,-69 838,-31 468,-31"/>
<text text-anchor="middle" x="480" y="-46.3" font-family="Times,serif" font-size="14.00">3</text>
<polyline fill="none" stroke="black" points="492,-31 492,-69 "/>
<text text-anchor="start" x="500" y="-53.8" font-family="Times,serif" font-size="14.00">difficulty of distinguishing between varieties and species ; </text>
<text text-anchor="start" x="500" y="-38.8" font-family="Times,serif" font-size="14.00">origin of domestic varieties from one or more species </text>
</a>
</g>
</g>
<!-- 0&#45;&gt;3 -->
<g id="edge3" class="edge"><title>0&#45;&gt;3</title>
<path fill="none" stroke="black" d="M466.072,-118.901C502.814,-105.555 554.088,-86.9296 593.644,-72.5611"/>
<polygon fill="black" stroke="black" points="594.97,-75.803 603.174,-69.0991 592.58,-69.2236 594.97,-75.803"/>
</g>
</g>
</svg>
