<?xml version="1.0" encoding="UTF-8" standalone="no"?>
<!DOCTYPE svg PUBLIC "-//W3C//DTD SVG 1.1//EN"
 "http://www.w3.org/Graphics/SVG/1.1/DTD/svg11.dtd">
<!-- Generated by graphviz version 12.2.1 (20241206.2353)
 -->
<!-- Title: MyGraph Pages: 1 -->
<svg width="1054pt" height="122pt"
 viewBox="0.00 0.00 1054.12 121.50" xmlns="http://www.w3.org/2000/svg" xmlns:xlink="http://www.w3.org/1999/xlink">
<g id="graph0" class="graph" transform="scale(1 1) rotate(0) translate(4 117.5)">
<title>MyGraph</title>
<polygon fill="white" stroke="none" points="-4,4 -4,-117.5 1050.12,-117.5 1050.12,4 -4,4"/>
<!-- 0 -->
<g id="node1" class="node">
<title>0</title>
<g id="a_node1"><a xlink:title="Expanded node">
<polygon fill="plum" stroke="black" points="519,-77 519,-113 609.5,-113 609.5,-77 519,-77"/>
<text text-anchor="middle" x="530.38" y="-89.95" font-family="Times,serif" font-size="14.00">0</text>
<polyline fill="none" stroke="black" points="541.75,-77 541.75,-113"/>
<text text-anchor="middle" x="575.62" y="-89.95" font-family="Times,serif" font-size="14.00">expanded</text>
</a>
</g>
</g>
<!-- 1 -->
<g id="node2" class="node">
<title>1</title>
<g id="a_node2"><a xlink:title="natural selection , as will hereafter be explained , will determine how far the new characters thus arising shall be preserved &#10;&#10;(0, 1, 2, 3)">
<polygon fill="lightblue" stroke="black" points="0,-0.5 0,-58 360.5,-58 360.5,-0.5 0,-0.5"/>
<text text-anchor="middle" x="11.38" y="-24.2" font-family="Times,serif" font-size="14.00">1</text>
<polyline fill="none" stroke="black" points="22.75,-0.5 22.75,-58"/>
<text text-anchor="start" x="30.75" y="-40.7" font-family="Times,serif" font-size="14.00">natural selection , as will hereafter be explained , will </text>
<text text-anchor="start" x="30.75" y="-24.2" font-family="Times,serif" font-size="14.00">determine how far the new characters thus arising shall be </text>
<text text-anchor="start" x="30.75" y="-7.7" font-family="Times,serif" font-size="14.00">preserved </text>
</a>
</g>
</g>
<!-- 0&#45;&gt;1 -->
<g id="edge1" class="edge">
<title>0&#45;&gt;1</title>
<path fill="none" stroke="black" d="M518.69,-86.44C479.31,-79.9 419.69,-70 361.41,-60.33"/>
<polygon fill="black" stroke="black" points="362.1,-56.89 351.66,-58.71 360.95,-63.8 362.1,-56.89"/>
</g>
<!-- 2 -->
<g id="node3" class="node">
<title>2</title>
<g id="a_node3"><a xlink:title=". character of domestic varieties &#10;&#10;(3)">
<polygon fill="lightgoldenrodyellow" stroke="black" points="378.62,-11.25 378.62,-47.25 595.88,-47.25 595.88,-11.25 378.62,-11.25"/>
<text text-anchor="middle" x="390" y="-24.2" font-family="Times,serif" font-size="14.00">2</text>
<polyline fill="none" stroke="black" points="401.38,-11.25 401.38,-47.25"/>
<text text-anchor="start" x="409.38" y="-24.2" font-family="Times,serif" font-size="14.00">. character of domestic varieties </text>
</a>
</g>
</g>
<!-- 0&#45;&gt;2 -->
<g id="edge2" class="edge">
<title>0&#45;&gt;2</title>
<path fill="none" stroke="black" d="M543.21,-76.58C535.15,-69.9 525.79,-62.15 517.05,-54.93"/>
<polygon fill="black" stroke="black" points="519.37,-52.3 509.43,-48.61 514.9,-57.69 519.37,-52.3"/>
</g>
<!-- 3 -->
<g id="node4" class="node">
<title>3</title>
<g id="a_node4"><a xlink:title="; &#10;&#10;(3)">
<polygon fill="lightgoldenrodyellow" stroke="black" points="614.25,-11.25 614.25,-47.25 668.25,-47.25 668.25,-11.25 614.25,-11.25"/>
<text text-anchor="middle" x="627.12" y="-24.2" font-family="Times,serif" font-size="14.00">3</text>
<polyline fill="none" stroke="black" points="640,-11.25 640,-47.25"/>
<text text-anchor="start" x="648" y="-24.2" font-family="Times,serif" font-size="14.00">; </text>
</a>
</g>
</g>
<!-- 0&#45;&gt;3 -->
<g id="edge3" class="edge">
<title>0&#45;&gt;3</title>
<path fill="none" stroke="black" d="M585.29,-76.58C593.35,-69.9 602.71,-62.15 611.45,-54.93"/>
<polygon fill="black" stroke="black" points="613.6,-57.69 619.07,-48.61 609.13,-52.3 613.6,-57.69"/>
</g>
<!-- 4 -->
<g id="node5" class="node">
<title>4</title>
<g id="a_node5"><a xlink:title="difficulty of distinguishing between varieties and species ; origin of domestic varieties from one or more species &#10;&#10;(3)">
<polygon fill="lightgoldenrodyellow" stroke="black" points="686.38,-8.75 686.38,-49.75 1046.12,-49.75 1046.12,-8.75 686.38,-8.75"/>
<text text-anchor="middle" x="697.75" y="-24.2" font-family="Times,serif" font-size="14.00">4</text>
<polyline fill="none" stroke="black" points="709.12,-8.75 709.12,-49.75"/>
<text text-anchor="start" x="717.12" y="-32.45" font-family="Times,serif" font-size="14.00">difficulty of distinguishing between varieties and species ; </text>
<text text-anchor="start" x="717.12" y="-15.95" font-family="Times,serif" font-size="14.00">origin of domestic varieties from one or more species </text>
</a>
</g>
</g>
<!-- 0&#45;&gt;4 -->
<g id="edge4" class="edge">
<title>0&#45;&gt;4</title>
<path fill="none" stroke="black" d="M609.79,-84.39C649.55,-75.99 708.79,-63.49 760.33,-52.61"/>
<polygon fill="black" stroke="black" points="760.99,-56.05 770.06,-50.56 759.55,-49.2 760.99,-56.05"/>
</g>
</g>
</svg>
