<?xml version="1.0" encoding="UTF-8" standalone="no"?>
<!DOCTYPE svg PUBLIC "-//W3C//DTD SVG 1.1//EN"
 "http://www.w3.org/Graphics/SVG/1.1/DTD/svg11.dtd">
<!-- Generated by graphviz version 2.36.0 (20140111.2315)
 -->
<!-- Title: MyGraph Pages: 1 -->
<svg width="747pt" height="118pt"
 viewBox="0.00 0.00 747.00 118.00" xmlns="http://www.w3.org/2000/svg" xmlns:xlink="http://www.w3.org/1999/xlink">
<g id="graph0" class="graph" transform="scale(1 1) rotate(0) translate(4 114)">
<title>MyGraph</title>
<polygon fill="white" stroke="none" points="-4,4 -4,-114 743,-114 743,4 -4,4"/>
<!-- 0 -->
<g id="node1" class="node"><title>0</title>
<g id="a_node1"><a xlink:title="Expanded node">
<polygon fill="plum" stroke="black" points="326,-73 326,-109 420,-109 420,-73 326,-73"/>
<text text-anchor="middle" x="338" y="-87.3" font-family="Times,serif" font-size="14.00">0</text>
<polyline fill="none" stroke="black" points="350,-73 350,-109 "/>
<text text-anchor="middle" x="385" y="-87.3" font-family="Times,serif" font-size="14.00">expanded</text>
</a>
</g>
</g>
<!-- 1 -->
<g id="node2" class="node"><title>1</title>
<g id="a_node2"><a xlink:title="natural selection , as will hereafter be explained , will determine how far the new characters thus arising shall be preserved \n\n(0, 1, 2, 3)">
<polygon fill="lightblue" stroke="black" points="-0.5,-0.5 -0.5,-53.5 368.5,-53.5 368.5,-0.5 -0.5,-0.5"/>
<text text-anchor="middle" x="11.5" y="-23.3" font-family="Times,serif" font-size="14.00">1</text>
<polyline fill="none" stroke="black" points="23.5,-0.5 23.5,-53.5 "/>
<text text-anchor="start" x="31.5" y="-38.3" font-family="Times,serif" font-size="14.00">natural selection , as will hereafter be explained , will </text>
<text text-anchor="start" x="31.5" y="-23.3" font-family="Times,serif" font-size="14.00">determine how far the new characters thus arising shall be </text>
<text text-anchor="start" x="31.5" y="-8.3" font-family="Times,serif" font-size="14.00">preserved </text>
</a>
</g>
</g>
<!-- 0&#45;&gt;1 -->
<g id="edge1" class="edge"><title>0&#45;&gt;1</title>
<path fill="none" stroke="black" d="M325.795,-74.5147C309.315,-69.1086 290.249,-62.8543 271.549,-56.7197"/>
<polygon fill="black" stroke="black" points="272.411,-53.3192 261.819,-53.5278 270.229,-59.9705 272.411,-53.3192"/>
</g>
<!-- 2 -->
<g id="node3" class="node"><title>2</title>
<g id="a_node3"><a xlink:title=". character of domestic varieties ; difficulty of distinguishing between varieties and species ; origin of domestic varieties from one or more species \n\n(3)">
<polygon fill="lightgoldenrodyellow" stroke="black" points="387,-0.5 387,-53.5 739,-53.5 739,-0.5 387,-0.5"/>
<text text-anchor="middle" x="399" y="-23.3" font-family="Times,serif" font-size="14.00">2</text>
<polyline fill="none" stroke="black" points="411,-0.5 411,-53.5 "/>
<text text-anchor="start" x="419" y="-38.3" font-family="Times,serif" font-size="14.00">. character of domestic varieties ; difficulty of </text>
<text text-anchor="start" x="419" y="-23.3" font-family="Times,serif" font-size="14.00">distinguishing between varieties and species ; origin of </text>
<text text-anchor="start" x="419" y="-8.3" font-family="Times,serif" font-size="14.00">domestic varieties from one or more species </text>
</a>
</g>
</g>
<!-- 0&#45;&gt;2 -->
<g id="edge2" class="edge"><title>0&#45;&gt;2</title>
<path fill="none" stroke="black" d="M420.455,-74.5147C437.098,-69.0838 456.364,-62.7969 475.247,-56.6353"/>
<polygon fill="black" stroke="black" points="476.349,-59.9574 484.77,-53.5278 474.177,-53.3027 476.349,-59.9574"/>
</g>
</g>
</svg>
