<?xml version="1.0" encoding="UTF-8" standalone="no"?>
<!DOCTYPE svg PUBLIC "-//W3C//DTD SVG 1.1//EN"
 "http://www.w3.org/Graphics/SVG/1.1/DTD/svg11.dtd">
<!-- Generated by graphviz version 2.36.0 (20140111.2315)
 -->
<!-- Title: MyGraph Pages: 1 -->
<svg width="1077pt" height="118pt"
 viewBox="0.00 0.00 1077.00 118.00" xmlns="http://www.w3.org/2000/svg" xmlns:xlink="http://www.w3.org/1999/xlink">
<g id="graph0" class="graph" transform="scale(1 1) rotate(0) translate(4 114)">
<title>MyGraph</title>
<polygon fill="white" stroke="none" points="-4,4 -4,-114 1073,-114 1073,4 -4,4"/>
<!-- 0 -->
<g id="node1" class="node"><title>0</title>
<g id="a_node1"><a xlink:title="Expanded node">
<polygon fill="plum" stroke="black" points="529,-73 529,-109 623,-109 623,-73 529,-73"/>
<text text-anchor="middle" x="541" y="-87.3" font-family="Times,serif" font-size="14.00">0</text>
<polyline fill="none" stroke="black" points="553,-73 553,-109 "/>
<text text-anchor="middle" x="588" y="-87.3" font-family="Times,serif" font-size="14.00">expanded</text>
</a>
</g>
</g>
<!-- 1 -->
<g id="node2" class="node"><title>1</title>
<g id="a_node2"><a xlink:title="natural selection , as will hereafter be explained , will determine how far the new characters thus arising shall be preserved \n\n(0, 1, 2, 3)">
<polygon fill="lightblue" stroke="black" points="-0.5,-0.5 -0.5,-53.5 368.5,-53.5 368.5,-0.5 -0.5,-0.5"/>
<text text-anchor="middle" x="11.5" y="-23.3" font-family="Times,serif" font-size="14.00">1</text>
<polyline fill="none" stroke="black" points="23.5,-0.5 23.5,-53.5 "/>
<text text-anchor="start" x="31.5" y="-38.3" font-family="Times,serif" font-size="14.00">natural selection , as will hereafter be explained , will </text>
<text text-anchor="start" x="31.5" y="-23.3" font-family="Times,serif" font-size="14.00">determine how far the new characters thus arising shall be </text>
<text text-anchor="start" x="31.5" y="-8.3" font-family="Times,serif" font-size="14.00">preserved </text>
</a>
</g>
</g>
<!-- 0&#45;&gt;1 -->
<g id="edge1" class="edge"><title>0&#45;&gt;1</title>
<path fill="none" stroke="black" d="M528.716,-82.5214C485.515,-75.6886 418.93,-65.1574 355.758,-55.1658"/>
<polygon fill="black" stroke="black" points="356.077,-51.6728 345.653,-53.5675 354.983,-58.5868 356.077,-51.6728"/>
</g>
<!-- 2 -->
<g id="node3" class="node"><title>2</title>
<g id="a_node3"><a xlink:title=". character of domestic varieties \n\n(3)">
<polygon fill="lightgoldenrodyellow" stroke="black" points="387,-9 387,-45 609,-45 609,-9 387,-9"/>
<text text-anchor="middle" x="399" y="-23.3" font-family="Times,serif" font-size="14.00">2</text>
<polyline fill="none" stroke="black" points="411,-9 411,-45 "/>
<text text-anchor="start" x="419" y="-23.3" font-family="Times,serif" font-size="14.00">. character of domestic varieties </text>
</a>
</g>
</g>
<!-- 0&#45;&gt;2 -->
<g id="edge2" class="edge"><title>0&#45;&gt;2</title>
<path fill="none" stroke="black" d="M554.273,-72.7295C545.99,-66.1457 536.404,-58.5264 527.518,-51.4628"/>
<polygon fill="black" stroke="black" points="529.617,-48.6604 519.611,-45.1778 525.261,-54.1402 529.617,-48.6604"/>
</g>
<!-- 3 -->
<g id="node4" class="node"><title>3</title>
<g id="a_node4"><a xlink:title="; \n\n(3)">
<polygon fill="lightgoldenrodyellow" stroke="black" points="627,-9 627,-45 681,-45 681,-9 627,-9"/>
<text text-anchor="middle" x="640.5" y="-23.3" font-family="Times,serif" font-size="14.00">3</text>
<polyline fill="none" stroke="black" points="654,-9 654,-45 "/>
<text text-anchor="start" x="662" y="-23.3" font-family="Times,serif" font-size="14.00">; </text>
</a>
</g>
</g>
<!-- 0&#45;&gt;3 -->
<g id="edge3" class="edge"><title>0&#45;&gt;3</title>
<path fill="none" stroke="black" d="M597.727,-72.7295C606.01,-66.1457 615.596,-58.5264 624.482,-51.4628"/>
<polygon fill="black" stroke="black" points="626.739,-54.1402 632.389,-45.1778 622.383,-48.6604 626.739,-54.1402"/>
</g>
<!-- 4 -->
<g id="node5" class="node"><title>4</title>
<g id="a_node5"><a xlink:title="difficulty of distinguishing between varieties and species ; origin of domestic varieties from one or more species \n\n(3)">
<polygon fill="lightgoldenrodyellow" stroke="black" points="699,-8 699,-46 1069,-46 1069,-8 699,-8"/>
<text text-anchor="middle" x="711" y="-23.3" font-family="Times,serif" font-size="14.00">4</text>
<polyline fill="none" stroke="black" points="723,-8 723,-46 "/>
<text text-anchor="start" x="731" y="-30.8" font-family="Times,serif" font-size="14.00">difficulty of distinguishing between varieties and species ; </text>
<text text-anchor="start" x="731" y="-15.8" font-family="Times,serif" font-size="14.00">origin of domestic varieties from one or more species </text>
</a>
</g>
</g>
<!-- 0&#45;&gt;4 -->
<g id="edge4" class="edge"><title>0&#45;&gt;4</title>
<path fill="none" stroke="black" d="M623.114,-80.516C665.868,-71.9097 730.31,-58.9376 784.448,-48.0397"/>
<polygon fill="black" stroke="black" points="785.317,-51.4351 794.429,-46.0305 783.935,-44.5728 785.317,-51.4351"/>
</g>
</g>
</svg>
